<svg xmlns="http://www.w3.org/2000/svg" width="96.821" height="79.462" viewBox="0 0 96.821 79.462">
  <g id="Ani_iconos" data-name="Ani iconos" transform="translate(0.03)">
    <g id="Grupo_1072697" data-name="Grupo 1072697">
      <path id="Trazado_613579" data-name="Trazado 613579" d="M89.41,8.21a1.34,1.34,0,0,0-1.13-.18c-.13-.06-.26-.11-.31-.13a5.842,5.842,0,0,1-.68-.41c-.52-.34-1-.72-1.53-1.05-1.12-.69-2.34-1.24-3.51-1.84-1.23-.63-2.48-1.2-3.71-1.82a23.725,23.725,0,0,0-3.72-1.74A.961.961,0,0,0,73.56.67,122.49,122.49,0,0,1,60.02,6.75,145.719,145.719,0,0,1,45.8,11.4c-2.58.7-5.17,1.37-7.77,1.99a1.206,1.206,0,0,0-.46-.29,2.343,2.343,0,0,0-.91-.1,6.335,6.335,0,0,0-1.72.4,4.544,4.544,0,0,0-2.73,2.4.6.6,0,0,0,0,.35c-.81.77-1.51,1.69-2.29,2.49-.89.92-1.78,1.84-2.68,2.76-1.77,1.8-3.63,3.51-5.51,5.2A120.989,120.989,0,0,1,9.8,35.96c-2.37,1.65-4.88,3.08-7.26,4.71a.144.144,0,0,0-.03.02.761.761,0,0,0-.76.5,7.789,7.789,0,0,0-.22,1.99l-.11,2.16c-.07,1.4-.14,2.8-.2,4.21L.84,57.96a.936.936,0,0,0,.11.45c-.02.04-.05.09-.07.13-.25.55.45,1.24.91.7a11.226,11.226,0,0,1,3.88-2.45c1.46-.73,2.86-1.54,4.3-2.32a74.948,74.948,0,0,0,8.26-5.38A101.994,101.994,0,0,0,32.81,36.13c1.25-1.34,2.43-2.74,3.61-4.14.57-.67,1.12-1.36,1.67-2.05.17-.22.34-.44.5-.67a.722.722,0,0,0,.44-.21,14.974,14.974,0,0,1,1.4-1.15,18.139,18.139,0,0,1,2.41-1.42c.02-.01.03-.03.05-.04a12.756,12.756,0,0,1,2.1-.74c.38-.1.77-.16,1.15-.26a1.476,1.476,0,0,0,.29-.12l.83-.12a.728.728,0,0,0,.58.18c11.54-1.02,22.22-5.54,32.39-10.85,2.89-1.51,5.68-3.2,8.58-4.69a.66.66,0,0,0,.14-.01.884.884,0,0,0,.43-1.6Z" fill="#df9079"/>
      <path id="Trazado_613580" data-name="Trazado 613580" d="M25.83,34.38c-.21-.84-.44-1.68-.67-2.52-.18-.65-.26-1.83-.9-2.18a.318.318,0,0,0-.42.11,2,2,0,0,0-.1.21.649.649,0,0,0-.51.17c-1.99,1.87-4.01,3.7-6.14,5.41s-4.36,3.21-6.61,4.73c-.39-.18-.99.03-.93.55a29.673,29.673,0,0,1-.11,6.32c-.09.56.47,1.16,1.04.8q2.325-1.47,4.66-2.94c.77-.49,1.51-.99,2.24-1.53.35-.25.65-.58,1-.85a9.407,9.407,0,0,0,1.06-.93.218.218,0,0,0,.05-.08c.24-.18.49-.36.73-.54q1.98-1.515,3.89-3.13a9.586,9.586,0,0,0,1.7-1.54c.46-.64.18-1.36,0-2.05Z" fill="#f7e7da"/>
      <path id="Trazado_613581" data-name="Trazado 613581" d="M88.89,8.22c-2.53,1.58-5.06,3.1-7.71,4.47s-5.42,2.58-8.2,3.69a157.467,157.467,0,0,1-17.02,5.85,50.476,50.476,0,0,1-5.16,1.13c-.85.14-1.7.24-2.56.35-.33.04-.67.06-1.01.08a13.928,13.928,0,0,1-2.22-.58,6.718,6.718,0,0,1-2.06-1.44.687.687,0,0,0-1.07.14,4.906,4.906,0,0,1-5.38,2.93c-.41-.08-.98.2-.91.7a7.18,7.18,0,0,1-1.61,4.92c-.89,1.32-1.8,2.63-2.77,3.9a81.839,81.839,0,0,1-6.23,7.17A76.212,76.212,0,0,1,10.03,53.54,97.615,97.615,0,0,1,.42,58.58c-.47.22-.13,1.05.36.85a76.71,76.71,0,0,0,17.01-9.99,78.221,78.221,0,0,0,7.19-6.17.264.264,0,0,0,.37.01c2.39-1.96,4.48-4.22,6.73-6.32a.428.428,0,0,0,.22-.06,4.132,4.132,0,0,0,1.2-.88c.32-.37.62-.76.92-1.15.04-.05.07-.1.1-.14.75-.7,1.5-1.41,2.23-2.14.61-.61,1.19-1.24,1.8-1.85a7.6,7.6,0,0,0,1.71-2,.691.691,0,0,0-.14-.78,25.186,25.186,0,0,1,2.38-1.45.554.554,0,0,0,.18-.02,16.447,16.447,0,0,1,3.86-.73.447.447,0,0,0,.36.22,12,12,0,0,0,2.24-.16.322.322,0,0,0,.28-.41.44.44,0,0,0,.1-.02l.61-.15a4.188,4.188,0,0,0,.59-.22c.39-.16.78-.28,1.16-.46a.118.118,0,0,0,.06-.15c.93-.17,1.87-.36,2.79-.59.65-.16,1.29-.33,1.93-.51a.325.325,0,0,0,.44.31q4.755-1.4,9.37-3.14a64.534,64.534,0,0,0,8.99-3.79.345.345,0,0,0,.12-.12c1.69-.72,3.37-1.48,5.02-2.29a60.48,60.48,0,0,0,8.87-5.1c.59-.42.06-1.38-.58-.99ZM31.5,36.28v.03c-.31.34-.63.67-.95,1,.36-.43.72-.87,1.08-1.31-.04.09-.08.19-.12.28Z" fill="#fff"/>
      <path id="Trazado_613582" data-name="Trazado 613582" d="M96.64,26.07a30.37,30.37,0,0,0-2.12-7.53,31.165,31.165,0,0,0-1.71-3.42q-.51-.87-1.08-1.71c-.33-.49-.59-.96-1.22-1.02a1.289,1.289,0,0,1-1.09.1A107.773,107.773,0,0,1,50.34,28.17a39.37,39.37,0,0,0-5.28,1.02,6.305,6.305,0,0,0-2.04,1.06l-.01.01a.408.408,0,0,0-.69-.23c-1.04,1.06-1.97,2.27-2.94,3.41-.93,1.09-1.9,2.14-2.88,3.19-2.01,2.15-4.12,4.21-6.29,6.19-3.1,2.82-6.32,5.5-9.57,8.15l-.9.66q-2.445,1.71-5.01,3.23A118.615,118.615,0,0,1,3.97,60.24a.7.7,0,0,0-.31.27.787.787,0,0,0-.4.88c.01.04.02.09.03.13a.769.769,0,0,0,.15.28,31.789,31.789,0,0,0,3.38,5.92,21.007,21.007,0,0,0,1.78,2.1c.09.66.74,1.18,1.24,1.6a17.7,17.7,0,0,0,2.04,1.52.745.745,0,0,0,.28.11,1.079,1.079,0,0,0,.03.19c.03.06.05.12.08.18.02.02.03.04.05.06v.01a2.105,2.105,0,0,0,.17.22c.03.04.05.04.11.09a.7.7,0,0,0,.1.08c.07.03.15.06.22.09a.671.671,0,0,0,.31.03.511.511,0,0,0,.21-.03l.21-.09a.979.979,0,0,0,.32-.32l.09-.21a.5.5,0,0,0,.02-.12c2.76-1.7,4.82-4.42,6.91-6.84q3.225-3.735,6.2-7.67a131.155,131.155,0,0,0,10.6-16.37q1.32-2.43,2.55-4.9a27.879,27.879,0,0,0,1.86-4.31.734.734,0,0,0,.32-.09c.36-.18.48-.56.66-.89a2.7,2.7,0,0,1,.67-.84,3.648,3.648,0,0,1,.87-.52.913.913,0,0,0,.89.85c.83-.01,1.63-.16,2.46-.13a20.43,20.43,0,0,1,2.47.23c1.6.26,3.18.61,4.78.88a28.555,28.555,0,0,0,4.88.43c1.74-.01,3.46-.31,5.19-.47,3.4-.31,6.83-.57,10.21-1.06s6.73-1.18,10.1-1.78c3.59-.64,7.24-1.24,10.56-2.81a.788.788,0,0,0,.35-.87Z" fill="#f7e7da"/>
      <g id="Grupo_1072695" data-name="Grupo 1072695">
        <path id="Trazado_613583" data-name="Trazado 613583" d="M61.39,51.79c-.06,0-.11.02-.17.02A.88.88,0,0,0,61.39,51.79Z" fill="#d0ae91"/>
        <path id="Trazado_613584" data-name="Trazado 613584" d="M61.39,51.79Z" fill="#d0ae91"/>
      </g>
      <path id="Trazado_613585" data-name="Trazado 613585" d="M94.27,31.96l-.03-.06a.459.459,0,0,0-.42-.24c-.16,0-.32-.01-.47-.02h-.04a.359.359,0,0,0-.1-.07c-.86-.39-1.78-.63-2.65-.98a11.3,11.3,0,0,1-1.07-.48c-.37-.19-.71-.42-1.09-.57a.312.312,0,0,0-.32.11h-.02c-2.48.24-4.93.81-7.39,1.21q-3.795.615-7.62,1.05c-5.04.57-10.11.95-15.18,1.06-.75.02-1.5.02-2.24.03-.47-.05-.94-.1-1.42-.16-1.52-.2-3.03-.43-4.55-.65a16.82,16.82,0,0,0-3.86-.4.311.311,0,0,0-.07-.09,1.709,1.709,0,0,0-.26-.21s-.02-.02-.03-.02a.439.439,0,0,0-.16-.14,2.082,2.082,0,0,0-.61-.2,1.4,1.4,0,0,0-.73-.04,1.052,1.052,0,0,0-.64.49,3.379,3.379,0,0,0-.24.51c-.06.15-.13.31-.19.46s-.12.31-.17.46a.747.747,0,0,0-.06.39v.01c-.07.19-.14.39-.2.58a.449.449,0,0,0-.13.11,19.123,19.123,0,0,0-1.26,2.85c-.42,1.01-.86,2.01-1.3,3q-1.32,2.985-2.83,5.88c-.73,1.41-1.51,2.8-2.32,4.17-.23.25-.45.52-.64.75-.56.66-1.07,1.36-1.56,2.06-.75,1.07-1.44,2.16-2.11,3.28a.216.216,0,0,0-.17.05,9.693,9.693,0,0,0-1.54,1.66c-.5.59-1.02,1.15-1.5,1.75-.99,1.25-1.96,2.5-2.96,3.73-.98,1.2-2.01,2.37-3.02,3.55-.53.62-1.07,1.23-1.61,1.83-.36.41-.75.8-1.1,1.22a.544.544,0,0,0-.6.62,31.308,31.308,0,0,1,.34,3.74c.01.44.63.79.95.39a16.426,16.426,0,0,1,2.07-2.18,25.585,25.585,0,0,1,.34,3.71.5.5,0,0,0,.93.25c.66-.85,1.33-1.69,2.04-2.5.35,1.49.7,2.97,1.05,4.46a.509.509,0,0,0,.92.12l1.92-2.88c.44-.66.83-1.36,1.23-2.05a4.9,4.9,0,0,0,.04.54,11.3,11.3,0,0,0,.42,1.59,14.627,14.627,0,0,0,1.26,2.83.586.586,0,0,0,1.01,0c.56-1.13,1.1-2.26,1.57-3.42a13.915,13.915,0,0,0,1.62,2.92.646.646,0,0,0,1.16-.15c.75-2.49,1.45-4.98,2.11-7.49.33-1.26.65-2.51.99-3.76.1-.39.21-.77.31-1.16.03.12.07.25.1.37.16.6.35,1.19.53,1.78s.35,1.19.54,1.78a4.5,4.5,0,0,0,.32.82,4.853,4.853,0,0,0,.3,1.96,11.488,11.488,0,0,0,.82,2.06c.02.06.03.12.05.18.05.2.1.41.16.61a.539.539,0,0,0,.03.1l.06.69a.325.325,0,0,0,.65,0,1.329,1.329,0,0,0-.02-.4v-.02a4.331,4.331,0,0,0-.08-.5.09.09,0,0,0-.01-.05c-.01-.1-.02-.2-.04-.3a.274.274,0,0,0,.08-.18c.19-1.75.19-3.53.31-5.29.04-.63.1-1.27.15-1.91a.09.09,0,0,1,.01-.05c.02-.1.04-.21.06-.31.19.47.38.93.58,1.4a.364.364,0,0,0,.12.15c.03.06.05.12.08.18.23.54.46,1.08.68,1.63a9.218,9.218,0,0,0,.76,1.66h0c.08.25.15.5.24.74.08.22.15.43.24.64a1.578,1.578,0,0,0,.29.56.425.425,0,0,0,.02.11,1.148,1.148,0,0,0,.11.29c.04.08.07.17.11.25a.217.217,0,0,0,.15.11.433.433,0,0,0,.16-.01.235.235,0,0,0,.14-.29,2.442,2.442,0,0,0-.1-.24c-.02-.06-.05-.12-.07-.18a.262.262,0,0,0,.05-.09.471.471,0,0,0,0-.31v-.14c.11-.18,0-.47-.07-.66h0c.02-.78.05-1.56.1-2.33.02-.33.04-.65.05-.97.02-.02.03-.04.05-.06a.3.3,0,0,1,.04-.08,3.949,3.949,0,0,0,.23.51c.08.18.16.37.25.55.18.37.38.74.57,1.11s.39.74.57,1.11l.27.54a1.033,1.033,0,0,0,.32.46,1.405,1.405,0,0,0,.08.31,3.489,3.489,0,0,0,.2.44,1.278,1.278,0,0,0,.14.21.293.293,0,0,0,.42.05.336.336,0,0,0,.07-.36c-.02-.07-.03-.15-.05-.22s-.04-.12-.07-.19c-.03-.09-.06-.18-.1-.27-.02-.04-.05-.09-.07-.13a.694.694,0,0,0-.06-.58,1.635,1.635,0,0,0-.02-.22.234.234,0,0,0,.07-.07,1.5,1.5,0,0,0,.09-.56c.01-.18.04-.35.04-.53,0-.39-.06-.79-.09-1.19-.05-.78-.12-1.55-.17-2.33a.277.277,0,0,0-.05-.16v-.03c-.03-.64-.1-1.27-.18-1.89.02.02.03.04.05.06l.6.87c.4.58.79,1.16,1.2,1.73.4.55.81,1.1,1.21,1.66.14.2.29.52.53.64a3.011,3.011,0,0,0,.27.42.2.2,0,0,0-.01.11.355.355,0,0,0,.02.1.6.6,0,0,0,.04.29c.03.08.05.15.08.23a.531.531,0,0,0,.08.17c.02.03.05.07.07.1.06.09.13.17.19.25a.424.424,0,0,0,.07.05.284.284,0,0,0,.12.04.378.378,0,0,0,.21-.04.345.345,0,0,0,.12-.12.317.317,0,0,0,.03-.25c0-.03-.02-.05-.03-.08h0c-.08-.21-.19-.41-.29-.61v-.01a.244.244,0,0,0-.01-.22h0a4.836,4.836,0,0,0-.45-.79V70.3a.316.316,0,0,0,.05-.22c-.12-.64-.2-1.26-.36-1.89s-.31-1.24-.45-1.86c-.29-1.24-.58-2.49-.87-3.73-.55-2.37-1.05-4.74-1.52-7.13.55.9,1.11,1.79,1.71,2.66.49.72.98,1.43,1.49,2.13.26.36.54.71.81,1.06a4.368,4.368,0,0,0,.6.69q1.215,1.815,2.56,3.55c.34.61.63,1.24.97,1.85.18.32.37.64.58.95q.165.24.36.48a1.678,1.678,0,0,0,.43.45c.31.19.61-.17.47-.47a2.652,2.652,0,0,0-.33-.42c-.11-.15-.22-.31-.32-.47-.2-.31-.37-.64-.54-.97-.1-.19-.2-.39-.3-.58v-.01a.574.574,0,0,0,.04-.51l-.15-.39c-.11-.28-.24-.55-.37-.82-.25-.52-.52-1.04-.79-1.55a.251.251,0,0,0-.2-.13,7.375,7.375,0,0,0-.38-.96c-.25-.53-.49-1.06-.74-1.58-.51-1.09-1.09-2.15-1.64-3.21a.435.435,0,0,0-.06-.07c-.04-.1-.08-.21-.12-.31-.3-.73-.65-1.45-.97-2.17-.66-1.5-1.25-3.02-1.9-4.52a41.432,41.432,0,0,0-1.97-4.59.409.409,0,0,0-.16-.16c-.46-1.22-.94-2.43-1.42-3.64q-1.05-2.655-2.13-5.29c-.36-.86-.72-1.72-1.11-2.57a8.629,8.629,0,0,0-.6-1.25h.1v-.01h0a40.65,40.65,0,0,0,2.39,3.95c.21.32.41.65.62.97a10.56,10.56,0,0,0,.86,1.51c.42.72.89,1.41,1.35,2.1q.84,1.275,1.71,2.52a.349.349,0,0,0,.03.41c1.32,1.91,2.73,3.76,4.12,5.61l.36.48a1.132,1.132,0,0,0,.1.13c.54.73,1.09,1.45,1.63,2.18.12.16.24.33.37.5a9.677,9.677,0,0,0,.75,1.06c.33.4.67.8,1.01,1.19l.24.27a7.536,7.536,0,0,0,.87,1.34c.47.64.95,1.27,1.46,1.88.5.59,1.01,1.16,1.54,1.72q.4.435.84.84c.09.09.19.17.28.26l.18.24a16.753,16.753,0,0,0,1.19,1.34.2.2,0,0,0-.03.11.474.474,0,0,0,.19.38c.07.08.15.15.22.23s.15.16.22.24c.08.14.15.27.22.41a.26.26,0,0,0,.28.14c.19.21.38.42.57.64s.58-.07.41-.32-.32-.47-.48-.71a4.782,4.782,0,0,0-.67-1.72c-.31-.6-.61-1.21-.91-1.82q-.915-1.89-1.86-3.78a.325.325,0,0,0-.38-.19c-.31-.65-.62-1.3-.95-1.94-.37-.89-.73-1.79-1.06-2.7-.13-.36-.26-.73-.38-1.1.06.06.11.12.17.17a.4.4,0,0,0,.15.4c1.61,1.41,3.28,2.75,4.98,4.05.85.65,1.69,1.31,2.55,1.94A12.391,12.391,0,0,0,73,59.19a.229.229,0,0,0,.27-.08l1.5,1.11a.863.863,0,0,0,.16.1,7.4,7.4,0,0,0,.66.82c.25.26.78,0,.64-.37a18.883,18.883,0,0,0-.9-1.87c-.16-.3-.31-.6-.49-.89a2.363,2.363,0,0,0-.56-.8.435.435,0,0,1-.04-.07c-.18-.39-.36-.77-.53-1.17-.18-.43-.34-.86-.51-1.29.38.23.76.47,1.14.69,1.13.66,2.32,1.2,3.5,1.75a.222.222,0,0,0,.21,0,.076.076,0,0,0,.02.04.436.436,0,0,0,.17.16c.04.03.09.06.13.09a.2.2,0,0,0,.13.04.655.655,0,0,0,.14,0h.02a1.212,1.212,0,0,0,.4.38.241.241,0,0,0,.35-.27,1.929,1.929,0,0,0-.37-.69c-.15-.22-.29-.44-.44-.66a6.169,6.169,0,0,0-.48-.66c-.08-.09-.16-.19-.24-.28a.209.209,0,0,0-.06-.04c-.03-.06-.07-.12-.1-.18a7.6,7.6,0,0,0-.46-.78c-.35-.52-.68-1.04-1-1.57-.52-.88-1.04-1.75-1.58-2.62.44.12.88.25,1.31.37l.96.33c.86.35,1.73.66,2.62.94.68.21,1.39.35,2.09.51.35.08.73.18,1.1.24.47.15.94.29,1.4.44.1.1.2.21.31.3a.324.324,0,0,0,.44,0,.314.314,0,0,0,0-.44c-.36-.35-.7-.71-1.02-1.09-.16-.18-.32-.37-.47-.55a.768.768,0,0,0-.15-.16,1.4,1.4,0,0,0-.16-.1l-.06-.03c-.14-.17-.28-.35-.41-.53-.35-.45-.7-.9-1.05-1.34-.33-.42-.65-.84-.96-1.27-.17-.23-.33-.47-.5-.7.1.03.2.05.29.08.72.22,1.45.41,2.18.59s1.47.33,2.22.45a8.215,8.215,0,0,1,2.19.51.3.3,0,0,0,.34-.06l.27.15a.274.274,0,0,0,.28-.47c-.62-.38-1.24-.77-1.87-1.14l-.93-.54c-.15-.09-.3-.18-.44-.27-.01,0-.02-.01-.03-.02-.05-.09-.09-.17-.15-.26-.09-.14-.21-.27-.31-.4a1.866,1.866,0,0,0-.3-.33c-.08-.06-.15-.13-.23-.19h.06c.72.04,1.45.08,2.17.08a27.718,27.718,0,0,1,4.17.18c.03.02.05.04.07.05a.233.233,0,0,0,.32-.05.2.2,0,0,0,.03-.34c0-.01-.01-.02-.02-.03a20.769,20.769,0,0,0-1.67-1.44l-.84-.69c-.29-.23-.58-.59-.97-.6a.241.241,0,0,0-.17.07c-.26-.28-.51-.57-.76-.86s-.52-.59-.79-.88h.29c.71,0,1.43-.12,2.14-.19a15.55,15.55,0,0,1,2.05-.07c.51.02,1.01-.02,1.51.02.03.02.05.05.08.07a.745.745,0,0,0,.79.15.344.344,0,0,0,.19-.34,2.141,2.141,0,0,0,.62.13.183.183,0,0,0,.09-.34,4.216,4.216,0,0,0-.67-.34c-.23-.11-.45-.22-.68-.34-.2-.1-.4-.22-.6-.33-.27-.27-.54-.53-.81-.8-.49-.49-1.01-.95-1.53-1.4a12.279,12.279,0,0,1,1.49-.3c.65-.09,1.3-.11,1.95-.18.35-.03.7-.08,1.06-.11a1.742,1.742,0,0,0,.9-.22.291.291,0,0,0,0-.5,1.543,1.543,0,0,0-.87-.16.556.556,0,0,0-.37-.36c-.36-.12-.73-.18-1.09-.31a4.448,4.448,0,0,1-.96-.51,8.578,8.578,0,0,1-.84-.65c-.07-.06-.14-.13-.21-.19.19,0,.39-.03.59-.05.33-.04.65-.07.98-.11s.65-.07.98-.11c.2-.02.4-.06.6-.1a1.035,1.035,0,0,0,.58-.24c.01-.01.01-.03.02-.04.13,0,.27,0,.4-.01a.491.491,0,0,0,.42-.24.459.459,0,0,0,.03-.44Z" fill="#d0ae91"/>
      <path id="Trazado_613586" data-name="Trazado 613586" d="M22.83,54.41a6.81,6.81,0,0,0-1.72,1.15c-.57.45-1.15.88-1.71,1.32-1.24.98-2.51,1.9-3.83,2.77q-1.89,1.26-3.86,2.37c-.66.37-1.32.73-1.99,1.08a13.524,13.524,0,0,0-2.1,1.1.468.468,0,0,0,.36.85,9.486,9.486,0,0,0,2.08-.94c.7-.36,1.4-.73,2.09-1.12,1.35-.76,2.66-1.57,3.95-2.44q1.89-1.275,3.68-2.68c.62-.49,1.22-1.01,1.8-1.54a5.884,5.884,0,0,0,1.46-1.65c.06-.13-.04-.33-.21-.27Z" fill="#d0ae91"/>
      <path id="Trazado_613587" data-name="Trazado 613587" d="M26.54,51.45a.365.365,0,0,0-.36-.36.772.772,0,0,0-.26.03l-.12.04a.5.5,0,0,0-.27.08.627.627,0,0,0-.19.17c-.05.06-.11.12-.16.18a4.945,4.945,0,0,0-.35.45l-.22.28a.507.507,0,0,0,0,.72.508.508,0,0,0,.36.15.554.554,0,0,0,.36-.15c.18-.15.36-.3.55-.45.09-.07.18-.15.27-.23.04-.04.09-.08.13-.12a.629.629,0,0,0,.19-.42c.01-.04.03-.08.04-.12a.582.582,0,0,0,.03-.26Z" fill="#d0ae91"/>
      <path id="Trazado_613588" data-name="Trazado 613588" d="M19.57,64.33a2.506,2.506,0,0,0-.87.58c-.29.24-.58.49-.87.73-.6.5-1.19.99-1.8,1.48-1.18.97-2.41,1.88-3.55,2.89-.27.24.08.68.38.49a37.2,37.2,0,0,0,3.66-2.71c.59-.47,1.18-.95,1.75-1.43.29-.24.58-.49.86-.73a2.606,2.606,0,0,0,.79-.83.331.331,0,0,0-.37-.48Z" fill="#d0ae91"/>
      <path id="Trazado_613589" data-name="Trazado 613589" d="M92.72,20.97a5.6,5.6,0,0,0-2.14.72c-.76.31-1.51.62-2.28.91-1.5.55-3,1.08-4.52,1.57-3.03.98-6.11,1.83-9.16,2.75a.228.228,0,0,0,.12.44,82.05,82.05,0,0,0,9.4-2.3c1.53-.45,3.05-.91,4.56-1.41.74-.24,1.48-.47,2.22-.7a5.661,5.661,0,0,0,2.23-.93.622.622,0,0,0-.44-1.05Z" fill="#d0ae91"/>
      <path id="Trazado_613590" data-name="Trazado 613590" d="M92.91,24.95c-.15-.55-.81-.45-1.22-.32-.34.11-.67.22-1.01.34-.65.22-1.28.52-1.91.79a.5.5,0,0,0-.33.58.473.473,0,0,0,.58.33c.67-.15,1.35-.26,2-.46.34-.1.68-.2,1.02-.31.41-.13,1.02-.39.87-.94Z" fill="#d0ae91"/>
      <path id="Trazado_613591" data-name="Trazado 613591" d="M88.75,15.51a.879.879,0,0,0-.73-.42,1.314,1.314,0,0,0-.82.32l-.46.3c-.19.13-.35.28-.53.43a2.588,2.588,0,0,0-.37.37,1.2,1.2,0,0,0-.11.12,1.577,1.577,0,0,0-.12.15.442.442,0,0,0-.05.15,1.041,1.041,0,0,1-.05.12.349.349,0,0,0,.24.42,1.416,1.416,0,0,0,.2.04.66.66,0,0,0,.28,0,.355.355,0,0,0,.1-.02,2.154,2.154,0,0,0,.56-.12l.25-.06a3.03,3.03,0,0,0,.42-.16c.16-.07.32-.15.49-.22.08-.04.16-.07.24-.11a1.008,1.008,0,0,0,.46-.43.878.878,0,0,0,0-.86Z" fill="#d0ae91"/>
      <g id="Grupo_1072696" data-name="Grupo 1072696">
        <path id="Trazado_613592" data-name="Trazado 613592" d="M.57,60.06a84.418,84.418,0,0,0,16.41-9.43A110.425,110.425,0,0,0,31.33,38.55c1.24-1.23,2.44-2.5,3.62-3.79.61-.67,1.21-1.35,1.81-2.04a12.088,12.088,0,0,0,1.62-2.07.389.389,0,0,0-.61-.47,13.9,13.9,0,0,0-1.55,1.7c-.55.64-1.1,1.26-1.66,1.89q-1.545,1.71-3.16,3.36c-2.15,2.19-4.4,4.3-6.73,6.3A109.444,109.444,0,0,1,9.49,54.37c-3,1.79-6.11,3.38-9.18,5.05-.35.19-.11.81.27.65h0Z"/>
        <path id="Trazado_613593" data-name="Trazado 613593" d="M38.28,30.51a31.808,31.808,0,0,0-1.27-3.79c-.44-1.24-.94-2.58-1.42-3.87q-1.44-3.8-2.99-7.55c-.2-.49-1.01-.27-.8.22,1.05,2.54,2.06,5.09,3.02,7.67.47,1.25.92,2.5,1.37,3.76s.82,2.63,1.39,3.86c.19.41.79.11.7-.3h0Z"/>
        <path id="Trazado_613594" data-name="Trazado 613594" d="M.46,59.65c.5-.3.35-1.12.38-1.63l.15-2.49c.1-1.7.21-3.41.31-5.11s.21-3.32.31-4.98c.05-.83.11-1.66.16-2.49.03-.44.06-.88.11-1.32.05-.35.06-.48-.21-.71a.225.225,0,0,0-.27-.03c-.53.34-.32,1.13-.35,1.69L.9,45.07c-.1,1.7-.21,3.41-.32,5.11S.37,53.5.26,55.16c-.05.83-.11,1.66-.16,2.49-.03.55-.35,1.59.14,1.98a.164.164,0,0,0,.19.02Z"/>
        <path id="Trazado_613595" data-name="Trazado 613595" d="M1.46,41.29a13.25,13.25,0,0,0,3.29-1.77c1.16-.7,2.31-1.43,3.44-2.17,2.24-1.47,4.43-3.03,6.56-4.66A108.178,108.178,0,0,0,26.76,22.07q1.515-1.56,2.95-3.18c.49-.56.98-1.12,1.47-1.69a12.791,12.791,0,0,0,1.32-1.62.365.365,0,0,0-.57-.44,15.283,15.283,0,0,0-1.19,1.47q-.6.735-1.23,1.47c-.85.98-1.72,1.94-2.62,2.88-1.8,1.89-3.69,3.71-5.63,5.46A112.808,112.808,0,0,1,8.58,36.26q-1.83,1.23-3.72,2.38c-.62.38-1.24.75-1.87,1.12a8.618,8.618,0,0,0-1.76,1.15.224.224,0,0,0,.22.37h0Z"/>
        <path id="Trazado_613596" data-name="Trazado 613596" d="M90.08,8.76c-2.69,1.57-5.34,3.22-8.08,4.71s-5.54,2.87-8.4,4.12a108.689,108.689,0,0,1-17.58,5.98c-1.71.42-3.43.81-5.16,1.15-.86.17-1.73.33-2.6.48a14.728,14.728,0,0,0-2.58.51.394.394,0,0,0,.1.77,10.547,10.547,0,0,0,2.3-.27c.76-.13,1.59-.28,2.38-.43,1.51-.29,3.02-.61,4.52-.96,3.07-.72,6.11-1.58,9.11-2.56a111.018,111.018,0,0,0,17.22-7.32,69.932,69.932,0,0,0,9.11-5.56c.36-.27.05-.85-.36-.62h0Z"/>
        <path id="Trazado_613597" data-name="Trazado 613597" d="M46.32,25.86c-.72-1.08-1.65-2.05-2.47-3.05s-1.71-2.1-2.55-3.16q-2.565-3.24-5.01-6.55c-.31-.43-1.04-.01-.72.42,1.61,2.17,3.24,4.33,4.91,6.45.84,1.06,1.68,2.12,2.53,3.17a32.54,32.54,0,0,0,2.7,3.19c.31.29.86-.09.6-.47h0Z"/>
        <path id="Trazado_613598" data-name="Trazado 613598" d="M90.29,8.88c-.07-.6-.82-.76-1.3-1.01-.77-.41-1.55-.81-2.33-1.21-1.51-.79-3.03-1.58-4.54-2.36s-2.95-1.54-4.43-2.31c-.77-.41-1.55-.81-2.32-1.22C74.85.5,74.23-.14,73.63.15a.228.228,0,0,0-.1.25c.05.31.16.39.45.52.38.17.75.35,1.12.55.74.38,1.48.77,2.22,1.15,1.51.79,3.03,1.58,4.54,2.37s2.95,1.54,4.42,2.32c.74.39,1.47.77,2.21,1.16.48.25,1.16.86,1.7.57a.165.165,0,0,0,.08-.13h0Z"/>
        <path id="Trazado_613599" data-name="Trazado 613599" d="M73.76,0a7.1,7.1,0,0,0-1.6.76c-.57.31-1.14.61-1.71.91-1.16.61-2.32,1.19-3.5,1.76-2.43,1.17-4.91,2.25-7.42,3.24a107.3,107.3,0,0,1-15.15,4.76q-2.085.48-4.2.87-1.095.2-2.19.36a21.591,21.591,0,0,0-2.16.3.364.364,0,0,0,.1.71,11.378,11.378,0,0,0,1.74-.24c.66-.1,1.31-.22,1.97-.33,1.3-.23,2.59-.49,3.87-.77q3.9-.855,7.72-2.03A114.528,114.528,0,0,0,66.21,4.55c1.35-.63,2.69-1.29,4.02-1.97.64-.33,1.27-.67,1.9-1.01A7.926,7.926,0,0,0,73.98.4a.223.223,0,0,0-.22-.37h0Z"/>
        <path id="Trazado_613600" data-name="Trazado 613600" d="M32.3,15.77a1.11,1.11,0,0,0,.31-.48,3.308,3.308,0,0,1,.29-.47,2.855,2.855,0,0,1,.75-.72,2.707,2.707,0,0,1,2.23-.37.4.4,0,0,0,.48-.27.393.393,0,0,0-.27-.48,4.008,4.008,0,0,0-2.75.52,3.828,3.828,0,0,0-.95.89,2.767,2.767,0,0,0-.33.55.95.95,0,0,0-.16.67.282.282,0,0,0,.41.17h0Z"/>
        <path id="Trazado_613601" data-name="Trazado 613601" d="M38.18,30.72a5.472,5.472,0,0,0,.71-.88c.26-.31.54-.62.81-.92a8.366,8.366,0,0,1,4.52-2.32c.47-.07.95-.11,1.43-.15.41-.04.8,0,1.06-.36a.346.346,0,0,0-.05-.42c-.38-.31-.83-.13-1.27-.03-.47.1-.95.22-1.41.36a14.6,14.6,0,0,0-2.64,1.11,25.642,25.642,0,0,0-2.23,1.37,3.356,3.356,0,0,0-1.5,2.01c-.04.33.38.4.58.24h0Z"/>
        <path id="Trazado_613602" data-name="Trazado 613602" d="M2.83,60.86a22.393,22.393,0,0,0,3.84,7.8,26.337,26.337,0,0,0,6.37,5.86.41.41,0,0,0,.47-.06,46.062,46.062,0,0,0,3.97-3.81c1.28-1.3,2.51-2.57,3.74-3.88,2.48-2.64,4.88-5.36,7.15-8.18s4.3-5.58,6.23-8.53a62.975,62.975,0,0,0,5.13-9.11,49.1,49.1,0,0,0,3.2-11.01.4.4,0,1,0-.79-.11A31.19,31.19,0,0,1,39.5,39.8a60.088,60.088,0,0,1-5,9.19A114.871,114.871,0,0,1,21.39,65.54c-1.36,1.44-2.74,2.86-4.16,4.24s-2.95,2.67-4.27,4.14l.47-.06A23.737,23.737,0,0,1,3.37,60.72a.28.28,0,0,0-.54.15h0Z"/>
        <path id="Trazado_613603" data-name="Trazado 613603" d="M3.17,60.96a107.857,107.857,0,0,0,17.23-9.9A113.228,113.228,0,0,0,34.61,38.84c2.82-2.84,5.5-5.8,8.19-8.76.31-.34-.2-.84-.5-.5A184.681,184.681,0,0,1,28.16,44.11,91.525,91.525,0,0,1,13.18,55.17C9.85,57.13,6.41,58.9,2.91,60.52c-.29.14-.04.57.25.43h0Z"/>
        <path id="Trazado_613604" data-name="Trazado 613604" d="M42.69,29.73c-.14,1.72-.17,3.45-.34,5.17s-.42,3.55-.73,5.31a78.236,78.236,0,0,1-2.46,9.9A116.658,116.658,0,0,1,31.1,68.98q-1.305,2.49-2.68,4.93a53.732,53.732,0,0,0-2.86,5.11c-.11.26.23.62.45.34a35.43,35.43,0,0,0,2.69-4.48c.85-1.51,1.67-3,2.47-4.52,1.6-3.03,3.11-6.1,4.49-9.23a91.132,91.132,0,0,0,6.32-19.86c.35-1.88.63-3.77.82-5.68a35.906,35.906,0,0,0,.24-5.87.17.17,0,0,0-.34,0h0Z"/>
        <path id="Trazado_613605" data-name="Trazado 613605" d="M43,29.5a113.437,113.437,0,0,1-3.94,39.06q-.735,2.61-1.62,5.16c-.3.88-.62,1.75-.95,2.62a14.878,14.878,0,0,0-.91,2.6.213.213,0,0,0,.39.16,8.789,8.789,0,0,0,.92-1.99c.31-.8.6-1.6.88-2.41.55-1.56,1.05-3.14,1.52-4.73q1.41-4.83,2.36-9.79A113,113,0,0,0,43.63,40.5a101.251,101.251,0,0,0-.46-11.01c-.01-.11-.18-.11-.17,0h0Z"/>
        <path id="Trazado_613606" data-name="Trazado 613606" d="M21.69,77.19A87.988,87.988,0,0,0,40.45,42.12c.48-1.81.9-3.64,1.29-5.47.19-.88.36-1.76.52-2.65a13.893,13.893,0,0,0,.36-2.73.185.185,0,0,0-.36-.05,17.648,17.648,0,0,0-.37,2.31c-.11.88-.26,1.75-.41,2.62-.26,1.57-.61,3.14-1,4.69a82.736,82.736,0,0,1-2.91,9.38,87.5,87.5,0,0,1-9.12,17.74,89.585,89.585,0,0,1-6.93,9.08c-.09.1.06.25.15.15h0Z"/>
        <path id="Trazado_613607" data-name="Trazado 613607" d="M18.58,75.28A89.918,89.918,0,0,0,30.47,60.24,99.668,99.668,0,0,0,39.14,43.4c.66-1.65,1.27-3.32,1.85-5.01a34.868,34.868,0,0,0,1.54-5.2.124.124,0,0,0-.24-.06c-.55,1.5-.92,3.07-1.41,4.59s-.97,2.91-1.51,4.34a91.737,91.737,0,0,1-3.85,8.81,99.958,99.958,0,0,1-9.93,15.92c-2.23,2.92-4.65,5.67-7.12,8.39a.078.078,0,0,0,.11.11h0Z"/>
        <path id="Trazado_613608" data-name="Trazado 613608" d="M31.67,79.13A105.362,105.362,0,0,0,42.73,42.75c.22-1.79.38-3.58.48-5.38.05-.9.08-1.8.1-2.69s-.07-1.79-.14-2.69c0-.1-.15-.1-.16,0-.22,3.14-.33,6.29-.58,9.42a90.537,90.537,0,0,1-1.29,9.56,104.052,104.052,0,0,1-5.16,18.09c-1.31,3.4-2.82,6.73-4.44,9.99a.074.074,0,1,0,.13.07h0Z"/>
        <path id="Trazado_613609" data-name="Trazado 613609" d="M6.58,61.69A91.772,91.772,0,0,0,36.59,38.8c1.15-1.33,2.26-2.7,3.34-4.09a36.189,36.189,0,0,0,3.08-4.33c.07-.13-.11-.29-.21-.16-.96,1.19-1.78,2.5-2.7,3.73-.96,1.29-1.96,2.56-3,3.79a91.817,91.817,0,0,1-6.46,6.92A94.565,94.565,0,0,1,15.78,56.39,93.479,93.479,0,0,1,6.5,61.57c-.09.04-.01.18.08.13h0Z"/>
        <path id="Trazado_613610" data-name="Trazado 613610" d="M14.22,69.17a96.141,96.141,0,0,0,24.3-28.45,60.774,60.774,0,0,0,4.53-9.28c.06-.16-.19-.26-.27-.11-1.37,2.77-2.58,5.6-4.05,8.33a89.492,89.492,0,0,1-4.81,7.96A97.315,97.315,0,0,1,22.03,61.98c-2.51,2.5-5.18,4.84-7.91,7.1-.07.06.03.15.09.09h0Z"/>
        <path id="Trazado_613611" data-name="Trazado 613611" d="M9.99,67.74A111.856,111.856,0,0,0,38.08,39.75a50.4,50.4,0,0,0,5.35-9.06c.04-.1-.12-.16-.17-.07-1.59,2.64-2.98,5.38-4.69,7.94a98.855,98.855,0,0,1-5.91,7.93A119.1,119.1,0,0,1,18.82,60.61q-4.275,3.705-8.88,7.03c-.06.04,0,.15.06.1h0Z"/>
        <path id="Trazado_613612" data-name="Trazado 613612" d="M8.7,64.38A94.879,94.879,0,0,0,36.86,40.13c1.04-1.34,2.04-2.7,3.02-4.09a31.061,31.061,0,0,0,2.95-4.61c.03-.07-.06-.15-.11-.09-.93,1.16-1.67,2.49-2.5,3.73s-1.77,2.54-2.71,3.78q-2.835,3.75-6.04,7.22A96.59,96.59,0,0,1,17.52,58.46a105.84,105.84,0,0,1-8.89,5.8c-.08.05,0,.18.08.13h0Z"/>
        <path id="Trazado_613613" data-name="Trazado 613613" d="M89.98,11.86a23.712,23.712,0,0,1,6.04,15.41l.28-.37c-1.81.35-3.59.95-5.38,1.42s-3.44.87-5.17,1.25c-3.53.78-7.1,1.43-10.68,1.93a101.183,101.183,0,0,1-10.9.93,59.594,59.594,0,0,1-10.26-.38,43.507,43.507,0,0,1-5.29-1.08,23.9,23.9,0,0,1-5.14-1.9.4.4,0,1,0-.31.73,49.36,49.36,0,0,0,9.29,2.69,56.428,56.428,0,0,0,10.04.65,117.391,117.391,0,0,0,21.79-2.53c2.05-.42,4.1-.88,6.14-1.36a51.716,51.716,0,0,0,6.08-1.6.4.4,0,0,0,.28-.37,26.261,26.261,0,0,0-1.76-8.58,22.228,22.228,0,0,0-4.65-7.22c-.25-.26-.63.13-.4.4h0Z"/>
        <path id="Trazado_613614" data-name="Trazado 613614" d="M90.04,11.37a106.536,106.536,0,0,1-17.26,9.58,104.754,104.754,0,0,1-17.95,5.69q-5.79,1.365-11.65,2.43c-.45.08-.26.77.19.68a182.355,182.355,0,0,0,19.85-4.72,99.223,99.223,0,0,0,17.09-7.18c3.43-1.84,6.75-3.88,9.99-6.05.27-.18.02-.62-.25-.43h0Z"/>
        <path id="Trazado_613615" data-name="Trazado 613615" d="M42.96,29.78a43.771,43.771,0,0,0,8.75,4.41,78.859,78.859,0,0,0,9.43,3.11,111.538,111.538,0,0,0,20.8,3.21c1.99.14,3.99.24,5.98.31a41.867,41.867,0,0,0,6.24.06c.28-.03.42-.51.08-.56a47.751,47.751,0,0,0-5.22-.19c-1.73-.05-3.59-.12-5.38-.22-3.57-.2-7.14-.51-10.68-.97a90.28,90.28,0,0,1-19.66-4.7c-1.78-.67-3.54-1.4-5.25-2.22s-3.27-1.71-4.92-2.53a.168.168,0,0,0-.17.29h0Z"/>
        <path id="Trazado_613616" data-name="Trazado 613616" d="M42.68,29.78A108.12,108.12,0,0,0,78.07,47.05c1.81.5,3.63.96,5.46,1.35.91.2,1.82.38,2.73.55a10.4,10.4,0,0,0,2.6.32.215.215,0,0,0,.06-.42,11.622,11.622,0,0,0-2.27-.49c-.84-.15-1.68-.31-2.52-.49-1.59-.33-3.16-.7-4.73-1.11-3.21-.84-6.39-1.83-9.51-2.97a115.435,115.435,0,0,1-18.01-8.36c-3.11-1.79-6.17-3.72-9.1-5.8-.09-.06-.17.08-.09.15h0Z"/>
        <path id="Trazado_613617" data-name="Trazado 613617" d="M94.55,35.85a87.781,87.781,0,0,1-39.53-2.12c-1.78-.52-3.54-1.09-5.27-1.75-.83-.32-1.65-.65-2.47-.99a23.575,23.575,0,0,0-2.66-1.09.182.182,0,0,0-.14.33,22.355,22.355,0,0,0,4.56,1.85c1.51.52,3.08,1.06,4.63,1.54a85.419,85.419,0,0,0,9.75,2.35,88.177,88.177,0,0,0,19.93,1.35,86.78,86.78,0,0,0,11.26-1.26c.14-.02.08-.23-.06-.21h0Z"/>
        <path id="Trazado_613618" data-name="Trazado 613618" d="M94.54,32.26a112.611,112.611,0,0,1-19.09,2.31,96.186,96.186,0,0,1-18.8-1.33c-1.75-.3-3.5-.64-5.24-1.05s-3.43-.96-5.17-1.29a.124.124,0,0,0-.06.24,32.86,32.86,0,0,0,4.7,1.25c1.57.35,3.03.64,4.55.92q4.665.825,9.39,1.21A99.935,99.935,0,0,0,84,34.23a82.492,82.492,0,0,0,10.59-1.81c.09-.02.05-.16-.04-.14h0Z"/>
        <path id="Trazado_613619" data-name="Trazado 613619" d="M91.11,45.45A102.965,102.965,0,0,1,54.3,35.82c-1.57-.77-3.13-1.56-4.67-2.39s-3.15-1.68-4.74-2.5c-.09-.05-.16.08-.08.14.66.47,1.28.96,1.98,1.37s1.39.79,2.1,1.17c1.41.77,2.85,1.49,4.3,2.16,2.83,1.32,5.73,2.52,8.65,3.61a103.594,103.594,0,0,0,18.64,4.99A97.262,97.262,0,0,0,91.1,45.6c.1,0,.09-.14,0-.15h0Z"/>
        <path id="Trazado_613620" data-name="Trazado 613620" d="M89.08,14.97A93.647,93.647,0,0,1,54.12,28.63c-1.78.31-3.58.56-5.38.75s-3.5.21-5.22.44a.135.135,0,0,0,0,.27,33.444,33.444,0,0,0,4.79-.34c1.57-.18,3.07-.37,4.6-.61a92.544,92.544,0,0,0,9.22-1.93,91.725,91.725,0,0,0,17.69-6.7,92.364,92.364,0,0,0,9.34-5.4c.08-.06,0-.19-.08-.13h0Z"/>
        <path id="Trazado_613621" data-name="Trazado 613621" d="M91.57,25.38A105.875,105.875,0,0,1,73.45,30.1a93.852,93.852,0,0,1-18.54,1.18c-1.75-.07-3.51-.16-5.26-.32s-3.48-.42-5.22-.57c-.16-.01-.2.26-.04.29a58.328,58.328,0,0,0,9.14.88c3.03.12,6.28.08,9.41-.09a97.645,97.645,0,0,0,18.48-2.79,86.117,86.117,0,0,0,10.17-3.17c.08-.03.05-.16-.04-.13h0Z"/>
        <path id="Trazado_613622" data-name="Trazado 613622" d="M92.51,21.05a115.745,115.745,0,0,1-38.5,9.41c-3.48.2-6.94-.03-10.42-.03-.1,0-.13.17-.03.19a47.358,47.358,0,0,0,9.3.17c3.08-.14,6.37-.46,9.53-.92a116.609,116.609,0,0,0,19.76-4.69q5.31-1.755,10.42-4.02c.07-.03,0-.13-.06-.1h0Z"/>
        <path id="Trazado_613623" data-name="Trazado 613623" d="M90.29,18.18A98.251,98.251,0,0,1,54.93,29.61c-1.69.2-3.38.36-5.07.46s-3.59.03-5.34.26a.07.07,0,0,0,0,.14,28.411,28.411,0,0,0,4.79-.09c1.58-.09,3.17-.23,4.75-.4q4.515-.495,8.97-1.41a93.706,93.706,0,0,0,17.71-5.52,93.641,93.641,0,0,0,9.64-4.75c.09-.05,0-.18-.08-.13h0Z"/>
        <path id="Trazado_613624" data-name="Trazado 613624" d="M43.25,30.07l.05-.05s.06-.11.04-.16a.38.38,0,0,0-.28-.28.286.286,0,0,0-.28.07l-.12.09a.392.392,0,0,0-.1.37,12.809,12.809,0,0,0,.61,2c.25.75.5,1.51.75,2.26.47,1.43.92,2.88,1.33,4.33.79,2.83,1.48,5.69,2.1,8.56A152.808,152.808,0,0,1,50.1,65.21c.31,3.36.36,6.74.67,10.11a.165.165,0,0,0,.33,0,77.944,77.944,0,0,0-.46-9.16c-.26-3.03-.6-5.89-1.02-8.82a162.356,162.356,0,0,0-3.58-17.87c-.42-1.61-.84-3.23-1.29-4.84s-1.01-3.24-1.48-4.87l-.07.28-.13-.02a.117.117,0,0,0,.19.02h0Z"/>
        <path id="Trazado_613625" data-name="Trazado 613625" d="M42.46,29.62A91.741,91.741,0,0,0,54.1,43.98,110.7,110.7,0,0,0,67.9,55.99a76.929,76.929,0,0,0,8.75,5.78.19.19,0,0,0,.19-.33c-2.57-1.7-5.2-3.28-7.7-5.09s-4.89-3.67-7.21-5.67A111.373,111.373,0,0,1,49.1,37.72c-2.23-2.67-4.33-5.45-6.4-8.24-.11-.14-.35-.01-.25.14h0Z"/>
        <path id="Trazado_613626" data-name="Trazado 613626" d="M43.13,30.27A131.215,131.215,0,0,0,66.62,50.66a73.822,73.822,0,0,0,7.53,4.75.135.135,0,0,0,.14-.23c-2.16-1.45-4.44-2.72-6.6-4.18s-4.22-2.92-6.27-4.47A141.036,141.036,0,0,1,49.48,36.37q-3.2-3.03-6.19-6.25c-.09-.1-.24.05-.15.15h0Z"/>
        <path id="Trazado_613627" data-name="Trazado 613627" d="M76.06,56.45c.61.33,1.23.66,1.84.99.3.16.6.32.91.48a2.1,2.1,0,0,0,.89.36.057.057,0,0,0,.05-.08,2.034,2.034,0,0,0-.8-.51c-.31-.16-.61-.31-.92-.46-.63-.31-1.25-.62-1.88-.93-.1-.05-.19.1-.09.15h0Z"/>
        <path id="Trazado_613628" data-name="Trazado 613628" d="M43.9,30.74c5.15,3.96,10.27,8.02,15.62,11.71a69.649,69.649,0,0,0,16.01,8.33,59.977,59.977,0,0,0,10.03,2.73c.18.03.26-.24.08-.28a74.842,74.842,0,0,1-8.75-2.25,65.536,65.536,0,0,1-8.52-3.55,104.383,104.383,0,0,1-15.5-10.15Q48.43,33.95,44,30.59c-.1-.07-.19.09-.09.16h0Z"/>
        <path id="Trazado_613629" data-name="Trazado 613629" d="M43.12,31.22a265.272,265.272,0,0,1,.84,35.77q-.24,5.055-.7,10.1c-.02.23.34.23.35,0a255.878,255.878,0,0,0,.51-35.78q-.3-5.055-.83-10.1c-.01-.12-.19-.12-.18,0h0Z"/>
        <path id="Trazado_613630" data-name="Trazado 613630" d="M42.92,30.84c2.03,11.51,4.36,22.99,4.74,34.7a96.665,96.665,0,0,1-.15,9.78c-.01.22.34.23.35,0,.65-11.66-.87-23.3-2.94-34.76-.59-3.26-1.2-6.52-1.87-9.77-.02-.09-.16-.05-.14.04h0Z"/>
        <path id="Trazado_613631" data-name="Trazado 613631" d="M43.24,29.89c1.71,5.57,3.51,11.11,5.12,16.72s3.11,11.24,4.49,16.9c.79,3.22,1.54,6.46,2.26,9.7.05.22.38.12.33-.09q-3.765-17.07-8.93-33.8c-.98-3.17-1.96-6.35-3.08-9.47-.04-.12-.23-.07-.19.05h0Z"/>
        <path id="Trazado_613632" data-name="Trazado 613632" d="M43.99,31.05A169.144,169.144,0,0,0,63.21,59.26c1.01,1.21,2.03,2.4,3.08,3.58s2.16,2.51,3.35,3.63c.13.12.29-.06.19-.19-1.81-2.19-3.82-4.22-5.66-6.39s-3.71-4.48-5.48-6.78q-5.13-6.69-9.6-13.85c-1.71-2.73-3.33-5.52-4.9-8.33-.07-.13-.26-.01-.19.11h0Z"/>
        <path id="Trazado_613633" data-name="Trazado 613633" d="M43.57,30.68c1.06,2.66,2.33,5.26,3.51,7.87s2.43,5.36,3.64,8.04l7.29,16.08c.68,1.51,1.37,3.02,2.05,4.53a35.616,35.616,0,0,0,2.11,4.5.121.121,0,0,0,.22-.09,33,33,0,0,0-1.7-3.91c-.57-1.28-1.2-2.64-1.8-3.96-1.22-2.68-2.43-5.36-3.65-8.04L47.95,39.62c-1.37-3.01-2.66-6.08-4.16-9.03-.06-.11-.26-.03-.21.09h0Z"/>
        <path id="Trazado_613634" data-name="Trazado 613634" d="M3.26,60.82a1.106,1.106,0,0,0,.07-.13.936.936,0,0,0,.04-.16,2.26,2.26,0,0,1,.01-.26c0-.19.01-.38.02-.56s.01-.38.02-.56a2.252,2.252,0,0,0,0-.58.231.231,0,0,0-.44,0,2.239,2.239,0,0,0-.05.58c-.01.19-.01.38-.02.56s-.01.38-.01.56v.26a1.04,1.04,0,0,0,.09.3.147.147,0,0,0,.28,0h0Z"/>
        <path id="Trazado_613635" data-name="Trazado 613635" d="M18.58,75.16a4.469,4.469,0,0,0-.17-1.3c-.08-.46-.17-.91-.26-1.37a10.3,10.3,0,0,1-.34-2.81c.01-.17-.25-.17-.26,0a9.751,9.751,0,0,0,.3,2.79c.09.46.17.91.26,1.36a4.764,4.764,0,0,0,.34,1.36c.03.06.11.03.12-.03h0Z"/>
        <path id="Trazado_613636" data-name="Trazado 613636" d="M21.57,77.15a3.959,3.959,0,0,0,0-1.14c-.03-.4-.07-.8-.11-1.2s-.1-.77-.17-1.15c-.03-.2-.07-.4-.11-.59a.863.863,0,0,0-.15-.45.092.092,0,0,0-.15.04.985.985,0,0,0,.04.48c.04.2.08.4.11.59.06.37.12.74.17,1.11s.1.78.13,1.17a4.337,4.337,0,0,0,.13,1.14.063.063,0,0,0,.12,0h0Z"/>
        <path id="Trazado_613637" data-name="Trazado 613637" d="M25.88,79.13c-.45-1.74-.95-3.48-1.41-5.22a.2.2,0,0,0-.39.11c.46,1.74.92,3.48,1.46,5.21a.182.182,0,0,0,.35-.1h0Z"/>
        <path id="Trazado_613638" data-name="Trazado 613638" d="M31.65,79c-.3-1.05-.73-2.06-1.11-3.08-.19-.51-.38-1.02-.58-1.53-.1-.26-.19-.51-.29-.77a1.964,1.964,0,0,0-.26-.57c-.04-.05-.13,0-.13.05a2.121,2.121,0,0,0,.21.69c.1.26.19.51.29.77l.57,1.53c.37.99.7,2.01,1.15,2.97a.081.081,0,0,0,.15-.06h0Z"/>
        <path id="Trazado_613639" data-name="Trazado 613639" d="M35.86,78.98a8.444,8.444,0,0,0-.4-1.2c-.14-.39-.28-.76-.43-1.14-.3-.77-.6-1.55-.91-2.31-.07-.16-.34-.09-.27.07.32.78.63,1.57.94,2.35.15.39.31.79.46,1.18a8.354,8.354,0,0,0,.46,1.11c.05.08.16.02.15-.06h0Z"/>
        <path id="Trazado_613640" data-name="Trazado 613640" d="M43.54,77c-.49-1.87-1.14-3.71-1.68-5.57-.27-.91-.52-1.83-.77-2.75s-.45-1.93-.77-2.86a.109.109,0,0,0-.21.06,54.623,54.623,0,0,0,1.51,5.61c.53,1.84,1.03,3.75,1.73,5.55a.093.093,0,0,0,.18-.05h0Z"/>
        <path id="Trazado_613641" data-name="Trazado 613641" d="M47.75,75.13c-.51-1.37-1.18-2.7-1.75-4.05s-1.08-2.74-1.64-4.11c-.06-.15-.3-.09-.25.07.47,1.4,1.05,2.77,1.63,4.13A35.92,35.92,0,0,0,47.6,75.2c.04.08.18.03.15-.06h0Z"/>
        <path id="Trazado_613642" data-name="Trazado 613642" d="M51,75.3a9.788,9.788,0,0,0-.7-1.46c-.24-.47-.49-.94-.73-1.41-.5-.97-.95-1.99-1.52-2.93-.09-.15-.29-.02-.23.13.43.98.99,1.93,1.48,2.88l.73,1.41a9.618,9.618,0,0,0,.8,1.44c.06.08.2.04.17-.07h0Z"/>
        <path id="Trazado_613643" data-name="Trazado 613643" d="M55.28,73.14a13.8,13.8,0,0,0-1.15-1.87c-.41-.64-.82-1.27-1.23-1.91s-.79-1.23-1.19-1.85c-.2-.31-.4-.62-.6-.92a4.8,4.8,0,0,0-.6-.87c-.08-.08-.25,0-.2.12a5.111,5.111,0,0,0,.54.9c.21.33.42.66.64.98.4.62.8,1.23,1.19,1.85s.8,1.23,1.2,1.84a14.517,14.517,0,0,0,1.25,1.84c.07.08.17-.02.14-.11h0Z"/>
        <path id="Trazado_613644" data-name="Trazado 613644" d="M62.39,71.4c-1.98-2.88-4.06-5.69-6.08-8.54-.95-1.34-1.88-2.69-2.77-4.06-.47-.72-.92-1.45-1.36-2.18a24.425,24.425,0,0,0-1.29-2.23c-.07-.09-.25-.04-.2.09a11.335,11.335,0,0,0,1.13,2.08c.44.74.89,1.46,1.36,2.18.91,1.41,1.87,2.78,2.85,4.15,2.05,2.88,4.07,5.78,6.17,8.62.08.11.28,0,.19-.11h0Z"/>
        <path id="Trazado_613645" data-name="Trazado 613645" d="M69.82,66.12c-1.03-2.51-2.41-4.92-3.65-7.34s-2.56-4.99-3.86-7.47c-.09-.17-.35-.02-.26.15q1.92,3.675,3.81,7.36c1.26,2.46,2.37,5.02,3.77,7.38.06.1.24.03.19-.08Z"/>
        <path id="Trazado_613646" data-name="Trazado 613646" d="M76.74,61.54c-1.13-2.34-2.42-4.59-3.68-6.86-.08-.15-.31-.02-.23.13,1.26,2.27,2.45,4.58,3.76,6.81.06.1.2.01.15-.09h0Z"/>
        <path id="Trazado_613647" data-name="Trazado 613647" d="M79.71,57.98a34.717,34.717,0,0,0-2.37-3.86c-.81-1.25-1.65-2.53-2.49-3.79-.11-.17-.38,0-.27.16.86,1.27,1.7,2.56,2.53,3.85s1.53,2.59,2.44,3.76c.07.09.19-.02.15-.11h0Z"/>
        <path id="Trazado_613648" data-name="Trazado 613648" d="M85.57,53.3c-1.7-2.01-3.51-3.93-5.28-5.88-.13-.14-.33.07-.2.2,1.77,1.94,3.51,3.92,5.35,5.8.08.09.2-.04.13-.13h0Z"/>
        <path id="Trazado_613649" data-name="Trazado 613649" d="M88.81,49.07a9.144,9.144,0,0,0-1.42-1.29c-.5-.39-1.01-.77-1.54-1.12a16.127,16.127,0,0,1-2.97-2.14c-.1-.11-.3.04-.21.16a10.235,10.235,0,0,0,2.86,2.09c.57.38,1.13.78,1.66,1.2s.99.85,1.51,1.23c.08.06.16-.06.1-.13h0Z"/>
        <path id="Trazado_613650" data-name="Trazado 613650" d="M91.22,45.56c-2.19-1.85-4.54-3.53-6.82-5.26-.13-.1-.25.12-.13.22,2.26,1.74,4.49,3.56,6.84,5.18.08.05.18-.07.1-.13h0Z"/>
        <path id="Trazado_613651" data-name="Trazado 613651" d="M94.08,40.53c-.98-.65-2.03-1.21-3.03-1.85-.48-.31-.96-.62-1.44-.94-.51-.34-.99-.72-1.51-1.03-.13-.08-.29.12-.17.22a29.306,29.306,0,0,0,2.93,1.96,29.069,29.069,0,0,0,3.12,1.8.092.092,0,1,0,.09-.16h0Z"/>
        <path id="Trazado_613652" data-name="Trazado 613652" d="M94.78,35.83c-.97-.46-1.95-.89-2.92-1.33-.43-.19-.87-.38-1.28-.6a4.717,4.717,0,0,1-.61-.37c-.17-.12-.32-.33-.52-.37a.087.087,0,0,0-.11.11c.04.18.21.29.35.39a6.175,6.175,0,0,0,.6.39c.45.25.93.44,1.4.65,1.01.44,2.01.89,3.03,1.3.1.04.16-.12.07-.17h0Z"/>
        <path id="Trazado_613653" data-name="Trazado 613653" d="M94.59,32.08c-1.06-.47-2.11-.94-3.17-1.38-.53-.22-1.06-.44-1.59-.65-.28-.12-.57-.23-.85-.35-.22-.1-.43-.28-.67-.27-.06,0-.09.06-.07.12.1.23.38.31.59.4.23.1.46.19.69.29.55.23,1.09.45,1.64.68,1.11.46,2.23.89,3.36,1.32.08.03.14-.11.06-.15h0Z"/>
        <path id="Trazado_613654" data-name="Trazado 613654" d="M88.18,10.57a1.2,1.2,0,0,0,.4.3c.14.08.27.16.4.24q.42.255.81.54l-.06-.06h0a.22.22,0,0,0,.15.16.275.275,0,0,0,.2-.02.186.186,0,0,0,.09-.15.2.2,0,0,0-.04-.15.223.223,0,0,0-.24-.1h.08c-.03,0-.07-.04-.1-.06s-.07-.04-.1-.06c-.07-.05-.14-.09-.21-.14-.13-.08-.27-.17-.4-.25s-.27-.16-.41-.24a1.155,1.155,0,0,0-.46-.19.116.116,0,0,0-.1.17h0Z"/>
        <path id="Trazado_613655" data-name="Trazado 613655" d="M9.28,40.7c0,1.31.12,2.61.06,3.92a24.617,24.617,0,0,1-.54,4.04c-.06.28.24.57.51.39,3.2-2.06,6.33-4.18,9.37-6.48,1.5-1.14,2.99-2.29,4.42-3.52.72-.62,1.43-1.25,2.12-1.89.5-.47,1.1-.93,1.16-1.66a3.76,3.76,0,0,0-.28-1.4c-.17-.55-.34-1.1-.5-1.65-.35-1.14-.69-2.28-1.04-3.43a.3.3,0,0,0-.5-.13c-1.47,1.38-3,2.69-4.56,3.98A98.773,98.773,0,0,1,9.3,40.42c-.35.22-.03.78.32.56A103.185,103.185,0,0,0,24.48,29.33l-.5-.13,1.08,3.54c.19.63.39,1.26.57,1.89a1.452,1.452,0,0,1-.34,1.66,57.073,57.073,0,0,1-5.08,4.37c-3.59,2.81-7.46,5.26-11.25,7.8l.51.39a19.224,19.224,0,0,0,.14-8.2.169.169,0,0,0-.33.04Z"/>
        <path id="Trazado_613656" data-name="Trazado 613656" d="M11.17,41.91a74.347,74.347,0,0,0,11.55-8.83c.11-.1-.05-.26-.16-.16a72.176,72.176,0,0,1-11.5,8.79c-.12.07,0,.27.11.19h0Z"/>
        <path id="Trazado_613657" data-name="Trazado 613657" d="M18.15,39.47a28.68,28.68,0,0,0,2.79-1.85c.42-.32.84-.64,1.25-.97l.64-.52c.22-.19.47-.35.68-.55.15-.14-.07-.35-.22-.22-.21.17-.4.38-.61.56s-.4.33-.6.5c-.44.36-.89.72-1.35,1.06-.87.65-1.76,1.28-2.65,1.89-.07.05,0,.16.07.12h0Z"/>
      </g>
    </g>
  </g>
</svg>
