<svg xmlns="http://www.w3.org/2000/svg" width="79.078" height="78.682" viewBox="0 0 79.078 78.682">
  <g id="Ani_iconos" data-name="Ani iconos" transform="translate(0.004 0.004)">
    <g id="Grupo_1072689" data-name="Grupo 1072689">
      <g id="Grupo_1072687" data-name="Grupo 1072687">
        <path id="Trazado_613515" data-name="Trazado 613515" d="M1.11,32.93c.07-.09.14-.18.2-.27a.487.487,0,0,1,.04-.11c.14-.23.19-.47.32-.7a4.257,4.257,0,0,1,.49-.63c.31-.35.63-.69.95-1.04.68-.75,1.37-1.5,2.05-2.24,1.37-1.5,2.76-2.96,4.13-4.46s2.74-2.98,4.12-4.47c1.36-1.46,2.67-2.98,4.16-4.3.02-.01.03-.02.05-.03,2.78-3.28,5.54-6.57,8.39-9.8C27.93,2.7,30.54-.68,33.86.73a.861.861,0,0,1,.45.45.781.781,0,0,1,.62.55.71.71,0,0,1,.22.13c.18.14.35.3.52.44.37.32.73.63,1.08.98.4.39.78.79,1.18,1.18.18.15.35.3.52.46.69.63,1.38,1.25,2.07,1.88,1.32,1.2,2.65,2.39,3.97,3.58,2.68,2.41,5.29,4.9,7.97,7.32,5.29,4.78,10.65,9.5,16.02,14.2,3.03,2.65,6.2,5.19,9.07,8.01a.87.87,0,0,1,.18.26.731.731,0,0,1,.5,1.01c-.47.8-.94,1.6-1.4,2.4a.768.768,0,0,1,.07.66,21.121,21.121,0,0,1-1.55,3.17q-.81,1.56-1.65,3.12c-1.1,2.04-2.28,4.03-3.42,6.05-2.3,4.05-4.76,8-7.27,11.93-1.14,1.78-2.23,3.57-3.36,5.35a1.243,1.243,0,0,1-.52,1.23.537.537,0,0,1-.05.21c-.32.78-1.16.42-1.62.02-1.3-1.14-2.54-2.35-3.8-3.53L46.09,64.7c-.62-.58-1.23-1.16-1.85-1.74-.51-.42-1.03-.84-1.53-1.28-.92-.8-1.84-1.62-2.74-2.44-.26-.23-.52-.46-.77-.69-1.58-1.23-3.06-2.58-4.55-3.91-1.71-1.54-3.43-3.06-5.16-4.58-3.05-2.67-6.06-5.38-9.09-8.08-.1-.09-.2-.18-.3-.26-.55-.47-1.11-.94-1.65-1.43a3.412,3.412,0,0,1-.37-.39c-1.37-1.23-2.75-2.47-4.14-3.67a1.111,1.111,0,0,1-1.1-1.77c4.96-6.53,9.26-13.51,13.65-20.41,1.23-1.94,2.35-3.94,3.6-5.87A.347.347,0,0,1,30.4,8a50.756,50.756,0,0,0,2.58-5.36,1.049,1.049,0,0,1-.57-.33,3.9,3.9,0,0,0-2.52,1.24c-1.03.93-1.91,2.03-2.85,3.04-2.05,2.19-4,4.48-5.96,6.75-3.9,4.52-7.72,9.15-11.87,13.45-1.14,1.18-2.28,2.37-3.4,3.58-.85.91-1.63,1.9-2.46,2.83.22.2.42.44.64.65.51.5,1.04,1,1.56,1.49,1.05.98,2.13,1.93,3.19,2.9,1.03.94,2.08,1.87,3.13,2.8.54.48,1.08.95,1.62,1.43a8.758,8.758,0,0,1,.78.71,2.549,2.549,0,0,1,.3.43c2.4,2.11,4.77,4.25,7.14,6.39.83.74,1.64,1.5,2.45,2.26.42.39.84.79,1.25,1.19l.19.19c1.73,1.53,3.46,3.05,5.17,4.61,1.55,1.41,3.13,2.81,4.72,4.18s3.11,2.82,4.71,4.18c1.78,1.51,3.48,3.11,5.25,4.64,1.82,1.58,3.61,3.2,5.4,4.82.63.57.22,1.94-.75,1.66a7.767,7.767,0,0,1-.92-.33.71.71,0,0,1-.44-.67c-2.86-2.51-5.65-5.09-8.53-7.57-1.59-1.37-3.11-2.83-4.7-4.2s-3.15-2.79-4.69-4.21c-3.09-2.84-6.28-5.58-9.4-8.4s-6.23-5.64-9.34-8.47c-1.73-1.57-3.44-3.15-5.16-4.73-.89-.82-1.77-1.64-2.66-2.46a16.624,16.624,0,0,1-2.34-2.33.877.877,0,0,1-.75-1.42Z" fill="#5bb7b7"/>
        <path id="Trazado_613516" data-name="Trazado 613516" d="M5.47,30.91c.46-.53.94-1.05,1.4-1.58Q8.355,27.665,9.82,26c1.94-2.2,3.92-4.36,5.98-6.45a.533.533,0,0,1,.56-.14q2.85-3.51,5.79-6.93l4.62-5.31c.76-.87,1.52-1.73,2.3-2.59a8.1,8.1,0,0,1,2.61-2.24.539.539,0,0,1,.73.39.565.565,0,0,1,.3.73,6.451,6.451,0,0,1-.67,1.24c-.94,1.69-1.97,3.35-3.01,4.98q-1.905,3.03-3.86,6.04c-1.3,2-2.59,4.01-3.9,6-.64.98-1.29,1.96-1.93,2.94-.34.52-.67,1.06-1.03,1.57a4.537,4.537,0,0,1-.58.73c-.18.17-.44.24-.6.41a1.576,1.576,0,0,1-.15.12.691.691,0,0,1-.09.25c-.64,1.1-1.3,2.18-2.02,3.23-.36.52-.72,1.04-1.1,1.55-.34.46-.67.87-1.28.89a5.883,5.883,0,0,1-1.66-.32c-.55-.14-1.08-.3-1.63-.45a8.749,8.749,0,0,0-2.77-.35c-.16.13-.31.26-.45.38a.634.634,0,0,1-.96-.28,1.5,1.5,0,0,1,.44-1.48Z" fill="#f7e7da"/>
        <path id="Trazado_613517" data-name="Trazado 613517" d="M4.34,33.22a1.077,1.077,0,0,0,.11-.11c.05-.02.09-.05.14-.07A.62.62,0,0,1,4.82,33h.02a.913.913,0,0,1,.33-.28,2.663,2.663,0,0,1,.89-.18c.27-.03.54-.05.82-.06a9.96,9.96,0,0,1,1.64.08,9.978,9.978,0,0,1,1.6.36,3.057,3.057,0,0,1,1.35.72.406.406,0,0,1,.19-.08.6.6,0,0,1,.74.68,2.6,2.6,0,0,1-.39.94c.89.9,1.77,1.8,2.65,2.71.2.21.4.42.59.64,4.62,3.74,9.11,7.63,13.61,11.52,5.8,5.01,11.37,10.27,17.08,15.37,3.24,2.9,6.59,5.68,9.84,8.58a.676.676,0,0,1-.71,1.13l-.96-.41a.564.564,0,0,1-.35.45.127.127,0,0,0-.06.01c-.03.03-.05.07-.08.1a1.308,1.308,0,0,1-.24.23,2.48,2.48,0,0,1-.32.17c-.12.06-.25.13-.37.19s-.25.12-.37.18a3.309,3.309,0,0,1-.33.15.849.849,0,0,1-1.23-.45c-.42-.36-.84-.73-1.25-1.11-.2-.18-.4-.36-.6-.53a55.361,55.361,0,0,1-5.46-4.71c-.83-.77-1.64-1.55-2.45-2.33q-3.915-3.5-7.82-7C27.3,54.83,21.4,49.58,15.7,44.14c-.84-.8-1.68-1.6-2.52-2.39-.22-.13-.42-.28-.64-.4a6.581,6.581,0,0,1-1.1-.95c-.72-.68-1.42-1.39-2.14-2.09-.69-.67-1.4-1.33-2.07-2.03-.33-.34-.67-.68-.98-1.04-.1-.12-.2-.23-.31-.35-.13-.07-.26-.14-.39-.22a.975.975,0,0,1-.22-.08c-.08-.05-.15-.11-.23-.16a1.087,1.087,0,0,1-.18-.01.424.424,0,0,1-.19-.06c-.05-.03-.1-.06-.14-.09a.031.031,0,0,1-.02-.01c-.02-.02-.04-.03-.06-.05a1.16,1.16,0,0,1-.2-.24c-.02-.05-.05-.09-.07-.14a.62.62,0,0,1-.04-.23.288.288,0,0,1,.03-.16.427.427,0,0,1,.11-.21Z" fill="#d0ae91"/>
        <path id="Trazado_613518" data-name="Trazado 613518" d="M14.47,31.27c.81-1.07,1.68-2.1,2.52-3.14s1.62-2.15,2.52-3.14a11.982,11.982,0,0,0,2.42-3.43,27.415,27.415,0,0,1,1.77-3.4q1.8-3.135,3.68-6.24a38.234,38.234,0,0,1,4.08-5.87c.18-.2.35-.41.52-.61a.737.737,0,0,1,.04-.14c.07-.18.16-.36.23-.53s.17-.35.25-.53a1.266,1.266,0,0,1,.04-.26,1.87,1.87,0,0,1,.13-.42c.05-.09.09-.18.14-.27a5.016,5.016,0,0,1,.38-.63c.05-.08.11-.15.16-.22l.09-.12a.01.01,0,0,0,.01-.01c0-.02-.02-.04-.03-.06a.66.66,0,0,1,.88-.83,3.41,3.41,0,0,1,1.11.82c.38.35.75.7,1.13,1.04.76.69,1.47,1.44,2.21,2.16.71.69,1.43,1.37,2.16,2.05.15.14.3.29.44.43a15.391,15.391,0,0,1,2.9,2.26c1.04.9,2.05,1.83,3.1,2.71,1.02.86,2.03,1.73,3.05,2.59a36.313,36.313,0,0,1,3.08,2.74.427.427,0,0,1,.05.47c1.29,1.04,2.59,2.07,3.86,3.13a.34.34,0,0,1,.06.5c2.36,1.9,4.78,3.76,7.04,5.78q1.8,1.6,3.64,3.17a41.808,41.808,0,0,0,3.73,3.06c.32.22-.1.74-.38.47a31.812,31.812,0,0,0-3.22-2.57c-1.1-.83-2.15-1.71-3.28-2.5-2.24-1.59-4.39-3.32-6.52-5.05-4.23-3.43-8.42-6.96-12.85-10.15-2.2-1.59-4.5-3.04-6.65-4.7-1.09-.84-2.19-1.67-3.27-2.52a4.559,4.559,0,0,0-1.21-.89,1.179,1.179,0,0,0-1.03.34,16.983,16.983,0,0,0-2.44,2.43,29.816,29.816,0,0,0-2.19,2.71c-1.33,1.92-2.47,3.95-3.67,5.95a22.685,22.685,0,0,1-2.25,3.31c-.49.57-1.04,1.05-1.49,1.66a16.6,16.6,0,0,0-1.33,1.9,28.923,28.923,0,0,1-2.36,3.46c-.89,1.2-1.77,2.41-2.72,3.56-.3.37-.86-.09-.57-.47Z" fill="#fff"/>
      </g>
      <g id="Grupo_1072688" data-name="Grupo 1072688">
        <path id="Trazado_613519" data-name="Trazado 613519" d="M33.81,1.02c-5.5,8.92-11.06,17.79-16.84,26.53q-2.49,3.765-5.02,7.51a.331.331,0,0,0,.05.4c1.54,1.36,3.07,2.72,4.61,4.08q5.535,4.905,11.06,9.81L41.05,61.21q5.79,5.13,11.57,10.26l3.82,3.38c.6.53,1.18,1.11,1.81,1.61.03.02.05.05.08.07a.338.338,0,0,0,.52-.07Q66.965,62.81,74.7,48.95q2.175-3.915,4.33-7.83a.333.333,0,0,0-.05-.4Q70.7,33.235,62.42,25.77,52.685,16.995,42.95,8.23c-2.78-2.5-5.52-5.05-8.31-7.54-.39-.35-.97.23-.58.58,5.55,4.95,11.13,9.87,16.66,14.84q9.735,8.775,19.46,17.55,4.17,3.765,8.33,7.52l-.05-.4Q70.825,54.7,62.83,68.42q-2.25,3.87-4.54,7.71l.52-.07c-1.53-1.36-3.07-2.72-4.6-4.08L43.15,62.17Q36.46,56.23,29.77,50.3,23.98,45.17,18.2,40.04q-1.905-1.7-3.81-3.38l-1.2-1.06a3.592,3.592,0,0,0-.62-.55c-.03-.01-.06-.05-.08-.07l.05.4Q21.33,22.36,29.68,9.04q2.4-3.825,4.74-7.69A.343.343,0,0,0,33.83,1h0Z"/>
        <path id="Trazado_613520" data-name="Trazado 613520" d="M34.55.78a3.275,3.275,0,0,0-3.71-.4c-1.46.66-2.54,2.1-3.62,3.25-2.12,2.26-4.25,4.51-6.36,6.78q-6.975,7.5-13.83,15.12C4.74,28.09,2.55,30.79.11,33.2c-.37.36.25.89.58.44,1.73-2.35,3.79-4.5,5.73-6.67q3.24-3.63,6.53-7.23,6.405-7.02,12.92-13.92c1.1-1.16,2.19-2.35,3.35-3.45,1.38-1.3,3.24-2.28,5.05-1.22a.242.242,0,0,0,.29-.38h0Z"/>
        <path id="Trazado_613521" data-name="Trazado 613521" d="M.26,33.8c6.42,5.83,13,11.49,19.46,17.28q9.735,8.73,19.36,17.56,5.415,4.95,10.78,9.95c.3.28.75-.17.45-.45Q40.7,69.365,31.06,60.63c-6.43-5.82-12.93-11.69-19.41-17.51C8.01,39.85,4.4,36.55.7,33.35c-.3-.26-.73.17-.44.44h0Z"/>
        <path id="Trazado_613522" data-name="Trazado 613522" d="M57.76,75.63c-.56-1.01-2.07-1.07-3.06-.87a7.254,7.254,0,0,0-1.8.68c-.63.33-1.22.76-1.86,1.06a.343.343,0,0,0-.16.38h-.01a.139.139,0,0,0,.09.17v-.02a.354.354,0,0,0,.48,0,11.7,11.7,0,0,1,1.55-.95,7.4,7.4,0,0,1,1.64-.69,3.665,3.665,0,0,1,1.58-.07,6.875,6.875,0,0,1,1.38.49c.11.05.19-.1.15-.19h0Z"/>
        <path id="Trazado_613523" data-name="Trazado 613523" d="M51.62,76.66c-6.18-5.58-12.39-11.13-18.55-16.73S20.23,48.19,13.82,42.3c-3.38-3.11-6.73-6.26-10.12-9.35-.3-.27-.74.17-.44.44C9.47,39.01,15.74,44.57,21.95,50.2S34.8,61.9,41.24,67.73c3.38,3.06,6.74,6.13,10.15,9.16.15.14.38-.09.22-.22h0Z"/>
        <path id="Trazado_613524" data-name="Trazado 613524" d="M3.45,33.23c.88-.05,1.77-.36,2.65-.47a12.743,12.743,0,0,1,2.47-.11,8.528,8.528,0,0,1,2.24.42,6.916,6.916,0,0,1,1.08.47c.32.17.56.48.93.48a.232.232,0,0,0,.22-.28c-.12-.34-.43-.43-.73-.6a6.746,6.746,0,0,0-1.06-.48,9.669,9.669,0,0,0-2.44-.53,13.01,13.01,0,0,0-2.79.09,10.547,10.547,0,0,0-2.68.56c-.22.09-.1.45.12.44h0Z"/>
        <path id="Trazado_613525" data-name="Trazado 613525" d="M3.63,33.29C6.7,29.76,9.87,26.33,13,22.86c4.04-4.47,8.07-8.95,12.02-13.5.86-.99,1.72-2,2.57-3A10.719,10.719,0,0,0,29.3,4.05a.174.174,0,0,0-.27-.21,14.915,14.915,0,0,0-1.64,1.9c-.7.88-1.42,1.74-2.15,2.59-1.83,2.14-3.7,4.26-5.57,6.37-3.97,4.46-7.98,8.89-11.98,13.32-1.47,1.64-2.95,3.27-4.39,4.94-.19.22.13.54.32.32h0Z"/>
        <path id="Trazado_613526" data-name="Trazado 613526" d="M28.71,4.44c.29.19.7-.28.9-.44a8.5,8.5,0,0,1,1.01-.68,3.238,3.238,0,0,1,2.31-.45c.41.09.59-.55.18-.64a4.024,4.024,0,0,0-2.73.51,7.209,7.209,0,0,0-1.11.79c-.15.12-.9.66-.55.9h0Z"/>
        <path id="Trazado_613527" data-name="Trazado 613527" d="M29.72,4.88c-1.36,1.55-2.62,3.21-3.93,4.81s-2.63,3.2-3.96,4.78q-3.99,4.77-8.06,9.45c-.75.86-1.49,1.71-2.25,2.57A27.57,27.57,0,0,0,9.28,29.1c-.06.1.07.18.15.12a23.638,23.638,0,0,0,2.14-2.33c.69-.78,1.34-1.52,2.01-2.29,1.36-1.56,2.72-3.13,4.06-4.7q4.035-4.725,7.98-9.52c1.45-1.76,2.96-3.5,4.31-5.33.09-.12-.11-.28-.22-.17h0Z"/>
        <path id="Trazado_613528" data-name="Trazado 613528" d="M8.47,30.11c-.06.07-.14.14-.2.21l-.19.22c-.06.07-.13.14-.2.21a1,1,0,0,0-.1.11.209.209,0,0,0-.04.06.082.082,0,0,0-.01.07v-.02a.637.637,0,0,0-.02.07c-.03.08.06.16.14.14a.637.637,0,0,1,.07-.02h.03c.03,0,.06-.03.08-.05a.943.943,0,0,0,.1-.1c.07-.07.13-.15.2-.23a1.5,1.5,0,0,0,.19-.25c.05-.09.09-.18.14-.27a.112.112,0,0,0-.03-.15.136.136,0,0,0-.15,0h0Z"/>
        <path id="Trazado_613529" data-name="Trazado 613529" d="M25.95,11.57c-2.41,3.19-4.8,6.39-7.23,9.57q-1.86,2.415-3.73,4.83c-.6.77-1.21,1.55-1.82,2.32a21.311,21.311,0,0,0-1.81,2.35.076.076,0,0,0,.12.09,21.089,21.089,0,0,0,1.94-2.37c.62-.79,1.27-1.61,1.9-2.41q1.785-2.28,3.55-4.58c2.45-3.2,4.88-6.43,7.25-9.69.07-.1-.09-.18-.16-.09h0Z"/>
        <path id="Trazado_613530" data-name="Trazado 613530" d="M7.46,34.64c10.51,9.48,20.9,19.11,31.36,28.64,2.9,2.65,5.76,5.37,8.79,7.88.07.06.17-.04.1-.1-2.53-2.46-5.2-4.77-7.82-7.14s-5.22-4.74-7.82-7.12Q24.195,49.615,16.3,42.45q-4.365-3.96-8.77-7.9c-.06-.05-.14.03-.08.08h0Z"/>
        <path id="Trazado_613531" data-name="Trazado 613531" d="M49.46,72.98c.51.45,1.01.92,1.49,1.4.24.24.48.48.71.72.12.12.23.24.34.37s.22.28.33.42c.14.16.4-.09.24-.24-.12-.11-.26-.21-.38-.33s-.24-.23-.36-.35l-.75-.72c-.49-.47-1-.93-1.51-1.38-.07-.06-.17.04-.1.1h0Z"/>
        <path id="Trazado_613532" data-name="Trazado 613532" d="M33.26,55.74c3.53,3.29,7.06,6.6,10.59,9.89l5.3,4.94c.85.79,1.71,1.59,2.56,2.39l1.28,1.19a6.242,6.242,0,0,0,1.35,1.17c.11.05.24-.06.17-.17a5.8,5.8,0,0,0-1.27-1.25c-.44-.39-.86-.79-1.29-1.18-.86-.79-1.72-1.57-2.58-2.36q-2.67-2.445-5.34-4.9c-3.56-3.27-7.14-6.52-10.7-9.79-.05-.04-.12.03-.07.07h0Z"/>
        <path id="Trazado_613533" data-name="Trazado 613533" d="M30.29,53.14c.3.28.6.56.89.86.14.15.28.29.42.44.07.07.13.14.21.21a1.507,1.507,0,0,0,.23.21c.06.03.13-.03.09-.09a1.389,1.389,0,0,0-.21-.21c-.07-.07-.15-.13-.22-.2-.16-.14-.32-.27-.48-.41-.31-.28-.6-.56-.9-.85a.021.021,0,1,0-.03.03h0Z"/>
        <path id="Trazado_613534" data-name="Trazado 613534" d="M9.95,34.96l5.02,4.69c.81.76,1.63,1.52,2.44,2.27l1.29,1.2a9.2,9.2,0,0,0,1.19,1.06c.09.06.16-.06.1-.14a10.871,10.871,0,0,0-1.2-1.15l-1.22-1.13-2.52-2.34c-1.66-1.53-3.31-3.07-4.97-4.6-.09-.08-.22.05-.13.13h0Z"/>
      </g>
    </g>
  </g>
</svg>
