<svg xmlns="http://www.w3.org/2000/svg" width="87.58" height="84.125" viewBox="0 0 87.58 84.125">
  <g id="Ani_iconos" data-name="Ani iconos" transform="translate(0.011 0.015)">
    <g id="Grupo_1072693" data-name="Grupo 1072693">
      <g id="Grupo_1072691" data-name="Grupo 1072691">
        <path id="Trazado_613547" data-name="Trazado 613547" d="M86.42,40.03c-.06-.11-.13-.21-.19-.32a.266.266,0,0,0-.03-.12c-.12-.26-.15-.54-.27-.81a4.523,4.523,0,0,0-.46-.76c-.29-.42-.6-.83-.91-1.25-.66-.9-1.31-1.81-1.97-2.71-1.31-1.81-2.66-3.59-3.97-5.4s-2.63-3.61-3.96-5.41a63.769,63.769,0,0,0-4.03-5.23c-.02-.02-.04-.02-.05-.04-2.64-3.94-5.26-7.89-7.97-11.78C60.78,3.57,58.34-.45,54.53.68a.933.933,0,0,0-.54.43.882.882,0,0,0-.75.52,1.445,1.445,0,0,0-.26.11c-.21.13-.42.28-.63.42-.45.3-.88.61-1.3.94-.48.38-.96.77-1.43,1.15-.21.14-.42.29-.62.44-.83.6-1.66,1.2-2.5,1.8q-2.4,1.725-4.8,3.43c-3.24,2.31-6.41,4.71-9.64,7.03-6.39,4.58-12.85,9.08-19.31,13.56C9.1,33.04,5.31,35.42,1.82,38.16a.917.917,0,0,0-.23.26.824.824,0,0,0-.68,1.05c.42.93.83,1.87,1.24,2.81a.86.86,0,0,0-.16.71A22.3,22.3,0,0,0,3.3,46.66c.46,1.21.94,2.42,1.42,3.62.95,2.37,2,4.7,3,7.05,2.01,4.72,4.22,9.36,6.48,13.97,1.02,2.09,2,4.19,3.02,6.28a1.337,1.337,0,0,0,.42,1.41.661.661,0,0,0,.03.24c.26.9,1.22.6,1.77.22,1.56-1.09,3.07-2.26,4.6-3.39q4.59-3.4,9.17-6.83c.75-.56,1.49-1.12,2.24-1.67.62-.39,1.23-.79,1.83-1.21,1.11-.77,2.21-1.54,3.3-2.33l.93-.66c1.88-1.15,3.68-2.44,5.48-3.72,2.07-1.47,4.14-2.93,6.23-4.37,3.67-2.55,7.31-5.14,10.97-7.72.12-.08.24-.17.37-.25.66-.45,1.33-.89,1.99-1.36a4.108,4.108,0,0,0,.45-.38c1.66-1.18,3.32-2.36,5-3.51a1.227,1.227,0,0,0,1.42-1.81C68.8,32.47,64.96,24.29,61,16.18c-1.11-2.27-2.09-4.61-3.21-6.88a.374.374,0,0,0-.31-.23,54.129,54.129,0,0,1-2.16-6.2,1.121,1.121,0,0,0,.66-.29,4.361,4.361,0,0,1,2.61,1.67c1.01,1.14,1.84,2.47,2.75,3.69,1.98,2.65,3.83,5.41,5.69,8.14,3.71,5.44,7.33,10.98,11.33,16.21,1.1,1.44,2.21,2.88,3.28,4.34.81,1.1,1.54,2.28,2.34,3.41-.27.19-.51.43-.78.63-.63.49-1.26.96-1.9,1.44-1.27.94-2.57,1.86-3.85,2.79-1.25.91-2.51,1.79-3.77,2.68-.65.46-1.3.91-1.95,1.37a10.719,10.719,0,0,0-.94.68,3.079,3.079,0,0,0-.38.43c-2.89,2.01-5.75,4.06-8.62,6.11-1,.71-1.98,1.43-2.97,2.17-.51.38-1.01.76-1.52,1.14-.08.06-.16.13-.23.19-2.09,1.46-4.17,2.92-6.24,4.41-1.88,1.36-3.78,2.68-5.69,3.99s-3.76,2.71-5.68,4c-2.14,1.43-4.2,2.98-6.32,4.43q-3.285,2.265-6.52,4.61c-.76.55-.48,2.09.62,1.91a8.761,8.761,0,0,0,1.04-.25.814.814,0,0,0,.57-.68c3.44-2.39,6.82-4.87,10.28-7.23,1.91-1.3,3.76-2.71,5.67-4.02s3.79-2.67,5.66-4.03c3.74-2.73,7.58-5.33,11.34-8.04s7.53-5.4,11.28-8.12c2.09-1.51,4.17-3.03,6.25-4.54,1.07-.78,2.15-1.57,3.22-2.36a18.385,18.385,0,0,0,2.85-2.26.964.964,0,0,0,.99-1.47Z" fill="#df9079"/>
        <path id="Trazado_613548" data-name="Trazado 613548" d="M81.9,37.27c-.44-.64-.89-1.27-1.34-1.9l-2.82-4.02c-1.85-2.66-3.75-5.26-5.75-7.81a.577.577,0,0,0-.59-.22c-1.79-2.8-3.61-5.57-5.49-8.31-1.46-2.14-2.94-4.26-4.4-6.39-.72-1.05-1.46-2.09-2.2-3.12a8.95,8.95,0,0,0-2.59-2.78.6.6,0,0,0-.85.34.625.625,0,0,0-.42.76,7,7,0,0,0,.58,1.44c.82,1.97,1.75,3.91,2.67,5.83q1.725,3.555,3.48,7.09c1.17,2.36,2.34,4.71,3.53,7.06.58,1.15,1.17,2.31,1.75,3.46.31.61.6,1.25.94,1.85a6.006,6.006,0,0,0,.54.87c.18.21.45.32.61.53a.5.5,0,0,0,.15.14.581.581,0,0,0,.07.28c.56,1.29,1.16,2.55,1.81,3.79.33.62.66,1.23,1.01,1.83.31.55.62,1.03,1.29,1.14a6.468,6.468,0,0,0,1.86-.14c.62-.09,1.22-.19,1.84-.3a9.654,9.654,0,0,1,3.08-.04c.16.16.31.32.44.47a.7.7,0,0,0,1.09-.19,1.646,1.646,0,0,0-.3-1.68Z" fill="#f7e7da"/>
        <path id="Trazado_613549" data-name="Trazado 613549" d="M82.85,39.94s-.07-.09-.11-.13-.09-.07-.14-.1a.451.451,0,0,0-.25-.07h-.02a1.065,1.065,0,0,0-.32-.35,2.848,2.848,0,0,0-.96-.31,8.715,8.715,0,0,0-.89-.16,12.141,12.141,0,0,0-1.81-.12,11.019,11.019,0,0,0-1.8.2,3.252,3.252,0,0,0-1.57.62.49.49,0,0,0-.2-.11.675.675,0,0,0-.9.66,2.864,2.864,0,0,0,.31,1.08q-1.635,1.3-3.24,2.64c-.25.2-.49.41-.73.63-5.53,3.52-10.93,7.23-16.34,10.93-6.97,4.77-13.73,9.84-20.63,14.72-3.91,2.77-7.93,5.4-11.84,8.17a.746.746,0,0,0,.63,1.33c.37-.11.73-.22,1.1-.32a.579.579,0,0,0,.33.53.142.142,0,0,1,.06.02.746.746,0,0,1,.07.12,1.56,1.56,0,0,0,.23.28,3.876,3.876,0,0,0,.33.23c.13.09.25.17.38.26s.26.16.39.24a2.329,2.329,0,0,0,.34.2,1.136,1.136,0,0,0,1.31-.19.864.864,0,0,0,.1-.16c.51-.35,1.01-.7,1.51-1.06l.72-.51a64.5,64.5,0,0,0,6.57-4.48c1-.74,1.99-1.5,2.98-2.25q4.725-3.345,9.44-6.7c7.09-5.02,14.21-10.03,21.13-15.28l3.06-2.31c.25-.11.5-.25.75-.35a6.211,6.211,0,0,0,1.32-.91c.88-.66,1.73-1.35,2.6-2.02.84-.65,1.69-1.29,2.52-1.96.41-.33.82-.66,1.2-1.02l.38-.35c.15-.06.3-.13.45-.19a.573.573,0,0,0,.25-.06c.09-.04.18-.1.27-.15h.19a.57.57,0,0,0,.22-.04c.06-.03.11-.05.17-.08a.031.031,0,0,0,.02-.01c.02-.02.05-.03.07-.05a1.421,1.421,0,0,0,.25-.24c.03-.05.07-.09.1-.14a.451.451,0,0,0,.07-.25.544.544,0,0,0,0-.18.417.417,0,0,0-.09-.24Z" fill="#d0ae91"/>
        <path id="Trazado_613550" data-name="Trazado 613550" d="M72,36.56c-.76-1.27-1.58-2.5-2.37-3.75s-1.51-2.56-2.37-3.75a13.457,13.457,0,0,1-2.22-4.05,31.481,31.481,0,0,0-1.51-3.95q-1.59-3.66-3.26-7.29a41.672,41.672,0,0,0-3.74-6.93c-.17-.24-.34-.49-.5-.74A.5.5,0,0,0,56,5.94c-.06-.21-.13-.41-.19-.61s-.14-.41-.21-.61V4.43a2.029,2.029,0,0,0-.09-.48c-.04-.1-.08-.21-.12-.31-.1-.26-.22-.5-.34-.74-.05-.09-.1-.18-.15-.26-.03-.05-.05-.09-.08-.14a.035.035,0,0,1-.01-.02c.01-.02.03-.04.04-.06a.733.733,0,0,0-.87-1.02,3.752,3.752,0,0,0-1.31.76c-.46.34-.91.67-1.37,1-.92.67-1.79,1.39-2.69,2.09-.87.67-1.74,1.33-2.62,1.98l-.54.42A17.017,17.017,0,0,0,42,9.77c-1.25.86-2.47,1.75-3.73,2.59q-1.83,1.23-3.67,2.45a37.007,37.007,0,0,0-3.71,2.62.464.464,0,0,0-.12.51c-1.54.97-3.09,1.95-4.62,2.94a.384.384,0,0,0-.13.54c-2.83,1.79-5.71,3.53-8.43,5.46-1.45,1.03-2.9,2.03-4.39,3.02a46.68,46.68,0,0,1-4.47,2.89c-.38.2.02.82.36.56a35.567,35.567,0,0,1,3.85-2.42c1.31-.77,2.57-1.61,3.9-2.34,2.65-1.46,5.22-3.09,7.77-4.72,5.06-3.23,10.09-6.58,15.34-9.52,2.61-1.47,5.31-2.77,7.87-4.32,1.3-.78,2.6-1.55,3.89-2.35a4.872,4.872,0,0,1,1.43-.82,1.333,1.333,0,0,1,1.09.5,19.348,19.348,0,0,1,2.37,2.96,35.524,35.524,0,0,1,2.07,3.24c1.22,2.26,2.22,4.64,3.28,6.97A25.092,25.092,0,0,0,64,24.44c.47.68,1,1.28,1.42,2a17.451,17.451,0,0,1,1.22,2.25,31.754,31.754,0,0,0,2.15,4.08c.82,1.42,1.64,2.86,2.53,4.24a.405.405,0,0,0,.68-.44Z" fill="#fff"/>
      </g>
      <g id="Grupo_1072692" data-name="Grupo 1072692">
        <path id="Trazado_613551" data-name="Trazado 613551" d="M53.88,1.35c4.83,10.51,9.94,20.9,15.19,31.2q2.25,4.41,4.54,8.8l.14-.52-5.55,3.9L54.87,54.1Q46.8,59.77,38.74,65.44L24.79,75.25l-4.6,3.23c-.48.34-.96.67-1.44,1.01a4.491,4.491,0,0,0-.76.53.359.359,0,0,1-.1.07l.51.13Q11.23,64.305,4.5,48.19q-1.9-4.545-3.77-9.12l-.17.42q9.99-7.17,19.99-14.32Q32.34,16.74,44.14,8.34c3.34-2.37,6.72-4.69,10.07-7.05.49-.34.02-1.15-.47-.8-6.7,4.73-13.32,9.57-19.99,14.34Q21.96,23.245,10.18,31.69q-4.995,3.585-10,7.16a.376.376,0,0,0-.17.42q6.63,16.2,13.68,32.2,2.01,4.575,4.07,9.12a.374.374,0,0,0,.51.13l5.55-3.9q6.66-4.68,13.33-9.37,8.07-5.67,16.13-11.33,6.975-4.905,13.95-9.8c2.26-1.59,4.59-3.11,6.8-4.77l.1-.07a.4.4,0,0,0,.14-.52Q66.245,25.57,58.78,9.9C57.36,6.92,55.96,3.93,54.55.95c-.21-.46-.88-.06-.67.39h0Z"/>
        <path id="Trazado_613552" data-name="Trazado 613552" d="M54.09,1.09c1.9-.84,3.65.17,4.96,1.55a44.572,44.572,0,0,1,3.02,3.83q3.03,4.02,6.01,8.07,6.4,8.67,12.65,17.45c2.07,2.92,4.3,5.81,6.07,8.92.29.51,1.05-.02.66-.51-2.1-2.59-3.91-5.43-5.84-8.15Q78.4,27.7,75.12,23.19c-4.26-5.87-8.59-11.68-12.91-17.51a29.19,29.19,0,0,0-3.52-4.45C57.41.08,55.18-.59,53.75.65c-.25.22.07.54.33.43h0Z"/>
        <path id="Trazado_613553" data-name="Trazado 613553" d="M86.86,40.52c-7.9,5.39-15.62,11.05-23.4,16.61S47.84,68.31,40.05,73.93q-6.57,4.74-13.12,9.49c-.37.27,0,.9.36.62q11.55-8.52,23.19-16.9c7.76-5.59,15.62-11.18,23.47-16.7,4.42-3.11,8.88-6.15,13.26-9.31.36-.26.02-.86-.35-.6h0Z"/>
        <path id="Trazado_613554" data-name="Trazado 613554" d="M19.21,79.99a6.906,6.906,0,0,1,1.62-.36,4.466,4.466,0,0,1,1.75.31,7.417,7.417,0,0,1,1.64.94,12.054,12.054,0,0,1,1.59,1.26.38.38,0,0,0,.54,0h.01a1.267,1.267,0,0,0-.18.06h.11a.176.176,0,0,0,.15-.21v-.11a1.286,1.286,0,0,0-.04.19h.01a.4.4,0,0,0-.14-.54c-.63-.38-1.19-.91-1.8-1.33a7.738,7.738,0,0,0-1.93-1.01c-1.07-.36-2.76-.46-3.49.59-.08.11.05.25.17.21h0Z"/>
        <path id="Trazado_613555" data-name="Trazado 613555" d="M25.85,81.95c7.51-5.27,14.92-10.68,22.36-16.05S63.77,54.7,71.56,49.12c4.13-2.95,8.29-5.86,12.42-8.82.37-.26.01-.88-.36-.61C76.13,45.1,68.73,50.62,61.27,56.06S45.76,67.29,37.98,72.86c-4.1,2.94-8.22,5.84-12.31,8.77-.19.13,0,.45.18.31h0Z"/>
        <path id="Trazado_613556" data-name="Trazado 613556" d="M83.99,39.58a11.239,11.239,0,0,0-2.8-.93,15.276,15.276,0,0,0-2.89-.45,10.579,10.579,0,0,0-2.75.22,8.218,8.218,0,0,0-1.36.42c-.35.14-.76.21-.94.56a.256.256,0,0,0,.22.38c.38.04.69-.27,1.05-.41A10.216,10.216,0,0,1,75.71,39a9.641,9.641,0,0,1,2.68-.19,14.193,14.193,0,0,1,2.72.46c.89.23,1.77.65,2.66.8.28.05.49-.33.21-.49h0Z"/>
        <path id="Trazado_613557" data-name="Trazado 613557" d="M84.03,39.83c-2.9-4.25-5.96-8.41-8.95-12.6-3.86-5.4-7.74-10.8-11.47-16.3C62.8,9.74,62,8.55,61.24,7.34a17.808,17.808,0,0,0-1.81-2.66.193.193,0,0,0-.32.19,10.4,10.4,0,0,0,1.35,2.41c.69,1.02,1.38,2.04,2.07,3.05,1.75,2.58,3.54,5.13,5.34,7.68,3.81,5.4,7.68,10.77,11.53,16.14,1.41,1.97,2.83,3.94,4.21,5.94.19.27.63.01.44-.26h0Z"/>
        <path id="Trazado_613558" data-name="Trazado 613558" d="M59.79,5.33a.484.484,0,0,0-.13-.55,6.774,6.774,0,0,0-.51-.56,7.714,7.714,0,0,0-1.14-.99,4.27,4.27,0,0,0-2.78-.83.383.383,0,0,0-.37.37.363.363,0,0,0,.37.37,3.676,3.676,0,0,1,2.55.78,9.772,9.772,0,0,1,1.04.89,4.7,4.7,0,0,0,.51.49c.11.07.36.16.45,0h0Z"/>
        <path id="Trazado_613559" data-name="Trazado 613559" d="M58.31,5.91c1.13,1.97,2.43,3.86,3.67,5.77s2.48,3.82,3.74,5.72q3.765,5.7,7.65,11.33c.74,1.07,1.48,2.14,2.23,3.21a26.822,26.822,0,0,0,2.17,2.99.108.108,0,0,0,.17-.13,26.968,26.968,0,0,0-1.91-2.83c-.64-.92-1.3-1.87-1.95-2.81q-1.9-2.76-3.79-5.55-3.825-5.67-7.55-11.4c-1.39-2.15-2.7-4.37-4.17-6.47a.157.157,0,0,0-.27.16h0Z"/>
        <path id="Trazado_613560" data-name="Trazado 613560" d="M78.49,36.14c.04.11.08.22.13.33s.11.19.17.29.12.18.18.27a1.827,1.827,0,0,0,.13.16.42.42,0,0,0,.19.09c.1.04.18-.07.16-.16a.17.17,0,0,0-.01-.07v-.04a.212.212,0,0,0-.03-.07,1.431,1.431,0,0,0-.11-.15.179.179,0,0,1-.05-.07h0c0-.01-.02-.02-.02-.03a1.132,1.132,0,0,0-.1-.13,2.4,2.4,0,0,0-.18-.26,2.56,2.56,0,0,1-.2-.26.129.129,0,0,0-.16-.05.125.125,0,0,0-.08.15h0Z"/>
        <path id="Trazado_613561" data-name="Trazado 613561" d="M61.69,13.63c2.19,3.87,4.45,7.7,6.74,11.52,1.14,1.89,2.28,3.78,3.44,5.66l1.74,2.82a20.513,20.513,0,0,0,1.75,2.7c.07.08.17-.02.14-.1a24.456,24.456,0,0,0-1.78-2.94c-.56-.9-1.12-1.81-1.68-2.72-1.16-1.88-2.3-3.77-3.44-5.67-2.27-3.78-4.5-7.58-6.73-11.38-.07-.12-.25-.01-.18.1h0Z"/>
        <path id="Trazado_613562" data-name="Trazado 613562" d="M79.18,41C66.44,50.03,53.84,59.24,41.16,68.36c-3.52,2.53-7.13,4.98-10.55,7.64-.07.06.02.18.1.13,3.26-2.12,6.37-4.47,9.52-6.74s6.37-4.61,9.55-6.92c6.31-4.58,12.6-9.19,18.92-13.76q5.265-3.81,10.55-7.6c.07-.05,0-.17-.07-.12h0Z"/>
        <path id="Trazado_613563" data-name="Trazado 613563" d="M28.38,77.76q-.93.645-1.83,1.32l-.87.66c-.15.11-.3.23-.44.34-.16.12-.33.21-.49.33-.22.16.03.49.23.3.13-.13.25-.27.38-.39s.27-.24.41-.36c.29-.24.58-.48.87-.71.6-.46,1.2-.91,1.82-1.35.09-.06,0-.2-.08-.14h0Z"/>
        <path id="Trazado_613564" data-name="Trazado 613564" d="M48.3,60.93Q38.16,68.295,28.02,75.66c-.94.69-1.88,1.37-2.83,2.05-.47.34-.94.68-1.42,1.02a4.552,4.552,0,0,0-1.12.92.145.145,0,0,0,.16.21,5.588,5.588,0,0,0,1.47-.99c.53-.4,1.07-.8,1.6-1.19,1.07-.79,2.14-1.59,3.21-2.38,2.14-1.58,4.28-3.17,6.42-4.75q6.42-4.755,12.83-9.52c.06-.04,0-.14-.06-.1h0Z"/>
        <path id="Trazado_613565" data-name="Trazado 613565" d="M51.92,58.5c-.36.28-.72.56-1.09.82-.19.13-.37.26-.56.38-.09.06-.19.13-.28.19a1.566,1.566,0,0,0-.25.2.076.076,0,0,0,.09.12,1.572,1.572,0,0,0,.26-.19,2.746,2.746,0,0,0,.26-.22c.17-.14.33-.29.5-.43.36-.29.73-.56,1.1-.84a.025.025,0,1,0-.03-.04h0Z"/>
        <path id="Trazado_613566" data-name="Trazado 613566" d="M76.36,40.98l-6.11,4.49c-1.02.75-2.03,1.5-3.05,2.25a24.389,24.389,0,0,0-2.87,2.15.1.1,0,0,0,.12.15,12.7,12.7,0,0,0,1.54-1.1c.5-.37,1.02-.75,1.52-1.13.98-.73,1.97-1.46,2.95-2.19,2-1.48,4-2.97,6-4.45.11-.08,0-.27-.11-.19h0Z"/>
      </g>
    </g>
  </g>
</svg>
