<svg xmlns="http://www.w3.org/2000/svg" xmlns:xlink="http://www.w3.org/1999/xlink" width="400" height="355" viewBox="0 0 400 355">
  <defs>
    <clipPath id="clip-path">
      <rect id="Rectángulo_401614" data-name="Rectángulo 401614" width="379.5" height="348.533" fill="none"/>
    </clipPath>
  </defs>
  <g id="Grupo_1099673" data-name="Grupo 1099673" transform="translate(-1020 -845)">
    <rect id="Rectángulo_401613" data-name="Rectángulo 401613" width="400" height="355" transform="translate(1020 845)" fill="none"/>
    <g id="Grupo_1099672" data-name="Grupo 1099672" transform="translate(1030 848)">
      <g id="Grupo_1099671" data-name="Grupo 1099671" clip-path="url(#clip-path)">
        <path id="Trazado_874895" data-name="Trazado 874895" d="M102.739,217.776s49.939,22.1,88.21-36.7,32.672-96.944,78.206-99.259c55.19-2.806,61.961,40.81,61.961,40.81s34.742-3.17,46.323,33.528c12.438,39.413-26.932,62.065-26.932,62.065s27.214,57.113-58.114,98.862c0,0-29.168,33.527-75.24,17.3S167.771,358.784,123,340.251s-28.624-56.283-14.627-77.959-5.632-44.517-5.632-44.517" transform="translate(-11.051 -9.639)" fill="#c4bdb7"/>
        <path id="Trazado_874896" data-name="Trazado 874896" d="M207.878,183.968a30.317,30.317,0,1,0-15.743-39.879,30.316,30.316,0,0,0,15.743,39.879" transform="translate(-22.377 -14.849)" fill="#c4bdb7"/>
        <path id="Trazado_874897" data-name="Trazado 874897" d="M96,212.269s51.622,22.84,91.183-37.941,33.772-100.211,80.841-102.6c57.05-2.9,64.049,42.186,64.049,42.186s35.912-3.277,47.883,34.657c12.858,40.742-27.838,64.157-27.838,64.157s28.13,59.038-60.073,102.193c0,0-30.151,34.658-77.775,17.882s-51.046,25.23-97.328,6.073-29.589-58.18-15.12-80.586S96,212.269,96,212.269Z" transform="translate(-10.219 -8.448)" fill="none" stroke="#c4bdb7" stroke-linecap="round" stroke-linejoin="round" stroke-width="1"/>
        <path id="Trazado_874898" data-name="Trazado 874898" d="M204.678,177.322A31.339,31.339,0,1,0,188.4,136.1,31.339,31.339,0,0,0,204.678,177.322Z" transform="translate(-21.927 -13.834)" fill="none" stroke="#c4bdb7" stroke-linecap="round" stroke-linejoin="round" stroke-width="1"/>
        <path id="Trazado_874899" data-name="Trazado 874899" d="M101.172,226.5s51.622,22.84,91.183-37.941S226.127,88.344,273.2,85.951c57.05-2.9,64.049,42.186,64.049,42.186s35.912-3.277,47.883,34.657c12.858,40.742-27.838,64.157-27.838,64.157s28.13,59.038-60.073,102.193c0,0-30.151,34.657-77.776,17.882s-51.045,25.23-97.327,6.073-29.589-58.18-15.12-80.586S101.172,226.5,101.172,226.5Z" transform="translate(-10.83 -10.127)" fill="none" stroke="#c4bdb7" stroke-linecap="round" stroke-linejoin="round" stroke-width="1"/>
        <path id="Trazado_874900" data-name="Trazado 874900" d="M209.853,191.551a31.339,31.339,0,1,0-16.274-41.223A31.339,31.339,0,0,0,209.853,191.551Z" transform="translate(-22.538 -15.513)" fill="none" stroke="#c4bdb7" stroke-linecap="round" stroke-linejoin="round" stroke-width="1"/>
        <path id="Trazado_874901" data-name="Trazado 874901" d="M80.068,197.465s51.622,22.84,91.183-37.941,33.772-100.211,80.841-102.6c57.05-2.9,64.049,42.186,64.049,42.186s35.912-3.277,47.883,34.657c12.858,40.742-27.838,64.157-27.838,64.157s28.13,59.038-60.073,102.193c0,0-30.151,34.658-77.776,17.882s-51.045,25.23-97.327,6.073-29.589-58.18-15.12-80.586S80.068,197.465,80.068,197.465Z" transform="translate(-8.339 -6.701)" fill="none" stroke="#c4bdb7" stroke-linecap="round" stroke-linejoin="round" stroke-width="1"/>
        <path id="Trazado_874902" data-name="Trazado 874902" d="M188.75,162.518a31.339,31.339,0,1,0-16.274-41.223A31.339,31.339,0,0,0,188.75,162.518Z" transform="translate(-20.047 -12.087)" fill="none" stroke="#c4bdb7" stroke-linecap="round" stroke-linejoin="round" stroke-width="1"/>
        <path id="Trazado_874903" data-name="Trazado 874903" d="M80.574,217.626s51.622,22.84,91.183-37.941S205.529,79.474,252.6,77.08c57.05-2.9,64.049,42.186,64.049,42.186s35.912-3.277,47.883,34.657c12.858,40.742-27.838,64.157-27.838,64.157s28.13,59.038-60.073,102.194c0,0-30.152,34.657-77.776,17.882s-51.045,25.23-97.327,6.073-29.589-58.18-15.12-80.587S80.574,217.626,80.574,217.626Z" transform="translate(-8.399 -9.08)" fill="none" stroke="#c4bdb7" stroke-linecap="round" stroke-linejoin="round" stroke-width="1"/>
        <path id="Trazado_874904" data-name="Trazado 874904" d="M189.256,182.679a31.339,31.339,0,1,0-16.274-41.223A31.339,31.339,0,0,0,189.256,182.679Z" transform="translate(-20.107 -14.466)" fill="none" stroke="#c4bdb7" stroke-linecap="round" stroke-linejoin="round" stroke-width="1"/>
        <path id="Trazado_874905" data-name="Trazado 874905" d="M298.674,181.686q-.662.126-1.357.225c5.691-37.818-40.717-44.128-40.717-44.128s35.134-14.887,54.288,10.675c7.339,13.094,1.559,30.624-12.214,33.228" transform="translate(-30.281 -15.751)" fill="#2a2a2a"/>
        <path id="Trazado_874906" data-name="Trazado 874906" d="M284.917,152.533s-6.557-14.611-24.519-12.978a33.018,33.018,0,0,0-26.287,18.483C212.255,201.886,229.4,305.4,165.742,319.266c-10.038,2.186-30.233-1.992-30.233-1.992C73.191,295.892,12.216,261.642,12.216,261.642s37.84,7.007,72.355-101.206,195.024-54.633,200.347-7.9" transform="translate(-1.442 -11.468)" fill="#ebe8e5"/>
        <path id="Trazado_874907" data-name="Trazado 874907" d="M284.917,152.533s-6.557-14.611-24.519-12.978a33.018,33.018,0,0,0-26.287,18.483C212.255,201.886,229.4,305.4,165.742,319.266c-10.038,2.186-30.233-1.992-30.233-1.992C73.191,295.892,12.216,261.642,12.216,261.642s37.84,7.007,72.355-101.206S279.595,105.8,284.917,152.533Z" transform="translate(-1.442 -11.468)" fill="none" stroke="#2a2a2a" stroke-linecap="round" stroke-linejoin="round" stroke-width="1"/>
        <path id="Trazado_874908" data-name="Trazado 874908" d="M193.288,316.329s.322,7.937-8.7,11.515c-8.141-11.051-18.7-7.6-18.7-7.6s24.291-17.936,27.4-3.92" transform="translate(-19.576 -36.698)" fill="#ebe8e5"/>
        <path id="Trazado_874909" data-name="Trazado 874909" d="M193.288,316.329s.322,7.937-8.7,11.515c-8.141-11.051-18.7-7.6-18.7-7.6S190.179,302.312,193.288,316.329Z" transform="translate(-19.576 -36.698)" fill="none" stroke="#2a2a2a" stroke-linecap="round" stroke-linejoin="round" stroke-width="1"/>
        <path id="Trazado_874910" data-name="Trazado 874910" d="M173.711,310.083s-4.055-11.2-18.817,2.164a15.471,15.471,0,0,0-4.485,8.113,16.3,16.3,0,0,0,1.63,12.023c5.606,9.453,17.357,4.509,17.357,4.509s-29.934,15-153.147-41.252a34.384,34.384,0,0,1-8.281-5.221c-18.376-15.923-1.264-36.6,14.107-31.61,16.673,5.418,42.13,18.229,86.039,28.72s67.22,15.006,65.6,22.552" transform="translate(0 -30.453)" fill="#2a2a2a"/>
        <path id="Trazado_874911" data-name="Trazado 874911" d="M170.779,269.037s7.39-8.995,17.5,0c6.585,5.859,9.716-4.107,17.091-12.685,9.1-10.584,26.432-5.81,28.966,7.916,1.05,5.693,2.3,11.558,9.385,16.58,15.487,10.982-6.2,35.166-23.09,17.161s-18.866-1.674-30.41-18.569-19.441-10.4-19.441-10.4" transform="translate(-20.154 -29.572)" fill="#2a2a2a"/>
        <path id="Trazado_874912" data-name="Trazado 874912" d="M261.385,269.57a4.037,4.037,0,0,1-.839.153,2.067,2.067,0,0,1-.67-.066,2.206,2.206,0,0,1-.6-.274,7.024,7.024,0,0,1-.647-.479q-.352-.28-.811-.657t-.885-.716c-.325-.268-.657-.54-.991-.813a7.393,7.393,0,0,1-2.979.069,6.457,6.457,0,0,1-2.486-1.046,7.158,7.158,0,0,1-1.909-2.018,10.279,10.279,0,0,1-1.245-2.849,9.4,9.4,0,0,1-.342-3.12,7.416,7.416,0,0,1,.731-2.817,6.776,6.776,0,0,1,1.8-2.253,7.549,7.549,0,0,1,2.844-1.428,7.864,7.864,0,0,1,3.337-.265,6.461,6.461,0,0,1,2.673,1.04,7.19,7.19,0,0,1,1.979,2.067,10.3,10.3,0,0,1,1.246,2.831,9.84,9.84,0,0,1,.348,2.3,8.139,8.139,0,0,1-.245,2.3,7.015,7.015,0,0,1-.936,2.119,6.305,6.305,0,0,1-1.727,1.742l2.708,2.055a3.185,3.185,0,0,0,.664.394,1.816,1.816,0,0,0,.672.175l1.463,0,.18.648Zm-4.968-4.187a2.934,2.934,0,0,0,1.5-.931,3.9,3.9,0,0,0,.8-1.635,7.074,7.074,0,0,0,.147-2.156,12.813,12.813,0,0,0-.446-2.5,15.308,15.308,0,0,0-1-2.7,7.5,7.5,0,0,0-1.335-1.954,4.075,4.075,0,0,0-1.649-1.06,3.317,3.317,0,0,0-1.952,0,2.911,2.911,0,0,0-1.56.981,3.991,3.991,0,0,0-.77,1.684,7.155,7.155,0,0,0-.1,2.145,13.432,13.432,0,0,0,.437,2.368,15.652,15.652,0,0,0,.99,2.672,7.89,7.89,0,0,0,1.326,1.98,4.076,4.076,0,0,0,1.653,1.093,3.271,3.271,0,0,0,1.962.019" transform="translate(-29.144 -29.61)" fill="#2a2a2a"/>
        <path id="Trazado_874913" data-name="Trazado 874913" d="M372.97,297.219a2.4,2.4,0,0,1,.213-.452,1.2,1.2,0,0,1,.26-.3,1.283,1.283,0,0,1,.336-.194,4.068,4.068,0,0,1,.448-.146q.254-.073.59-.163c.224-.061.438-.12.642-.178l.726-.2a4.333,4.333,0,0,1,.981-1.444,3.764,3.764,0,0,1,1.346-.829,4.169,4.169,0,0,1,1.611-.223,6.024,6.024,0,0,1,1.783.376,5.5,5.5,0,0,1,1.6.9,4.348,4.348,0,0,1,1.094,1.308,3.956,3.956,0,0,1,.463,1.624,4.431,4.431,0,0,1-.288,1.842,4.61,4.61,0,0,1-1.01,1.681,3.786,3.786,0,0,1-1.406.92,4.182,4.182,0,0,1-1.66.24,6.026,6.026,0,0,1-1.774-.369,5.748,5.748,0,0,1-1.213-.616,4.775,4.775,0,0,1-1.013-.9,4.122,4.122,0,0,1-.692-1.168,3.713,3.713,0,0,1-.243-1.417l-1.9.592a1.887,1.887,0,0,0-.414.183,1.079,1.079,0,0,0-.312.261l-.5.7-.37-.135Zm3.688-.944a1.733,1.733,0,0,0-.069,1.035,2.288,2.288,0,0,0,.507.938,4.139,4.139,0,0,0,.979.8,7.478,7.478,0,0,0,1.345.639,9.024,9.024,0,0,0,1.628.44,4.423,4.423,0,0,0,1.386.028,2.387,2.387,0,0,0,1.067-.426,1.934,1.934,0,0,0,.666-.929,1.706,1.706,0,0,0,.063-1.078,2.338,2.338,0,0,0-.541-.94,4.168,4.168,0,0,0-.987-.781,7.944,7.944,0,0,0-1.278-.6,9.161,9.161,0,0,0-1.611-.437,4.622,4.622,0,0,0-1.4-.041,2.39,2.39,0,0,0-1.084.415,1.924,1.924,0,0,0-.676.93" transform="translate(-43.932 -34.588)" fill="#2a2a2a"/>
        <path id="Trazado_874914" data-name="Trazado 874914" d="M275.935,183.451a2.368,2.368,0,0,1,.213-.452,1.2,1.2,0,0,1,.26-.3,1.293,1.293,0,0,1,.335-.194,4.154,4.154,0,0,1,.449-.146q.254-.073.589-.163c.225-.061.438-.12.643-.178l.726-.2a4.335,4.335,0,0,1,.981-1.444,3.768,3.768,0,0,1,1.345-.829,4.175,4.175,0,0,1,1.612-.223,6.024,6.024,0,0,1,1.782.376,5.5,5.5,0,0,1,1.6.9,4.348,4.348,0,0,1,1.094,1.308,3.955,3.955,0,0,1,.463,1.624,4.432,4.432,0,0,1-.288,1.842,4.611,4.611,0,0,1-1.01,1.681,3.786,3.786,0,0,1-1.406.92,4.181,4.181,0,0,1-1.66.24,6.026,6.026,0,0,1-1.774-.369,5.749,5.749,0,0,1-1.213-.616,4.731,4.731,0,0,1-1.013-.9,4.121,4.121,0,0,1-.692-1.168,3.71,3.71,0,0,1-.243-1.416l-1.9.591a1.888,1.888,0,0,0-.414.183,1.078,1.078,0,0,0-.312.261l-.5.7-.37-.135Zm3.688-.944a1.726,1.726,0,0,0-.069,1.035,2.289,2.289,0,0,0,.507.938,4.14,4.14,0,0,0,.979.8,7.48,7.48,0,0,0,1.345.639,8.939,8.939,0,0,0,1.628.439,4.4,4.4,0,0,0,1.386.029,2.4,2.4,0,0,0,1.067-.426,1.934,1.934,0,0,0,.666-.929,1.706,1.706,0,0,0,.063-1.078,2.333,2.333,0,0,0-.541-.94,4.166,4.166,0,0,0-.987-.781,7.872,7.872,0,0,0-1.278-.6,9.164,9.164,0,0,0-1.611-.437,4.624,4.624,0,0,0-1.4-.041,2.39,2.39,0,0,0-1.084.415,1.924,1.924,0,0,0-.676.93" transform="translate(-32.481 -21.162)" fill="#2a2a2a"/>
        <path id="Trazado_874915" data-name="Trazado 874915" d="M257.622,320.247a.681.681,0,0,0,.012-.36.982.982,0,0,0-.155-.347l-.455-.666.3-.441,4.312,2.916-.3.441-1.452-.529-2.22,7.3-.205.661,5.482-4.387,1.958-1.276.931.631-2.506,8.158-.24.774,6.524-5.135-.913-1.217.3-.441,3.135,2.12-.3.44-.872-.127a1.185,1.185,0,0,0-.375.011.808.808,0,0,0-.361.145L263.1,334.4l-1.95,1.281-1.105-.747,2.234-7.257.368-1.152-5.144,4.09-1.958,1.276-1.228-.831Z" transform="translate(-30.013 -37.578)" fill="#2a2a2a"/>
        <path id="Trazado_874916" data-name="Trazado 874916" d="M265.018,252.411l.972-.361a.558.558,0,0,0,.251-.187.429.429,0,0,0,.084-.3l-.6-8.32a.446.446,0,0,0-.127-.294.552.552,0,0,0-.274-.149l-1.013-.21-.034-.477,8.649-.623.2,2.8-.547.039-.754-1.619a.694.694,0,0,0-.127-.188.258.258,0,0,0-.213-.063l-3.566.257.279,3.87,2.268-.163a.313.313,0,0,0,.221-.086.476.476,0,0,0,.1-.188l.431-1.32.493-.035.283,3.933-.493.036-.615-1.23a.689.689,0,0,0-.128-.187.279.279,0,0,0-.228-.063l-2.268.164.311,4.316,4.238-.305a.275.275,0,0,0,.205-.089.507.507,0,0,0,.1-.207l.467-1.928.547-.04.219,3.026-9.29.669Z" transform="translate(-31.187 -28.498)" fill="#2a2a2a"/>
        <path id="Trazado_874917" data-name="Trazado 874917" d="M320.964,223.8l1.179.328a.655.655,0,0,0,.369-.005.512.512,0,0,0,.288-.229l5.186-8.371a.528.528,0,0,0,.079-.375.606.606,0,0,0-.156-.326l-.825-.9.3-.48,4.736,2.934a10.665,10.665,0,0,1,1.427,1.036,6.237,6.237,0,0,1,.925.992,3.5,3.5,0,0,1,.5.929,2.634,2.634,0,0,1,.145.856,2.493,2.493,0,0,1-.132.784,3.37,3.37,0,0,1-.327.695,3.086,3.086,0,0,1-.953,1.011,3.438,3.438,0,0,1-1.1.467,3.736,3.736,0,0,1-1.1.085,5.934,5.934,0,0,1-.948-.141l.22,5.514a1.64,1.64,0,0,0,.04.3,2.4,2.4,0,0,0,.093.324,2.591,2.591,0,0,0,.132.305.916.916,0,0,0,.161.231l.844.9-.3.48-2.517-1.559a3.374,3.374,0,0,1-.558-.417,1.441,1.441,0,0,1-.31-.421,1.5,1.5,0,0,1-.135-.5q-.029-.279-.031-.661l-.056-4.989-.863-.926-2.238,3.611a.581.581,0,0,0-.1.359.5.5,0,0,0,.148.315l.983,1.013-.3.48-5.1-3.164Zm7.778-2.17a2.014,2.014,0,0,0,.953.324,2.11,2.11,0,0,0,.907-.146,2.6,2.6,0,0,0,.8-.511,3.636,3.636,0,0,0,.631-.763,2.683,2.683,0,0,0,.509-2,2.377,2.377,0,0,0-1.163-1.445l-.92-.57-2.715,4.382a2.02,2.02,0,0,0,.191.156c.087.065.18.134.28.206s.2.143.295.21.174.119.231.154" transform="translate(-37.842 -25.188)" fill="#2a2a2a"/>
        <path id="Trazado_874918" data-name="Trazado 874918" d="M374.353,321.675l-.48.876a.534.534,0,0,0-.064.294.413.413,0,0,0,.129.272l5.689,5.67a.431.431,0,0,0,.282.133.491.491,0,0,0,.288-.064l.87-.487.326.325-3.209,3.218a8.559,8.559,0,0,1-1.088.941,4.979,4.979,0,0,1-.96.551,2.853,2.853,0,0,1-.829.223,2.141,2.141,0,0,1-.708-.044,2.022,2.022,0,0,1-.6-.25,2.728,2.728,0,0,1-.491-.388,2.523,2.523,0,0,1-.626-.944,2.82,2.82,0,0,1-.168-.96,3.078,3.078,0,0,1,.138-.892,4.823,4.823,0,0,1,.288-.727l-4.421-.847a1.386,1.386,0,0,0-.243-.024,2.119,2.119,0,0,0-.542.063.712.712,0,0,0-.213.086l-.875.5-.325-.325,1.7-1.711a2.674,2.674,0,0,1,.435-.366,1.2,1.2,0,0,1,.392-.169,1.25,1.25,0,0,1,.424-.014c.152.019.328.052.532.1l3.972.88.9-.514-2.454-2.446a.473.473,0,0,0-.267-.144.407.407,0,0,0-.277.059l-.987.594-.326-.325,3.458-3.47Zm.282,6.581a1.652,1.652,0,0,0-.434.7,1.721,1.721,0,0,0-.052.748,2.116,2.116,0,0,0,.258.731,2.965,2.965,0,0,0,.489.642,2.189,2.189,0,0,0,1.494.774,1.94,1.94,0,0,0,1.363-.656l.624-.625L375.4,327.6a1.676,1.676,0,0,0-.161.123l-.216.184c-.076.066-.15.131-.221.195s-.126.116-.165.155" transform="translate(-43.254 -37.923)" fill="#2a2a2a"/>
        <path id="Trazado_874919" data-name="Trazado 874919" d="M270.447,264.563,272,265.848a.78.78,0,0,0,.5.2.8.8,0,0,0,.506-.166l11.924-8.764-2.309-3.143a.5.5,0,0,0-.336-.233.963.963,0,0,0-.378.047l-3.016.863-.527-.719,3.925-2.885,9.908,13.48-3.925,2.884-.528-.718,1.723-2.62a1.006,1.006,0,0,0,.162-.342.457.457,0,0,0-.11-.374l-2.349-3.2-11.925,8.764a.721.721,0,0,0-.3.46.92.92,0,0,0,.044.521l.762,1.868-.644.473-5.3-7.216Z" transform="translate(-31.84 -29.627)" fill="#2a2a2a"/>
        <path id="Trazado_874920" data-name="Trazado 874920" d="M405.532,274.212l1.555,1.284a.78.78,0,0,0,.5.2.8.8,0,0,0,.506-.166l11.924-8.765-2.309-3.142a.5.5,0,0,0-.336-.233.948.948,0,0,0-.378.047l-3.016.863-.527-.719,3.925-2.885,9.908,13.479-3.925,2.885-.528-.718,1.723-2.621a1,1,0,0,0,.162-.342.46.46,0,0,0-.11-.373l-2.349-3.2-11.925,8.765a.721.721,0,0,0-.3.46.92.92,0,0,0,.044.521l.762,1.868-.644.473-5.3-7.217Z" transform="translate(-47.781 -30.766)" fill="#2a2a2a"/>
        <path id="Trazado_874921" data-name="Trazado 874921" d="M289.874,381.818l-.661.8a.4.4,0,0,0-.1.256.41.41,0,0,0,.086.26l4.506,6.131,1.616-1.187a.261.261,0,0,0,.12-.173.493.493,0,0,0-.025-.194l-.444-1.551.37-.272,1.484,2.018L289.89,393l-1.483-2.018.37-.272,1.348.886a.52.52,0,0,0,.176.083.237.237,0,0,0,.192-.056l1.643-1.208-4.507-6.131a.371.371,0,0,0-.236-.153.471.471,0,0,0-.267.022l-.96.392-.243-.331,3.711-2.728Z" transform="translate(-33.741 -45.019)" fill="#2a2a2a"/>
        <path id="Trazado_874922" data-name="Trazado 874922" d="M270.165,349.1l2.2.9a1,1,0,0,0,.618.048.9.9,0,0,0,.524-.354l3.8-5.143,1.446-11.763a3.827,3.827,0,0,0,.016-.681,1.309,1.309,0,0,0-.225-.645l-.918-1.342.569-.769,7.677,5.678-.569.769-2.545-1.043-1,8.053-.267,2.181,9.334-4-1.473-2.2.569-.769,5.383,3.981-.569.769-1.633-.35a1.823,1.823,0,0,0-.663-.012,2.688,2.688,0,0,0-.678.191l-10.786,4.483-3.889,5.257a.911.911,0,0,0-.195.607.966.966,0,0,0,.237.575l1.521,1.847-.569.769-8.484-6.275Z" transform="translate(-31.815 -38.867)" fill="#2a2a2a"/>
        <path id="Trazado_874923" data-name="Trazado 874923" d="M302.981,299.2a7.3,7.3,0,0,1-.013-2.292,5,5,0,0,1,.617-1.749,3.658,3.658,0,0,1,1.087-1.166,3.311,3.311,0,0,1,1.387-.546l8.067-1.192a.546.546,0,0,0,.352-.188.633.633,0,0,0,.153-.353l.163-1.259.58-.086.89,6.022-.58.086-.52-1.157a.664.664,0,0,0-.257-.287.547.547,0,0,0-.381-.075l-7.192,1.063a5.552,5.552,0,0,0-.687.15,3.987,3.987,0,0,0-.717.281,3.12,3.12,0,0,0-.658.447,2.333,2.333,0,0,0-.512.649,2.85,2.85,0,0,0-.292.889,3.727,3.727,0,0,0,.012,1.164,3.949,3.949,0,0,0,.328,1.138,3.068,3.068,0,0,0,.547.809,2.707,2.707,0,0,0,.695.524,3.405,3.405,0,0,0,.767.29,3.5,3.5,0,0,0,.763.1,4.053,4.053,0,0,0,.69-.038l7.145-1.057a.5.5,0,0,0,.34-.191.765.765,0,0,0,.154-.339l.231-1.268.58-.086.666,4.51-.58.086-.587-1.148a.715.715,0,0,0-.25-.283.518.518,0,0,0-.377-.08l-7.62,1.126a3.857,3.857,0,0,1-1.42-.033,3.813,3.813,0,0,1-1.178-.477,4.139,4.139,0,0,1-.94-.8,5.942,5.942,0,0,1-.709-1.013,6.477,6.477,0,0,1-.483-1.1,6.365,6.365,0,0,1-.259-1.065" transform="translate(-35.743 -34.266)" fill="#2a2a2a"/>
        <path id="Trazado_874924" data-name="Trazado 874924" d="M276.9,298.289l-.155,1.68a.834.834,0,0,0,.094.511.735.735,0,0,0,.386.323l12.626,4.976a.726.726,0,0,0,.528.017.839.839,0,0,0,.4-.293l1.02-1.339.724.285-2.956,7.5-.723-.286.162-1.663a.854.854,0,0,0-.1-.5.721.721,0,0,0-.389-.352L275.9,304.173a.7.7,0,0,0-.514-.018.93.93,0,0,0-.411.311l-1.028,1.322-.723-.285,2.956-7.5Z" transform="translate(-32.243 -35.168)" fill="#2a2a2a"/>
        <path id="Trazado_874925" data-name="Trazado 874925" d="M299.362,226.952a8.607,8.607,0,0,1-.186-3.469,7.041,7.041,0,0,1,1.134-2.861,7.634,7.634,0,0,1,2.279-2.145,10.93,10.93,0,0,1,3.246-1.329,10.136,10.136,0,0,1,3.387-.265,8.007,8.007,0,0,1,3.023.886,7.324,7.324,0,0,1,2.377,2.021,8.175,8.175,0,0,1,1.447,3.124,8.491,8.491,0,0,1,.174,3.618,6.994,6.994,0,0,1-1.215,2.857,7.741,7.741,0,0,1-2.3,2.071,11.119,11.119,0,0,1-3.1,1.252,10.747,10.747,0,0,1-2.066.294,9.543,9.543,0,0,1-2.083-.132,8.366,8.366,0,0,1-1.985-.61,6.738,6.738,0,0,1-1.761-1.157,7.519,7.519,0,0,1-1.416-1.756,8.672,8.672,0,0,1-.945-2.4m1.286-.116a3.183,3.183,0,0,0,.956,1.659,4.209,4.209,0,0,0,1.742.922,7.649,7.649,0,0,0,2.329.232,13.818,13.818,0,0,0,2.723-.4,16.574,16.574,0,0,0,2.952-.994,8.155,8.155,0,0,0,2.158-1.379,4.419,4.419,0,0,0,1.2-1.748,3.6,3.6,0,0,0,.07-2.111,3.158,3.158,0,0,0-1.008-1.72,4.325,4.325,0,0,0-1.795-.89,7.743,7.743,0,0,0-2.318-.186,14.455,14.455,0,0,0-2.575.392,16.764,16.764,0,0,0-2.925.982,8.489,8.489,0,0,0-2.186,1.366,4.416,4.416,0,0,0-1.238,1.751,3.542,3.542,0,0,0-.086,2.122" transform="translate(-35.294 -25.589)" fill="#2a2a2a"/>
        <path id="Trazado_874926" data-name="Trazado 874926" d="M379.818,241.184a8.607,8.607,0,0,1-.186-3.469,7.043,7.043,0,0,1,1.134-2.861,7.634,7.634,0,0,1,2.279-2.145,10.928,10.928,0,0,1,3.246-1.329,10.136,10.136,0,0,1,3.387-.265A8.007,8.007,0,0,1,392.7,232a7.324,7.324,0,0,1,2.377,2.021,8.176,8.176,0,0,1,1.447,3.124,8.492,8.492,0,0,1,.174,3.618,6.994,6.994,0,0,1-1.215,2.857,7.742,7.742,0,0,1-2.3,2.071,11.117,11.117,0,0,1-3.1,1.252,10.748,10.748,0,0,1-2.067.294,9.542,9.542,0,0,1-2.083-.132,8.367,8.367,0,0,1-1.985-.61,6.739,6.739,0,0,1-1.761-1.157,7.515,7.515,0,0,1-1.416-1.756,8.671,8.671,0,0,1-.946-2.4m1.286-.116a3.183,3.183,0,0,0,.956,1.659,4.209,4.209,0,0,0,1.742.922,7.649,7.649,0,0,0,2.328.232,13.822,13.822,0,0,0,2.723-.4,16.579,16.579,0,0,0,2.952-.994,8.157,8.157,0,0,0,2.158-1.379,4.419,4.419,0,0,0,1.2-1.748,3.6,3.6,0,0,0,.07-2.111,3.157,3.157,0,0,0-1.008-1.72,4.325,4.325,0,0,0-1.795-.89,7.715,7.715,0,0,0-2.318-.186,14.453,14.453,0,0,0-2.575.393,16.757,16.757,0,0,0-2.925.982,8.486,8.486,0,0,0-2.186,1.366,4.416,4.416,0,0,0-1.238,1.751,3.543,3.543,0,0,0-.086,2.122" transform="translate(-44.789 -27.269)" fill="#2a2a2a"/>
        <path id="Trazado_874927" data-name="Trazado 874927" d="M232.782,316.758a6.131,6.131,0,0,1,1.857-1.632,5.022,5.022,0,0,1,2.1-.626,5.429,5.429,0,0,1,2.2.33,7.77,7.77,0,0,1,2.173,1.228,7.224,7.224,0,0,1,1.64,1.777,5.7,5.7,0,0,1,.835,2.08,5.222,5.222,0,0,1-.082,2.218,5.827,5.827,0,0,1-1.109,2.185,6.05,6.05,0,0,1-1.947,1.691,4.96,4.96,0,0,1-2.132.579,5.515,5.515,0,0,1-2.172-.375,7.933,7.933,0,0,1-2.066-1.184A7.656,7.656,0,0,1,233.006,324a6.832,6.832,0,0,1-.844-1.222,5.97,5.97,0,0,1-.533-1.379,4.774,4.774,0,0,1-.129-1.494,5.36,5.36,0,0,1,.357-1.565,6.2,6.2,0,0,1,.924-1.585m.632.668a2.27,2.27,0,0,0-.506,1.265,3,3,0,0,0,.252,1.379,5.471,5.471,0,0,0,.9,1.4,9.944,9.944,0,0,0,1.422,1.347,11.86,11.86,0,0,0,1.856,1.212,5.8,5.8,0,0,0,1.721.6,3.14,3.14,0,0,0,1.507-.1,2.563,2.563,0,0,0,1.211-.891,2.252,2.252,0,0,0,.518-1.321,3.077,3.077,0,0,0-.294-1.4,5.482,5.482,0,0,0-.916-1.378,10.28,10.28,0,0,0-1.354-1.267,12.013,12.013,0,0,0-1.836-1.2,6.025,6.025,0,0,0-1.727-.62,3.142,3.142,0,0,0-1.524.078,2.522,2.522,0,0,0-1.224.886" transform="translate(-27.318 -37.113)" fill="#2a2a2a"/>
        <path id="Trazado_874928" data-name="Trazado 874928" d="M333.376,246.5l1.566,1.361a1.022,1.022,0,0,0,.577.273.9.9,0,0,0,.6-.154l14.027-9.03a.94.94,0,0,0,.4-.491,1.025,1.025,0,0,0-.009-.638l-.6-1.98.8-.518,5.034,7.818a15.006,15.006,0,0,1,1.454,2.867,8.289,8.289,0,0,1,.556,2.776,5.33,5.33,0,0,1-.556,2.483,5.1,5.1,0,0,1-1.878,1.992,7.534,7.534,0,0,1-2.793,1.136,6.6,6.6,0,0,1-2.713-.071,6.7,6.7,0,0,1-2.427-1.15,7.952,7.952,0,0,1-1.947-2.112,3.587,3.587,0,0,1-.337-.7,7.769,7.769,0,0,1-.258-.85,7.942,7.942,0,0,1-.164-.893,7.7,7.7,0,0,1-.063-.836l-6.117,3.939a.867.867,0,0,0-.389.511,1.048,1.048,0,0,0,.019.623l.726,2.2-.8.518-5.508-8.556Zm13.113,2.729a3.018,3.018,0,0,0,.9.938,2.892,2.892,0,0,0,1.05.415,3.76,3.76,0,0,0,1.1.028,6.075,6.075,0,0,0,1.052-.22,5.772,5.772,0,0,0,.906-.359q.407-.208.659-.369A8.532,8.532,0,0,0,353.6,248.5a4.317,4.317,0,0,0,.95-1.4,3.332,3.332,0,0,0,.22-1.643,4.37,4.37,0,0,0-.737-1.884l-.832-1.292-7.7,4.957a3.408,3.408,0,0,0,.154.442c.071.166.15.339.24.517s.185.356.287.533.2.345.305.5" transform="translate(-39.247 -27.771)" fill="#2a2a2a"/>
        <path id="Trazado_874929" data-name="Trazado 874929" d="M324.8,328.753l-.172,1.534a1.559,1.559,0,0,0,.4,1.245l11.291,12.807,2.339,3.337-.868,1.687-20.859-2.089a1.74,1.74,0,0,0-1.246.4l-1.147,1.032-.85-.437L318,339.874l.85.437-.648,2.734,6.388.641,3.177-6.177-4.217-4.726-1.875,2.034-.85-.437,3.12-6.065Zm1.637,15.123,5.569.555,2.248.256-5.264-5.774Z" transform="translate(-37.018 -38.745)" fill="#2a2a2a"/>
        <path id="Trazado_874930" data-name="Trazado 874930" d="M330.587,184.457l.712.29a.775.775,0,0,0,.652-.025l7.668-3.681,1.917-.671.691.645-3.823,9.72a.8.8,0,0,0-.052.336.826.826,0,0,0,.075.316l.34.69-.325.348L335,189.22l.325-.349,1.223.68,1.172-2.977-2.532-2.358-2.836,1.384.721,1.174-.325.348-2.486-2.317Zm7.473,1.259,1.019-2.595.427-1.043-3.48,1.744Z" transform="translate(-38.974 -21.286)" fill="#2a2a2a"/>
        <path id="Trazado_874931" data-name="Trazado 874931" d="M277.51,320.729l.549.224a.6.6,0,0,0,.5-.018l5.923-2.844,1.48-.518.534.5-2.952,7.507a.623.623,0,0,0-.04.26.633.633,0,0,0,.057.243l.263.533-.251.269-2.657-2.476.25-.269.945.526.9-2.3-1.955-1.822-2.191,1.069.557.907-.25.269L277.259,321Zm5.772.974.787-2,.33-.805-2.688,1.346Z" transform="translate(-32.719 -37.477)" fill="#2a2a2a"/>
        <path id="Trazado_874932" data-name="Trazado 874932" d="M240.3,336.605a15.832,15.832,0,0,1,.951-1.61q.521-.773,1.094-1.474t1.183-1.357q.61-.656,1.228-1.274l5.61,2.462-.481.935-3.413-.186a1.5,1.5,0,0,0-.249.021c-.1.016-.195.035-.3.06a2.811,2.811,0,0,0-.282.085,1.131,1.131,0,0,0-.207.1,7.323,7.323,0,0,0-1.17.818,13.1,13.1,0,0,0-1.081,1.022,12.485,12.485,0,0,0-.892,1.049,6.539,6.539,0,0,0-.6.919,4.156,4.156,0,0,0-.473,1.555,3.623,3.623,0,0,0,.148,1.425,3.45,3.45,0,0,0,.677,1.2,3.688,3.688,0,0,0,1.119.876,3.489,3.489,0,0,0,1.058.359,2.731,2.731,0,0,0,1.035-.041,3.86,3.86,0,0,0,1.046-.422,7.16,7.16,0,0,0,1.1-.8q.48-.423.9-.867t.838-.892q.415-.447.841-.881t.9-.841a6.741,6.741,0,0,1,1.653-1.055,5.923,5.923,0,0,1,3.528-.416,6.253,6.253,0,0,1,1.723.594A5.381,5.381,0,0,1,259.2,339a5.757,5.757,0,0,1,1.005,1.39,6.952,6.952,0,0,1,.6,1.657,7.123,7.123,0,0,1,.172,1.843,9.078,9.078,0,0,1-.285,1.943,9.3,9.3,0,0,1-.747,1.951q-.438.851-.935,1.645t-1.015,1.5q-.52.7-1.043,1.306t-1.019,1.09l-5.019-2.581.481-.935,3.145.225a1.3,1.3,0,0,0,.506-.075,3.857,3.857,0,0,0,.458-.188,3.679,3.679,0,0,0,.852-.594,9.044,9.044,0,0,0,.809-.835,10.054,10.054,0,0,0,.684-.9,8.019,8.019,0,0,0,.467-.774,3.834,3.834,0,0,0,.426-1.377,3.234,3.234,0,0,0-.108-1.263,3,3,0,0,0-.549-1.042,2.768,2.768,0,0,0-.875-.714,4.456,4.456,0,0,0-1.082-.4,2.89,2.89,0,0,0-1.087-.031,3.389,3.389,0,0,0-1.1.4,5.97,5.97,0,0,0-1.163.874q-.439.409-.841.828t-.805.846q-.4.427-.848.86t-.975.884a8.073,8.073,0,0,1-1.424.969,6.283,6.283,0,0,1-1.693.619,6.051,6.051,0,0,1-1.895.084,5.709,5.709,0,0,1-2.012-.63A6.363,6.363,0,0,1,240.328,346a5.923,5.923,0,0,1-1.212-2.394,8.228,8.228,0,0,1-.122-3.158,12.052,12.052,0,0,1,1.305-3.842" transform="translate(-28.193 -39.049)" fill="#2a2a2a"/>
        <path id="Trazado_874933" data-name="Trazado 874933" d="M402.771,184.324a10.962,10.962,0,0,1,.658-1.114q.361-.535.757-1.02t.819-.939q.422-.454.849-.881l3.882,1.7-.332.646-2.361-.128a.992.992,0,0,0-.173.014c-.066.011-.135.025-.2.042s-.134.036-.195.057a.752.752,0,0,0-.143.067,5,5,0,0,0-.81.566,8.91,8.91,0,0,0-.748.706,8.729,8.729,0,0,0-.617.726,4.477,4.477,0,0,0-.412.636,2.888,2.888,0,0,0-.328,1.076,2.5,2.5,0,0,0,.1.986,2.384,2.384,0,0,0,.468.833,2.557,2.557,0,0,0,.774.606,2.432,2.432,0,0,0,.732.249,1.888,1.888,0,0,0,.716-.029,2.661,2.661,0,0,0,.724-.292,4.992,4.992,0,0,0,.761-.555c.221-.195.43-.394.624-.6s.389-.41.58-.617.385-.41.581-.61.4-.394.623-.582a4.682,4.682,0,0,1,1.144-.729,4.089,4.089,0,0,1,2.441-.288,4.257,4.257,0,0,1,1.192.411,3.7,3.7,0,0,1,.969.712,3.987,3.987,0,0,1,.7.961,4.857,4.857,0,0,1,.416,1.147,4.918,4.918,0,0,1,.119,1.275,6.252,6.252,0,0,1-.2,1.344,6.409,6.409,0,0,1-.517,1.35q-.3.589-.646,1.138t-.7,1.035q-.36.486-.721.9t-.706.754l-3.472-1.786.333-.646,2.176.155a.881.881,0,0,0,.35-.052,2.534,2.534,0,0,0,.317-.13,2.569,2.569,0,0,0,.59-.411,6.182,6.182,0,0,0,.559-.578,6.832,6.832,0,0,0,.473-.624,5.362,5.362,0,0,0,.324-.535,2.642,2.642,0,0,0,.295-.953,2.209,2.209,0,0,0-.075-.874,2.056,2.056,0,0,0-.38-.721,1.9,1.9,0,0,0-.605-.495,3.117,3.117,0,0,0-.749-.275,2,2,0,0,0-.752-.02,2.33,2.33,0,0,0-.763.273,4.11,4.11,0,0,0-.8.6q-.3.283-.582.573l-.557.586q-.28.3-.586.6t-.675.611a5.59,5.59,0,0,1-.985.67,4.367,4.367,0,0,1-1.171.429,4.2,4.2,0,0,1-1.311.057,3.957,3.957,0,0,1-1.393-.435,4.416,4.416,0,0,1-1.351-1.086,4.092,4.092,0,0,1-.838-1.656,5.675,5.675,0,0,1-.085-2.185,8.314,8.314,0,0,1,.9-2.658" transform="translate(-47.417 -21.286)" fill="#2a2a2a"/>
        <path id="Trazado_874934" data-name="Trazado 874934" d="M323.1,265.9l-.427,2.03a1.023,1.023,0,0,0,.043.636.909.909,0,0,0,.426.449l14.715,7.86a.933.933,0,0,0,.624.112,1.025,1.025,0,0,0,.553-.318l1.436-1.491.844.451-4.75,8.892a14.348,14.348,0,0,1-1.277,1.958,12.069,12.069,0,0,1-1.765,1.857,10.992,10.992,0,0,1-2.236,1.473,8.3,8.3,0,0,1-2.7.8,10.2,10.2,0,0,1-3.165-.134,12.713,12.713,0,0,1-3.6-1.339A12.087,12.087,0,0,1,318,286.119a9.223,9.223,0,0,1-1.842-3.676,9.816,9.816,0,0,1-.08-4.042,13.994,13.994,0,0,1,1.458-4.11l4.72-8.838ZM319,275.193a6.03,6.03,0,0,0-.778,2.669,5.079,5.079,0,0,0,.568,2.481,7.735,7.735,0,0,0,1.833,2.276,15.832,15.832,0,0,0,3.024,2.043,14.851,14.851,0,0,0,3.777,1.449,9.429,9.429,0,0,0,3.341.184,6.365,6.365,0,0,0,2.729-1.031,6.019,6.019,0,0,0,1.932-2.186l1.02-1.909-16.058-8.576Z" transform="translate(-37.281 -31.326)" fill="#2a2a2a"/>
        <path id="Trazado_874935" data-name="Trazado 874935" d="M413.289,315.746,413.026,317a.632.632,0,0,0,.026.392.563.563,0,0,0,.264.278l9.08,4.85a.577.577,0,0,0,.385.069.634.634,0,0,0,.34-.2l.886-.92.52.278-2.931,5.487a8.97,8.97,0,0,1-.788,1.208,7.529,7.529,0,0,1-1.089,1.146,6.807,6.807,0,0,1-1.379.909,5.166,5.166,0,0,1-1.669.5,6.324,6.324,0,0,1-1.953-.083,7.846,7.846,0,0,1-2.224-.826,7.443,7.443,0,0,1-2.354-1.866,5.682,5.682,0,0,1-1.136-2.268,6.061,6.061,0,0,1-.049-2.494,8.644,8.644,0,0,1,.9-2.536l2.913-5.453Zm-2.535,5.732a3.729,3.729,0,0,0-.48,1.647,3.14,3.14,0,0,0,.351,1.531,4.77,4.77,0,0,0,1.131,1.4,9.748,9.748,0,0,0,1.866,1.26,9.157,9.157,0,0,0,2.33.894,5.826,5.826,0,0,0,2.062.114,3.934,3.934,0,0,0,1.684-.636,3.72,3.72,0,0,0,1.192-1.349l.629-1.177-9.907-5.292Z" transform="translate(-48.249 -37.228)" fill="#2a2a2a"/>
        <path id="Trazado_874936" data-name="Trazado 874936" d="M292.659,251l1.668.592a.876.876,0,0,0,.521.03.744.744,0,0,0,.449-.3l8.32-11.543a.777.777,0,0,0,.159-.528.845.845,0,0,0-.2-.49l-1.1-1.384.477-.661,12.021,8.664-2.784,3.862-.738-.531.772-2.923a1.02,1.02,0,0,0,.04-.375.45.45,0,0,0-.211-.325l-4.991-3.6-3.988,5.533,3.255,2.346a.513.513,0,0,0,.389.123.877.877,0,0,0,.336-.146l2.056-1.32.661.477-4.026,5.587-.661-.476.586-2.347a1.05,1.05,0,0,0,.042-.39.494.494,0,0,0-.235-.326l-3.255-2.345-3.847,5.338a.758.758,0,0,0-.153.523.861.861,0,0,0,.213.492l1.262,1.52-.477.661-7.041-5.075Z" transform="translate(-34.48 -27.934)" fill="#2a2a2a"/>
        <path id="Trazado_874937" data-name="Trazado 874937" d="M283.186,236.069a7.425,7.425,0,0,1-2.107-1.865,6.612,6.612,0,0,1-1.184-2.463,7.134,7.134,0,0,1-.087-2.859,8.652,8.652,0,0,1,1.169-3.058,8.408,8.408,0,0,1,2.093-2.395,7.3,7.3,0,0,1,2.588-1.289,6.972,6.972,0,0,1,2.829-.142,7.7,7.7,0,0,1,2.83,1.041q.806.482,1.445.945t1.136.9q.5.435.887.836t.7.759l-1.858,3.106-.632-.378.331-2.03a.591.591,0,0,0-.029-.316,2.226,2.226,0,0,0-.14-.3,4.3,4.3,0,0,0-.5-.691,8.28,8.28,0,0,0-.664-.678,9.712,9.712,0,0,0-.751-.617q-.393-.291-.759-.51a3.068,3.068,0,0,0-1.455-.429,3.818,3.818,0,0,0-1.677.328,6.1,6.1,0,0,0-1.745,1.17,9.4,9.4,0,0,0-1.652,2.1,12.792,12.792,0,0,0-1.146,2.425,7.3,7.3,0,0,0-.426,2.208,4.041,4.041,0,0,0,.369,1.839,3.05,3.05,0,0,0,1.231,1.321,4.159,4.159,0,0,0,.751.356,6.252,6.252,0,0,0,.731.213,4.758,4.758,0,0,0,.637.1,4.159,4.159,0,0,0,.467.019l1.656-2.767a.609.609,0,0,0,.1-.409.748.748,0,0,0-.2-.389l-1.071-1.1.334-.558,5.883,3.52-.334.558-1.367-.357a.685.685,0,0,0-.434.008.618.618,0,0,0-.319.275l-.845,1.411-.762,1.274c-.212.355-.382.651-.508.89a11.932,11.932,0,0,1-1.266-.265q-.684-.179-1.409-.432t-1.446-.586a14.536,14.536,0,0,1-1.382-.728" transform="translate(-33.008 -26.189)" fill="#2a2a2a"/>
        <path id="Trazado_874938" data-name="Trazado 874938" d="M341.742,293.108a5.28,5.28,0,0,1-.875-1.8,4.7,4.7,0,0,1-.1-1.941,5.062,5.062,0,0,1,.723-1.9,6.168,6.168,0,0,1,1.6-1.689,5.972,5.972,0,0,1,2.029-1,5.192,5.192,0,0,1,2.051-.138,4.947,4.947,0,0,1,1.9.679,5.488,5.488,0,0,1,1.575,1.456q.4.538.691,1.016t.5.9c.138.28.258.545.355.791s.181.475.251.689l-2.07,1.533-.312-.422.772-1.243a.423.423,0,0,0,.068-.215,1.636,1.636,0,0,0-.011-.233,3.107,3.107,0,0,0-.14-.591,5.66,5.66,0,0,0-.251-.627,6.631,6.631,0,0,0-.325-.61,6.34,6.34,0,0,0-.359-.542,2.179,2.179,0,0,0-.838-.679,2.716,2.716,0,0,0-1.192-.243,4.363,4.363,0,0,0-1.466.292,6.7,6.7,0,0,0-1.66.931,9.1,9.1,0,0,0-1.416,1.28,5.172,5.172,0,0,0-.883,1.334,2.873,2.873,0,0,0-.26,1.308,2.177,2.177,0,0,0,.447,1.2,3.106,3.106,0,0,0,.4.439,4.39,4.39,0,0,0,.422.34,3.451,3.451,0,0,0,.391.24,3.177,3.177,0,0,0,.3.14l1.843-1.365a.426.426,0,0,0,.175-.243.536.536,0,0,0-.026-.31l-.4-1.016.372-.276,2.9,3.92-.372.276-.8-.609a.493.493,0,0,0-.288-.114.444.444,0,0,0-.285.093l-.94.7-.848.628q-.355.262-.577.446a8.676,8.676,0,0,1-.759-.52q-.4-.3-.807-.669t-.79-.78a10.43,10.43,0,0,1-.709-.856" transform="translate(-40.207 -33.585)" fill="#2a2a2a"/>
        <path id="Trazado_874939" data-name="Trazado 874939" d="M300.4,308.724l.073,2.074a1.1,1.1,0,0,0,.2.592.865.865,0,0,0,.519.348l16.171,4.1a.887.887,0,0,0,.638-.056,1.1,1.1,0,0,0,.456-.426l1.036-1.792.927.235L317.98,323.4l-.927-.235-.062-2.054a1.127,1.127,0,0,0-.2-.6.874.874,0,0,0-.523-.359l-6.809-1.724-2.179,8.6,6.809,1.724a.893.893,0,0,0,.638-.056,1.107,1.107,0,0,0,.456-.427l1.035-1.791.928.235-2.433,9.606-.927-.235-.058-2.068a.977.977,0,0,0-.2-.593.925.925,0,0,0-.534-.354l-16.172-4.1a.855.855,0,0,0-.63.059,1.126,1.126,0,0,0-.447.428l-1.051,1.788-.927-.235,2.433-9.606.927.235.074,2.073a1.1,1.1,0,0,0,.2.593.864.864,0,0,0,.518.348l7.661,1.941,2.179-8.6-7.661-1.94a.839.839,0,0,0-.632.066,1.181,1.181,0,0,0-.45.437l-1.048,1.773-.927-.235,2.433-9.606Z" transform="translate(-34.667 -36.405)" fill="#2a2a2a"/>
        <path id="Trazado_874940" data-name="Trazado 874940" d="M254.114,235.628a6.416,6.416,0,0,1-.625-.313c-.243-.136-.493-.289-.751-.46s-.5-.349-.735-.537a4.071,4.071,0,0,1-.587-.569l2.031-2.94.506.212q.287.409.652.878t.773.893a9.531,9.531,0,0,0,.84.776,3.536,3.536,0,0,0,.85.527.985.985,0,0,0,.616.071.958.958,0,0,0,.528-.408,7.293,7.293,0,0,0,.5-.817q.265-.493.58-1.143t.661-1.457q.347-.806.746-1.761l6.319-15.082a.912.912,0,0,0,.041-.646.989.989,0,0,0-.357-.507l-1.792-1.363.37-.882,9.328,3.909-.37.882-2.054-.25a1.073,1.073,0,0,0-.618.116.89.89,0,0,0-.426.467l-6.356,15.169a10.676,10.676,0,0,1-2.039,3.243,8.448,8.448,0,0,1-2.657,1.938,7.253,7.253,0,0,1-2.978.656,7.591,7.591,0,0,1-3-.6" transform="translate(-29.67 -24.794)" fill="#2a2a2a"/>
        <path id="Trazado_874941" data-name="Trazado 874941" d="M302.788,266.563l1.037.29a.551.551,0,0,0,.327,0,.464.464,0,0,0,.251-.2l4.576-7.355a.465.465,0,0,0,.072-.325.584.584,0,0,0-.139-.293l-.723-.795.263-.422,4.368,2.718-.262.422-1.027-.294a.549.549,0,0,0-.324.005.46.46,0,0,0-.266.2l-2.339,3.76,6.21-1.736-.658-.946.262-.422,3.242,2.017-.262.422-1.188-.2a2.085,2.085,0,0,0-.457-.021,2.911,2.911,0,0,0-.515.088l-4.156,1.009.531,6.467c.006.094.016.187.03.282a2.2,2.2,0,0,0,.057.271,1.612,1.612,0,0,0,.089.243.764.764,0,0,0,.133.2l.586.661-.263.422-4.327-2.692.262-.422,1.2.371-.408-5.355-.935.253-1.669,2.682a.44.44,0,0,0-.064.328.564.564,0,0,0,.143.286l.7.789-.263.422-4.354-2.709Z" transform="translate(-35.701 -30.383)" fill="#2a2a2a"/>
        <path id="Trazado_874942" data-name="Trazado 874942" d="M309.411,205.778l.813.2a.411.411,0,0,0,.258-.008.365.365,0,0,0,.187-.166l3.383-5.826a.375.375,0,0,0,.05-.257.4.4,0,0,0-.116-.221l-.581-.6.194-.334,3.5,2.032-.193.334-.843-.226a.433.433,0,0,0-.259.011.364.364,0,0,0-.195.165l-3.529,6.08,2.629,1.526a.168.168,0,0,0,.11.024.384.384,0,0,0,.111-.034.433.433,0,0,0,.1-.066q.045-.04.082-.077l1.31-1.172.367.213-1.361,2.344-6.21-3.606Z" transform="translate(-36.491 -23.433)" fill="#2a2a2a"/>
        <path id="Trazado_874943" data-name="Trazado 874943" d="M325.851,297.227l7.379,10.949.624,1,2.02-5.1a.372.372,0,0,0,.014-.306.691.691,0,0,0-.181-.222l-1.75-1.573.247-.623,3.4,1.347-3.993,10.072-.706-.28-7.419-11.008-.619-.987-2.355,5.941a.351.351,0,0,0-.012.29.68.68,0,0,0,.187.22l1.935,1.648-.254.64-3.592-1.424,4.316-10.889Z" transform="translate(-37.855 -35.04)" fill="#2a2a2a"/>
        <path id="Trazado_874944" data-name="Trazado 874944" d="M345.7,310.765l.9,1.011a2.477,2.477,0,0,0,.574.482,3.489,3.489,0,0,0,.618.3l7.525,2.912,5.876-6.907a2.8,2.8,0,0,0,.339-.518,1.365,1.365,0,0,0,.176-.553l.069-1.354.779-.232,2.366,7.938-.779.232-1.2-2.019-3.378,3.911-1.214,1.335,6.658,2.337.127-2.233.778-.233,1.671,5.6-.779.232-.875-.976a2.6,2.6,0,0,0-.569-.462,3.446,3.446,0,0,0-.636-.318l-7.305-2.783-6.008,7.071a2.723,2.723,0,0,0-.33.5,1.473,1.473,0,0,0-.176.553l-.081,1.358-.779.232-2.366-7.938.779-.232,1.2,2.031,3.523-4.079,1.218-1.322-6.886-2.449-.146,2.17-.778.232-1.671-5.6Z" transform="translate(-40.704 -36.1)" fill="#2a2a2a"/>
        <path id="Trazado_874945" data-name="Trazado 874945" d="M282.108,290.566a12.309,12.309,0,0,1-1.448-4.513,9.829,9.829,0,0,1,.468-4.276,10.818,10.818,0,0,1,2.328-3.806,15.341,15.341,0,0,1,4.125-3.1,14.625,14.625,0,0,1,3.23-1.276,12.863,12.863,0,0,1,3.172-.423,11.307,11.307,0,0,1,2.991.38,10.613,10.613,0,0,1,5,2.987,11.5,11.5,0,0,1,1.8,2.517,16.981,16.981,0,0,1,.787,1.729q.394.991.729,2.022t.58,1.994a15.937,15.937,0,0,1,.337,1.649l-5.08,2.709-.538-1.01,2.043-2.522a1.4,1.4,0,0,0,.248-.481,2.836,2.836,0,0,0,.072-.483,10.517,10.517,0,0,0-.207-2.367,8.362,8.362,0,0,0-.824-2.253,4.976,4.976,0,0,0-1.727-1.9,5.522,5.522,0,0,0-2.544-.811,9.8,9.8,0,0,0-3.254.34,17.773,17.773,0,0,0-3.86,1.566,17.238,17.238,0,0,0-3.569,2.455,8.892,8.892,0,0,0-2.109,2.78,6.284,6.284,0,0,0-.589,3.053,7.882,7.882,0,0,0,.983,3.26,7.709,7.709,0,0,0,1.282,1.8,8.191,8.191,0,0,0,1.414,1.163,7.773,7.773,0,0,0,1.432.727q.714.267,1.34.495l.346.649-1.643.876a16.094,16.094,0,0,1-1.865-.864,15.909,15.909,0,0,1-2.029-1.3,15.248,15.248,0,0,1-1.913-1.7,9.388,9.388,0,0,1-1.5-2.074" transform="translate(-33.114 -32.237)" fill="#2a2a2a"/>
        <path id="Trazado_874946" data-name="Trazado 874946" d="M348.837,163.09a6.6,6.6,0,0,1-2.523.4,5.291,5.291,0,0,1-2.238-.6,5.833,5.833,0,0,1-1.833-1.554,8.275,8.275,0,0,1-1.308-2.454,7.853,7.853,0,0,1-.411-1.825,6.91,6.91,0,0,1,.038-1.723,6.109,6.109,0,0,1,.45-1.561,5.721,5.721,0,0,1,2.006-2.413,6.213,6.213,0,0,1,1.489-.748,9.193,9.193,0,0,1,.985-.275q.561-.127,1.137-.221t1.11-.143a8.527,8.527,0,0,1,.907-.042l1.02,2.929-.582.2-1.172-1.3a.752.752,0,0,0-.235-.171,1.473,1.473,0,0,0-.251-.078,5.643,5.643,0,0,0-1.277-.086,4.521,4.521,0,0,0-1.267.251,2.682,2.682,0,0,0-1.153.762,2.975,2.975,0,0,0-.643,1.287,5.3,5.3,0,0,0-.089,1.76,9.587,9.587,0,0,0,.513,2.185,9.265,9.265,0,0,0,1.011,2.1,4.788,4.788,0,0,0,1.3,1.354,3.4,3.4,0,0,0,1.576.567,4.263,4.263,0,0,0,1.817-.253,4.169,4.169,0,0,0,1.067-.533,4.387,4.387,0,0,0,.736-.656,4.2,4.2,0,0,0,.505-.7q.2-.359.375-.672l.374-.131.33.948a8.828,8.828,0,0,1-.615.921,8.649,8.649,0,0,1-.86.972,8.244,8.244,0,0,1-1.064.877,5.07,5.07,0,0,1-1.229.628" transform="translate(-40.181 -17.692)" fill="#2a2a2a"/>
        <path id="Trazado_874947" data-name="Trazado 874947" d="M346.917,205.638a1.5,1.5,0,0,0,.038-.478.993.993,0,0,0-.167-.474l-.662-.982.417-.557,5.583,4.181-.417.557-1.865-.783-2.625,9.713-.485,1.677,9.748-6.221-1.126-1.656.417-.557,4.039,3.023-.417.557-1.178-.255a1.349,1.349,0,0,0-.95.145l-10.5,6.483-2.594,1.294-1.243-.93Z" transform="translate(-40.469 -23.973)" fill="#2a2a2a"/>
        <path id="Trazado_874948" data-name="Trazado 874948" d="M372.015,365.86a.869.869,0,0,0,.021-.268.567.567,0,0,0-.094-.266l-.373-.55.236-.313,3.134,2.347-.234.312-1.048-.439-1.473,5.452-.273.942,5.472-3.493-.632-.93.236-.313,2.266,1.7-.235.313-.66-.144a.745.745,0,0,0-.28-.008.725.725,0,0,0-.255.09l-5.9,3.639-1.456.727-.7-.522Z" transform="translate(-43.637 -43.01)" fill="#2a2a2a"/>
        <path id="Trazado_874949" data-name="Trazado 874949" d="M352.025,260.592l-.053,2.074a1.019,1.019,0,0,0,.157.617.914.914,0,0,0,.5.365l15.894,5.069a.933.933,0,0,0,.635,0,1.022,1.022,0,0,0,.486-.413l1.142-1.726.911.291-2.8,8.768a17.084,17.084,0,0,1-1.62,3.763,7.3,7.3,0,0,1-1.775,2.059,3.528,3.528,0,0,1-1.84.738,4.768,4.768,0,0,1-1.808-.214,4.914,4.914,0,0,1-1.685-.908A4.973,4.973,0,0,1,359,279.655a6.043,6.043,0,0,1-.644-1.85,9.355,9.355,0,0,1-.125-2.213,10.5,10.5,0,0,1-1.259,2.347,6.568,6.568,0,0,1-1.621,1.6,4.7,4.7,0,0,1-1.911.756,4.568,4.568,0,0,1-2.112-.189,5.85,5.85,0,0,1-1.962-1.02,5.133,5.133,0,0,1-1.242-1.475,5.745,5.745,0,0,1-.631-1.814,9.659,9.659,0,0,1-.131-2.041,13.161,13.161,0,0,1,.267-2.153,20.854,20.854,0,0,1,.559-2.142l2.921-9.157Zm7.921,11.233a7.225,7.225,0,0,0-.385,2.033,3.323,3.323,0,0,0,.288,1.5,2.761,2.761,0,0,0,.881,1.055,4.9,4.9,0,0,0,1.417.691,4.554,4.554,0,0,0,3.433.049,4.04,4.04,0,0,0,1.875-2.553l.448-1.4-7.618-2.43Zm-10.2-1.608a4.367,4.367,0,0,0-.033,3.2,4.037,4.037,0,0,0,2.633,1.91,6.935,6.935,0,0,0,2.11.377,3.228,3.228,0,0,0,1.609-.4,3.509,3.509,0,0,0,1.2-1.188,8.418,8.418,0,0,0,.885-1.973l.6-1.867-8.186-2.611Z" transform="translate(-40.992 -30.718)" fill="#2a2a2a"/>
        <path id="Trazado_874950" data-name="Trazado 874950" d="M307.275,354.493l1.453.627-4.148-6.608a.468.468,0,0,0-.25-.207.649.649,0,0,0-.353,0l-1.1.264-.274-.437,3.469-2.178.274.438-.717.879a.657.657,0,0,0-.138.312.454.454,0,0,0,.068.322l4.742,7.553a.464.464,0,0,0,.273.213.569.569,0,0,0,.328,0l1.167-.323.274.437-3.139,1.97-8.195-3.487-1.289-.559,3.77,6.005a.471.471,0,0,0,.252.212.67.67,0,0,0,.35,0l1.1-.264.274.438-3.476,2.182-.274-.437.716-.88a.761.761,0,0,0,.146-.316.439.439,0,0,0-.068-.323l-4.436-7.066-.86-1.849,1.132-.711Z" transform="translate(-35.074 -40.826)" fill="#2a2a2a"/>
        <path id="Trazado_874951" data-name="Trazado 874951" d="M352.43,335.893l-.44.954a.61.61,0,0,0-.052.312.418.418,0,0,0,.135.273l6.022,5.7a.445.445,0,0,0,.3.131.514.514,0,0,0,.3-.074l.89-.529.347.329-2.76,2.914-5.949-2.6-1.539-.7,3.681,7.32-2.739,2.892-.347-.329.48-.917a.521.521,0,0,0,.057-.312.456.456,0,0,0-.146-.279l-6.057-5.736a.445.445,0,0,0-.287-.131.541.541,0,0,0-.3.08l-.9.524-.347-.329,3.413-3.6.347.329-.474.923a.521.521,0,0,0-.061.309.436.436,0,0,0,.143.276l5.795,5.489-.719-1.34-2.849-5.678-.743-1.827.565-.6,7.566,3.3,1.409.655-5.777-5.472a.41.41,0,0,0-.281-.126.708.708,0,0,0-.31.075l-.929.491-.348-.329,2.555-2.7Z" transform="translate(-40.451 -39.6)" fill="#2a2a2a"/>
        <path id="Trazado_874952" data-name="Trazado 874952" d="M266.115,274.949a10.719,10.719,0,0,0-2.956-.627c-4.541-.315-7.413,3.576-5.572,7.661,1.6,3.547,5.108,5.952,6.588,9.526a6.832,6.832,0,0,0,5.062,4.1,3.929,3.929,0,0,0,4.174-2.7,16.441,16.441,0,0,0,.545-7.3,12.622,12.622,0,0,0-7.841-10.654" transform="translate(-30.331 -32.371)" fill="#2a2a2a"/>
        <path id="Trazado_874953" data-name="Trazado 874953" d="M273.956,318.064a7.042,7.042,0,0,0,1.514-1.263c1.992-2.2,1.155-5.245-1.683-5.949-2.464-.61-5.114.22-7.545-.462a4.457,4.457,0,0,0-4.144.944,2.564,2.564,0,0,0-.3,3.232,10.728,10.728,0,0,0,3.525,3.224,8.236,8.236,0,0,0,8.628.275" transform="translate(-30.844 -36.611)" fill="#2a2a2a"/>
        <path id="Trazado_874954" data-name="Trazado 874954" d="M58.969,0S43.659,4.144,39.157,9.8L59.519,22.924,44.485,17.43l22.9,17.293L48.051,27.66S64.674,46.573,63.06,64.316s12.291,37.431,26.6,51.585L60.963,98.924s.84,46.563,46.673,54.384l-17.844-.028s8.333,10.507,30.785,11.249l-17,4.337,11.51,10.7,11.331.083L118.334,184s14.647,22.1,29.965,24.6c15.965-37.03,5.158-80.744,5.158-80.744l-12.391,11.7,10.974-21.147s-5.686-28.858-26.6-64.9c-.951,24.809-5.4,36.981-5.4,36.981s2.658-33.925-4.873-48.85C98.676,11.263,58.969,0,58.969,0" transform="translate(-4.621 0)" fill="#c4bdb7"/>
        <path id="Trazado_874955" data-name="Trazado 874955" d="M157.885,239.509s2.25-103.847-81.388-214.75c77.194,108.548,71.734,205.664,71.734,205.664Z" transform="translate(-9.027 -2.922)" fill="#2a2a2a"/>
        <path id="Trazado_874956" data-name="Trazado 874956" d="M59.806,47.115a163.29,163.29,0,0,1,26.359,11.6" transform="translate(-7.058 -5.56)" fill="none" stroke="#2a2a2a" stroke-linecap="round" stroke-linejoin="round" stroke-width="1"/>
        <path id="Trazado_874957" data-name="Trazado 874957" d="M63.536,55.491s11.693,3.955,19.859,9.233" transform="translate(-7.498 -6.549)" fill="none" stroke="#2a2a2a" stroke-linecap="round" stroke-linejoin="round" stroke-width="1"/>
        <path id="Trazado_874958" data-name="Trazado 874958" d="M114.2,32.254a126.318,126.318,0,0,1-2.841,26.391" transform="translate(-13.142 -3.806)" fill="none" stroke="#2a2a2a" stroke-linecap="round" stroke-linejoin="round" stroke-width="1"/>
        <path id="Trazado_874959" data-name="Trazado 874959" d="M153.874,97.463s-3.029,14.354-9.611,26.3" transform="translate(-17.025 -11.502)" fill="none" stroke="#2a2a2a" stroke-linecap="round" stroke-linejoin="round" stroke-width="1"/>
        <path id="Trazado_874960" data-name="Trazado 874960" d="M150.99,90.053a117.445,117.445,0,0,1-7.469,20.44" transform="translate(-16.937 -10.627)" fill="none" stroke="#2a2a2a" stroke-linecap="round" stroke-linejoin="round" stroke-width="1"/>
        <path id="Trazado_874961" data-name="Trazado 874961" d="M73.009,143.86s11.12,11.444,36.422,18.165" transform="translate(-8.616 -16.977)" fill="none" stroke="#2a2a2a" stroke-linecap="round" stroke-linejoin="round" stroke-width="1"/>
        <line id="Línea_254" data-name="Línea 254" y1="3.704" x2="8.106" transform="translate(117.92 185.918)" fill="none" stroke="#2a2a2a" stroke-linecap="round" stroke-linejoin="round" stroke-width="1"/>
        <path id="Trazado_874962" data-name="Trazado 874962" d="M171.63,173a36.373,36.373,0,0,1-6.594,15.923" transform="translate(-19.476 -20.416)" fill="none" stroke="#2a2a2a" stroke-linecap="round" stroke-linejoin="round" stroke-width="1"/>
        <path id="Trazado_874963" data-name="Trazado 874963" d="M69.53,93.109s12.586,9.739,35.86,18.244" transform="translate(-8.205 -10.988)" fill="none" stroke="#2a2a2a" stroke-linecap="round" stroke-linejoin="round" stroke-width="1"/>
      </g>
    </g>
  </g>
</svg>
