<svg xmlns="http://www.w3.org/2000/svg" xmlns:xlink="http://www.w3.org/1999/xlink" width="1328" height="410" viewBox="0 0 1328 410">
  <defs>
    <linearGradient id="linear-gradient" x1="0.541" y1="0.874" x2="0.54" y2="0.417" gradientUnits="objectBoundingBox">
      <stop offset="0" stop-color="#fce6ce"/>
      <stop offset="1" stop-color="#fce6ce" stop-opacity="0"/>
    </linearGradient>
    <clipPath id="clip-path">
      <rect id="Rectángulo_400988" data-name="Rectángulo 400988" width="1328" height="241.001" transform="translate(0 -125)" fill="url(#linear-gradient)"/>
    </clipPath>
    <filter id="Rectángulo_401704" x="143" y="0" width="1048" height="410" filterUnits="userSpaceOnUse">
      <feOffset dx="3" dy="3" input="SourceAlpha"/>
      <feGaussianBlur stdDeviation="3" result="blur"/>
      <feFlood flood-opacity="0.161"/>
      <feComposite operator="in" in2="blur"/>
      <feComposite in="SourceGraphic"/>
    </filter>
    <clipPath id="clip-path-2">
      <rect id="Rectángulo_401622" data-name="Rectángulo 401622" width="895.271" height="302.075" fill="none"/>
    </clipPath>
  </defs>
  <g id="Grupo_1099715" data-name="Grupo 1099715" transform="translate(-136 -1874)">
    <g id="Grupo_1099714" data-name="Grupo 1099714">
      <g id="Grupo_1099713" data-name="Grupo 1099713">
        <g id="Grupo_1099712" data-name="Grupo 1099712">
          <g id="Enmascarar_grupo_1098654" data-name="Enmascarar grupo 1098654" transform="translate(136 2033)" clip-path="url(#clip-path)">
            <path id="Trazado_873079" data-name="Trazado 873079" d="M1328.964,317.5s-55.921-15.76-127.914-22.036c-73.237-6.276-146.123-11.852-213.535-10.338-68.656.853-175.528,6.721-244.633,14.752s-252.925,27.1-309.592,32.336c-56.666,4.578-110.427,8.948-218.75,6.475S18.519,329.513,0,322.317V20.655S81.51,8.7,135.446,4.469C188.139.242,338.077-1.077,466.461,11.091,572.106,21.2,724.394,41.011,818.422,48.462c13.649,1.082,250.905,6.053,314.9,1.256,62.756-4.8,170.13-18.716,190.8-23.949C1324.127,33.406,1328.964,317.5,1328.964,317.5Z" transform="translate(-0.581 -223.628)" fill-rule="evenodd" fill="url(#linear-gradient)"/>
          </g>
          <g transform="matrix(1, 0, 0, 1, 136, 1874)" filter="url(#Rectángulo_401704)">
            <g id="Rectángulo_401704-2" data-name="Rectángulo 401704" transform="translate(149 6)" fill="#fff" stroke="#fff" stroke-width="4">
              <rect width="1030" height="392" rx="24" stroke="none"/>
              <rect x="2" y="2" width="1026" height="388" rx="22" fill="none"/>
            </g>
          </g>
          <g id="Grupo_1099677" data-name="Grupo 1099677">
            <g id="Grupo_1099676" data-name="Grupo 1099676" transform="translate(352 1916)">
              <g id="Grupo_1099675" data-name="Grupo 1099675" clip-path="url(#clip-path-2)">
                <rect id="Rectángulo_401616" data-name="Rectángulo 401616" width="161.25" height="43" rx="3.225" transform="translate(366.038 0.538)" fill="#413253"/>
                <rect id="Rectángulo_401617" data-name="Rectángulo 401617" width="161.25" height="43" rx="3.225" transform="translate(366.038 0.538)" fill="none" stroke="#282c33" stroke-width="1.075"/>
                <rect id="Rectángulo_401618" data-name="Rectángulo 401618" width="161.25" height="43" rx="3.225" transform="translate(366.038 97.288)" fill="#872141"/>
                <rect id="Rectángulo_401619" data-name="Rectángulo 401619" width="161.25" height="43" rx="3.225" transform="translate(366.038 97.288)" fill="none" stroke="#413253" stroke-width="1.075"/>
                <path id="Trazado_874964" data-name="Trazado 874964" d="M366.038,186.513a3.224,3.224,0,0,1,3.224-3.225h154.8a3.224,3.224,0,0,1,3.224,3.225v36.55a3.224,3.224,0,0,1-3.224,3.225h-154.8a3.224,3.224,0,0,1-3.224-3.225Zm0,75.25a3.224,3.224,0,0,1,3.224-3.225h154.8a3.224,3.224,0,0,1,3.224,3.225v36.55a3.224,3.224,0,0,1-3.224,3.225h-154.8a3.224,3.224,0,0,1-3.224-3.225Z" fill="#ebc0cc"/>
                <path id="Trazado_874965" data-name="Trazado 874965" d="M366.038,186.513a3.224,3.224,0,0,1,3.224-3.225h154.8a3.224,3.224,0,0,1,3.224,3.225v36.55a3.224,3.224,0,0,1-3.224,3.225h-154.8a3.224,3.224,0,0,1-3.224-3.225Zm0,75.25a3.224,3.224,0,0,1,3.224-3.225h154.8a3.224,3.224,0,0,1,3.224,3.225v36.55a3.224,3.224,0,0,1-3.224,3.225h-154.8a3.224,3.224,0,0,1-3.224-3.225Z" fill="none" stroke="#872141" stroke-width="1.075"/>
                <path id="Trazado_874985" data-name="Trazado 874985" d="M0,0V15.725" transform="translate(446.663 81.075)" fill="none" stroke="#5e5e5e" stroke-width="1.075"/>
                <path id="Trazado_874966" data-name="Trazado 874966" d="M447.184,87.091h-1.043v-.554h1.043Zm0,9.659h-1.043V96.2h1.043Z" fill="#5e5e5e"/>
                <path id="Trazado_874967" data-name="Trazado 874967" d="M447.184,87.091h-1.043v-.554h1.043Zm0,9.659h-1.043V96.2h1.043Z" fill="none" stroke="#5e5e5e" stroke-width="0.027"/>
                <line id="Línea_256" data-name="Línea 256" y2="19.887" transform="translate(446.663 43.613)" fill="none" stroke="#5e5e5e" stroke-width="1.075"/>
                <path id="Trazado_874968" data-name="Trazado 874968" d="M447.184,44.629h-1.043v-.554h1.043Zm0,20.408h-1.043v-.554h1.043Z" fill="#5e5e5e"/>
                <path id="Trazado_874969" data-name="Trazado 874969" d="M447.184,44.629h-1.043v-.554h1.043Zm0,20.408h-1.043v-.554h1.043Z" fill="none" stroke="#5e5e5e" stroke-width="0.027"/>
                <path id="Trazado_874970" data-name="Trazado 874970" d="M1.6,186.513a3.225,3.225,0,0,1,3.225-3.225h154.8a3.225,3.225,0,0,1,3.225,3.225v36.55a3.225,3.225,0,0,1-3.225,3.225H4.821A3.225,3.225,0,0,1,1.6,223.063Zm731.887,0a3.225,3.225,0,0,1,3.225-3.225h154.8a3.225,3.225,0,0,1,3.225,3.225v36.55a3.225,3.225,0,0,1-3.225,3.225h-154.8a3.225,3.225,0,0,1-3.225-3.225ZM.537,261.763a3.225,3.225,0,0,1,3.225-3.225h154.8a3.225,3.225,0,0,1,3.225,3.225v36.55a3.225,3.225,0,0,1-3.225,3.225H3.762a3.225,3.225,0,0,1-3.225-3.225Zm732.946-.9a3.225,3.225,0,0,1,3.225-3.225h154.8a3.225,3.225,0,0,1,3.225,3.225v36.55a3.225,3.225,0,0,1-3.225,3.225h-154.8a3.225,3.225,0,0,1-3.225-3.225Z" fill="#ebc0cc"/>
                <path id="Trazado_874971" data-name="Trazado 874971" d="M1.6,186.513a3.225,3.225,0,0,1,3.225-3.225h154.8a3.225,3.225,0,0,1,3.225,3.225v36.55a3.225,3.225,0,0,1-3.225,3.225H4.821A3.225,3.225,0,0,1,1.6,223.063Zm731.887,0a3.225,3.225,0,0,1,3.225-3.225h154.8a3.225,3.225,0,0,1,3.225,3.225v36.55a3.225,3.225,0,0,1-3.225,3.225h-154.8a3.225,3.225,0,0,1-3.225-3.225ZM.537,261.763a3.225,3.225,0,0,1,3.225-3.225h154.8a3.225,3.225,0,0,1,3.225,3.225v36.55a3.225,3.225,0,0,1-3.225,3.225H3.762a3.225,3.225,0,0,1-3.225-3.225Zm732.946-.9a3.225,3.225,0,0,1,3.225-3.225h154.8a3.225,3.225,0,0,1,3.225,3.225v36.55a3.225,3.225,0,0,1-3.225,3.225h-154.8a3.225,3.225,0,0,1-3.225-3.225Z" fill="none" stroke="#872141" stroke-width="1.075"/>
                <path id="Trazado_874972" data-name="Trazado 874972" d="M82.216,182.213v-17.2a3.225,3.225,0,0,1,3.225-3.225h358a3.225,3.225,0,0,0,3.226-3.225v-17.2" fill="none" stroke="#5e5e5e" stroke-width="1.075"/>
                <path id="Trazado_874973" data-name="Trazado 874973" d="M82.743,182.75H81.7V182.2h1.043Zm364.441-41.371h-1.043v-.554h1.043Z" fill="#5e5e5e"/>
                <path id="Trazado_874974" data-name="Trazado 874974" d="M82.743,182.75H81.7V182.2h1.043Zm364.441-41.371h-1.043v-.554h1.043Z" fill="none" stroke="#5e5e5e" stroke-width="0.027"/>
                <path id="Trazado_874975" data-name="Trazado 874975" d="M814.108,182.213v-17.2a3.225,3.225,0,0,0-3.225-3.225h-361a3.225,3.225,0,0,1-3.225-3.225v-17.2" fill="none" stroke="#5e5e5e" stroke-width="1.075"/>
                <path id="Trazado_874976" data-name="Trazado 874976" d="M814.635,182.75h-1.054V182.2h1.049ZM447.184,141.379h-1.043v-.554h1.043Z" fill="#5e5e5e"/>
                <path id="Trazado_874977" data-name="Trazado 874977" d="M814.635,182.75h-1.054V182.2h1.049ZM447.184,141.379h-1.043v-.554h1.043Z" fill="none" stroke="#5e5e5e" stroke-width="0.027"/>
                <line id="Línea_257" data-name="Línea 257" y1="37.233" transform="translate(446.663 144.98)" fill="none" stroke="#5e5e5e" stroke-width="1.075"/>
                <rect id="Rectángulo_401620" data-name="Rectángulo 401620" width="1.043" height="0.554" transform="translate(446.141 182.196)" fill="#5e5e5e"/>
                <rect id="Rectángulo_401621" data-name="Rectángulo 401621" width="1.043" height="0.554" transform="translate(446.141 182.196)" fill="none" stroke="#5e5e5e" stroke-width="0.027"/>
                <path id="Trazado_874978" data-name="Trazado 874978" d="M446.663,145v-.554m0,82.92v30.1" fill="none" stroke="#5e5e5e" stroke-width="1.075"/>
                <path id="Trazado_874979" data-name="Trazado 874979" d="M447.184,227.379h-1.043v-.554h1.043Zm0,30.621h-1.043v-.554h1.043Z" fill="#5e5e5e"/>
                <path id="Trazado_874980" data-name="Trazado 874980" d="M447.184,227.379h-1.043v-.554h1.043Zm0,30.621h-1.043v-.554h1.043Z" fill="none" stroke="#5e5e5e" stroke-width="0.027"/>
                <line id="Línea_258" data-name="Línea 258" y2="29.202" transform="translate(814.108 227.363)" fill="none" stroke="#5e5e5e" stroke-width="1.075"/>
                <path id="Trazado_874981" data-name="Trazado 874981" d="M814.635,227.378h-1.054v-.553h1.049Zm0,29.724h-1.054v-.548h1.049Z" fill="#5e5e5e"/>
                <path id="Trazado_874982" data-name="Trazado 874982" d="M814.635,227.378h-1.054v-.553h1.049Zm0,29.724h-1.054v-.548h1.049Z" fill="none" stroke="#5e5e5e" stroke-width="0.027"/>
                <line id="Línea_259" data-name="Línea 259" y2="30.1" transform="translate(82.216 227.363)" fill="none" stroke="#5e5e5e" stroke-width="1.075"/>
                <path id="Trazado_874983" data-name="Trazado 874983" d="M82.743,227.379H81.7v-.554h1.043Zm0,30.621H81.7v-.554h1.043Z" fill="#5e5e5e"/>
                <path id="Trazado_874984" data-name="Trazado 874984" d="M82.743,227.379H81.7v-.554h1.043Zm0,30.621H81.7v-.554h1.043Z" fill="none" stroke="#5e5e5e" stroke-width="0.027"/>
              </g>
            </g>
            <path id="Trazado_875138" data-name="Trazado 875138" d="M51.368,12.235h4.666V14H49.171V3.336h2.2ZM61.747,14a2.351,2.351,0,0,1-.212-.71,2.561,2.561,0,0,1-2,.857,2.814,2.814,0,0,1-1.93-.674,2.167,2.167,0,0,1-.765-1.7,2.24,2.24,0,0,1,.934-1.934,4.608,4.608,0,0,1,2.7-.681h.974V8.7a1.306,1.306,0,0,0-.282-.879,1.109,1.109,0,0,0-.89-.33,1.261,1.261,0,0,0-.839.256.871.871,0,0,0-.3.7H57.015a2.126,2.126,0,0,1,.425-1.274,2.808,2.808,0,0,1,1.2-.919,4.378,4.378,0,0,1,1.743-.333,3.459,3.459,0,0,1,2.325.736,2.575,2.575,0,0,1,.861,2.069v3.435a3.789,3.789,0,0,0,.315,1.707V14ZM60,12.528a1.823,1.823,0,0,0,.864-.209,1.371,1.371,0,0,0,.586-.56V10.4h-.791q-1.589,0-1.692,1.1l-.007.125a.847.847,0,0,0,.278.652A1.081,1.081,0,0,0,60,12.528ZM71.166,14H69.042V2.75h2.124Zm5.391.146a3.89,3.89,0,0,1-2.838-1.069,3.8,3.8,0,0,1-1.095-2.849v-.205a4.787,4.787,0,0,1,.461-2.135,3.386,3.386,0,0,1,1.307-1.45,3.669,3.669,0,0,1,1.93-.509,3.289,3.289,0,0,1,2.56,1.025,4.167,4.167,0,0,1,.934,2.908v.864H74.769a1.966,1.966,0,0,0,.619,1.245,1.871,1.871,0,0,0,1.307.469,2.285,2.285,0,0,0,1.912-.886l1.04,1.165a3.178,3.178,0,0,1-1.289,1.051A4.229,4.229,0,0,1,76.556,14.146Zm-.242-6.511a1.323,1.323,0,0,0-1.022.427,2.209,2.209,0,0,0-.5,1.221h2.944V9.114a1.576,1.576,0,0,0-.381-1.092A1.365,1.365,0,0,0,76.314,7.635Zm8,4.8a1.388,1.388,0,0,0,.952-.322,1.129,1.129,0,0,0,.381-.857H87.63a2.715,2.715,0,0,1-.439,1.476,2.9,2.9,0,0,1-1.183,1.04,3.7,3.7,0,0,1-1.659.37,3.44,3.44,0,0,1-2.681-1.08,4.275,4.275,0,0,1-.981-2.985V9.942a4.226,4.226,0,0,1,.974-2.922,3.4,3.4,0,0,1,2.673-1.091,3.333,3.333,0,0,1,2.384.846,3,3,0,0,1,.912,2.252H85.646a1.455,1.455,0,0,0-.381-1.005,1.416,1.416,0,0,0-2.084.153A3.125,3.125,0,0,0,82.8,9.924v.22a3.164,3.164,0,0,0,.374,1.761A1.291,1.291,0,0,0,84.313,12.44Zm7.061-8.313V6.075h1.355V7.628H91.373v3.955a.944.944,0,0,0,.168.63.846.846,0,0,0,.645.19,3.376,3.376,0,0,0,.623-.051v1.6a4.358,4.358,0,0,1-1.282.19A2.021,2.021,0,0,1,89.256,11.9V7.628H88.1V6.075h1.157V4.127Zm7.28,9.067a2.654,2.654,0,0,1-2.168.952,2.5,2.5,0,0,1-1.945-.732,3.127,3.127,0,0,1-.685-2.146V6.075h2.117V11.2q0,1.239,1.128,1.239a1.528,1.528,0,0,0,1.479-.748V6.075H100.7V14H98.712Zm8.1-5.134A5.751,5.751,0,0,0,105.992,8a1.55,1.55,0,0,0-1.575.813V14H102.3V6.075h2l.059.945a1.961,1.961,0,0,1,1.765-1.091,2.218,2.218,0,0,1,.659.1ZM112.145,14a2.351,2.351,0,0,1-.212-.71,2.561,2.561,0,0,1-2,.857,2.814,2.814,0,0,1-1.93-.674,2.167,2.167,0,0,1-.765-1.7,2.24,2.24,0,0,1,.934-1.934,4.608,4.608,0,0,1,2.7-.681h.974V8.7a1.306,1.306,0,0,0-.282-.879,1.109,1.109,0,0,0-.89-.33,1.261,1.261,0,0,0-.839.256.871.871,0,0,0-.3.7h-2.117a2.126,2.126,0,0,1,.425-1.274,2.808,2.808,0,0,1,1.2-.919,4.378,4.378,0,0,1,1.743-.333,3.459,3.459,0,0,1,2.325.736,2.575,2.575,0,0,1,.861,2.069v3.435a3.789,3.789,0,0,0,.315,1.707V14Zm-1.75-1.472a1.823,1.823,0,0,0,.864-.209,1.371,1.371,0,0,0,.586-.56V10.4h-.791q-1.589,0-1.692,1.1l-.007.125a.847.847,0,0,0,.278.652A1.081,1.081,0,0,0,110.394,12.528Z" transform="translate(718 1928)" fill="#fff"/>
            <path id="Trazado_875137" data-name="Trazado 875137" d="M50.479,3.047V9.6a3.356,3.356,0,0,1-1.022,2.584,3.94,3.94,0,0,1-2.792.95,3.984,3.984,0,0,1-2.769-.923A3.3,3.3,0,0,1,42.85,9.678V3.047H44.9V9.616a1.9,1.9,0,0,0,.468,1.425,1.8,1.8,0,0,0,1.3.448q1.729,0,1.757-1.818V3.047ZM53.849,5.6l.062.854a2.582,2.582,0,0,1,2.126-.991,2.146,2.146,0,0,1,1.75.69,3.221,3.221,0,0,1,.588,2.064V13H56.4V8.27a1.282,1.282,0,0,0-.273-.913,1.224,1.224,0,0,0-.909-.284,1.359,1.359,0,0,0-1.251.711V13H51.989V5.6ZM64.157,13a2.194,2.194,0,0,1-.2-.663,2.39,2.39,0,0,1-1.866.8,2.626,2.626,0,0,1-1.8-.629,2.023,2.023,0,0,1-.714-1.586,2.09,2.09,0,0,1,.872-1.8,4.3,4.3,0,0,1,2.519-.636h.909V8.058a1.219,1.219,0,0,0-.263-.82,1.035,1.035,0,0,0-.831-.308A1.177,1.177,0,0,0,62,7.169a.813.813,0,0,0-.284.656H59.741a1.984,1.984,0,0,1,.4-1.189,2.621,2.621,0,0,1,1.121-.858,4.086,4.086,0,0,1,1.627-.311,3.228,3.228,0,0,1,2.17.687,2.4,2.4,0,0,1,.8,1.931v3.206a3.536,3.536,0,0,0,.294,1.593V13Zm-1.634-1.374a1.7,1.7,0,0,0,.807-.195,1.28,1.28,0,0,0,.547-.523V9.637h-.738q-1.483,0-1.579,1.025l-.007.116a.791.791,0,0,0,.26.608A1.009,1.009,0,0,0,62.523,11.626Zm15-2.256a4.436,4.436,0,0,1-.776,2.738,2.488,2.488,0,0,1-2.1,1.029,2.3,2.3,0,0,1-1.812-.779v3.486H70.863V5.6H72.7l.068.725a2.322,2.322,0,0,1,1.873-.861,2.5,2.5,0,0,1,2.126,1.012,4.556,4.556,0,0,1,.759,2.789Zm-1.976-.144a2.911,2.911,0,0,0-.366-1.593,1.191,1.191,0,0,0-1.063-.561,1.294,1.294,0,0,0-1.278.711v3.028a1.316,1.316,0,0,0,1.292.731Q75.546,11.544,75.546,9.227ZM82.9,7.456A5.367,5.367,0,0,0,82.19,7.4a1.447,1.447,0,0,0-1.47.759V13H78.745V5.6h1.866l.055.882a1.831,1.831,0,0,1,1.647-1.019,2.07,2.07,0,0,1,.615.089ZM87.933,13a2.194,2.194,0,0,1-.2-.663,2.39,2.39,0,0,1-1.866.8,2.626,2.626,0,0,1-1.8-.629,2.023,2.023,0,0,1-.714-1.586,2.09,2.09,0,0,1,.872-1.8,4.3,4.3,0,0,1,2.519-.636h.909V8.058a1.219,1.219,0,0,0-.263-.82,1.035,1.035,0,0,0-.831-.308,1.177,1.177,0,0,0-.783.239.813.813,0,0,0-.284.656H83.517a1.985,1.985,0,0,1,.4-1.189,2.621,2.621,0,0,1,1.121-.858,4.086,4.086,0,0,1,1.627-.311,3.228,3.228,0,0,1,2.17.687,2.4,2.4,0,0,1,.8,1.931v3.206a3.536,3.536,0,0,0,.294,1.593V13ZM86.3,11.626a1.7,1.7,0,0,0,.807-.195,1.28,1.28,0,0,0,.547-.523V9.637h-.738q-1.483,0-1.579,1.025l-.007.116a.791.791,0,0,0,.26.608A1.009,1.009,0,0,0,86.3,11.626ZM87.051,2.5H89.2L87.311,4.619H85.7Zm7.178,9.044a1.3,1.3,0,0,0,.889-.3,1.054,1.054,0,0,0,.355-.8h1.853a2.534,2.534,0,0,1-.41,1.377,2.706,2.706,0,0,1-1.1.971,3.455,3.455,0,0,1-1.548.345,3.211,3.211,0,0,1-2.5-1.008,3.99,3.99,0,0,1-.916-2.786v-.13a3.944,3.944,0,0,1,.909-2.728,3.174,3.174,0,0,1,2.5-1.019,3.111,3.111,0,0,1,2.225.79,2.8,2.8,0,0,1,.851,2.1H95.473a1.358,1.358,0,0,0-.355-.938,1.321,1.321,0,0,0-1.945.142A2.916,2.916,0,0,0,92.82,9.2V9.4a2.953,2.953,0,0,0,.349,1.643A1.2,1.2,0,0,0,94.229,11.544Zm6.59-7.759V5.6h1.265V7.053h-1.265v3.691a.881.881,0,0,0,.157.588.79.79,0,0,0,.6.178,3.15,3.15,0,0,0,.581-.048v1.5a4.067,4.067,0,0,1-1.2.178,1.886,1.886,0,0,1-2.119-2.1V7.053h-1.08V5.6h1.08V3.785ZM105.269,13h-1.982V5.6h1.982Zm-2.1-9.311a.973.973,0,0,1,.3-.731,1.281,1.281,0,0,1,1.617,0,.967.967,0,0,1,.3.731.97.97,0,0,1-.3.738,1.267,1.267,0,0,1-1.606,0A.97.97,0,0,1,103.17,3.689Zm6.8,7.854a1.3,1.3,0,0,0,.889-.3,1.054,1.054,0,0,0,.355-.8h1.853a2.534,2.534,0,0,1-.41,1.377,2.706,2.706,0,0,1-1.1.971,3.455,3.455,0,0,1-1.548.345,3.211,3.211,0,0,1-2.5-1.008,3.99,3.99,0,0,1-.916-2.786v-.13a3.944,3.944,0,0,1,.909-2.728,3.174,3.174,0,0,1,2.5-1.019,3.111,3.111,0,0,1,2.225.79,2.8,2.8,0,0,1,.851,2.1h-1.853a1.358,1.358,0,0,0-.355-.938,1.321,1.321,0,0,0-1.945.142,2.916,2.916,0,0,0-.352,1.633V9.4a2.953,2.953,0,0,0,.349,1.643A1.2,1.2,0,0,0,109.972,11.544ZM118.482,13a2.194,2.194,0,0,1-.2-.663,2.39,2.39,0,0,1-1.866.8,2.626,2.626,0,0,1-1.8-.629,2.023,2.023,0,0,1-.714-1.586,2.09,2.09,0,0,1,.872-1.8,4.3,4.3,0,0,1,2.519-.636h.909V8.058a1.219,1.219,0,0,0-.263-.82,1.035,1.035,0,0,0-.831-.308,1.177,1.177,0,0,0-.783.239.813.813,0,0,0-.284.656h-1.976a1.985,1.985,0,0,1,.4-1.189,2.621,2.621,0,0,1,1.121-.858,4.086,4.086,0,0,1,1.627-.311,3.228,3.228,0,0,1,2.17.687,2.4,2.4,0,0,1,.8,1.931v3.206a3.536,3.536,0,0,0,.294,1.593V13Zm-1.634-1.374a1.7,1.7,0,0,0,.807-.195,1.28,1.28,0,0,0,.547-.523V9.637h-.738q-1.483,0-1.579,1.025l-.007.116a.791.791,0,0,0,.26.608A1.009,1.009,0,0,0,116.849,11.626ZM45.478,26.956a.637.637,0,0,0-.359-.571,4.077,4.077,0,0,0-1.152-.373q-2.639-.554-2.639-2.242a2.032,2.032,0,0,1,.817-1.644,3.3,3.3,0,0,1,2.136-.66,3.547,3.547,0,0,1,2.252.663,2.09,2.09,0,0,1,.844,1.723H45.4a.956.956,0,0,0-.273-.7,1.157,1.157,0,0,0-.854-.277,1.182,1.182,0,0,0-.772.226.712.712,0,0,0-.273.574.609.609,0,0,0,.311.53,3.2,3.2,0,0,0,1.049.349,8.571,8.571,0,0,1,1.244.332A2.044,2.044,0,0,1,47.4,26.874a1.929,1.929,0,0,1-.868,1.637,3.745,3.745,0,0,1-2.242.625,3.912,3.912,0,0,1-1.651-.332,2.77,2.77,0,0,1-1.131-.909,2.113,2.113,0,0,1-.41-1.248h1.873a1.031,1.031,0,0,0,.39.807,1.546,1.546,0,0,0,.971.28,1.43,1.43,0,0,0,.858-.215A.67.67,0,0,0,45.478,26.956Zm2.885-1.723a4.387,4.387,0,0,1,.424-1.962,3.1,3.1,0,0,1,1.22-1.333,3.56,3.56,0,0,1,1.849-.472,3.368,3.368,0,0,1,2.444.916,3.676,3.676,0,0,1,1.056,2.488l.014.506a3.866,3.866,0,0,1-.95,2.731,3.683,3.683,0,0,1-5.1,0,3.934,3.934,0,0,1-.954-2.789Zm1.976.14a2.765,2.765,0,0,0,.4,1.612,1.424,1.424,0,0,0,2.256.007,3.025,3.025,0,0,0,.4-1.763,2.737,2.737,0,0,0-.4-1.6,1.311,1.311,0,0,0-1.135-.568,1.29,1.29,0,0,0-1.121.565A3.076,3.076,0,0,0,50.338,25.374Zm9.324,2.17a1.3,1.3,0,0,0,.889-.3,1.054,1.054,0,0,0,.355-.8h1.853a2.534,2.534,0,0,1-.41,1.377,2.706,2.706,0,0,1-1.1.971,3.455,3.455,0,0,1-1.548.345,3.211,3.211,0,0,1-2.5-1.008,3.99,3.99,0,0,1-.916-2.786v-.13a3.944,3.944,0,0,1,.909-2.728,3.174,3.174,0,0,1,2.5-1.019,3.111,3.111,0,0,1,2.225.79,2.8,2.8,0,0,1,.851,2.1H60.907a1.358,1.358,0,0,0-.355-.938,1.321,1.321,0,0,0-1.945.142,2.916,2.916,0,0,0-.352,1.633V25.4a2.953,2.953,0,0,0,.349,1.643A1.2,1.2,0,0,0,59.663,27.544ZM65.972,29H63.99V21.6h1.982Zm-2.1-9.311a.973.973,0,0,1,.3-.731,1.281,1.281,0,0,1,1.617,0,1.044,1.044,0,0,1,0,1.47,1.267,1.267,0,0,1-1.606,0A.97.97,0,0,1,63.874,19.689Zm3.418,5.544a4.387,4.387,0,0,1,.424-1.962,3.1,3.1,0,0,1,1.22-1.333,3.56,3.56,0,0,1,1.849-.472,3.368,3.368,0,0,1,2.444.916,3.676,3.676,0,0,1,1.056,2.488l.014.506a3.866,3.866,0,0,1-.95,2.731,3.683,3.683,0,0,1-5.1,0,3.934,3.934,0,0,1-.954-2.789Zm1.976.14a2.765,2.765,0,0,0,.4,1.612,1.424,1.424,0,0,0,2.256.007,3.025,3.025,0,0,0,.4-1.763,2.737,2.737,0,0,0-.4-1.6,1.311,1.311,0,0,0-1.135-.568,1.29,1.29,0,0,0-1.121.565A3.076,3.076,0,0,0,69.267,25.374Zm9.324,2.17a1.3,1.3,0,0,0,.889-.3,1.054,1.054,0,0,0,.355-.8h1.853a2.534,2.534,0,0,1-.41,1.377,2.706,2.706,0,0,1-1.1.971,3.455,3.455,0,0,1-1.548.345,3.211,3.211,0,0,1-2.5-1.008,3.99,3.99,0,0,1-.916-2.786v-.13a3.944,3.944,0,0,1,.909-2.728,3.174,3.174,0,0,1,2.5-1.019,3.111,3.111,0,0,1,2.225.79,2.8,2.8,0,0,1,.851,2.1H79.835a1.358,1.358,0,0,0-.355-.938,1.321,1.321,0,0,0-1.945.142,2.916,2.916,0,0,0-.352,1.633V25.4a2.953,2.953,0,0,0,.349,1.643A1.2,1.2,0,0,0,78.591,27.544Zm8.654.7a2.477,2.477,0,0,1-2.023.889,2.337,2.337,0,0,1-1.815-.684,2.918,2.918,0,0,1-.639-2V21.6h1.976v4.784q0,1.157,1.053,1.157a1.426,1.426,0,0,0,1.381-.7V21.6H89.16V29H87.3ZM92.735,29H90.752V18.5h1.982Zm3.992-9.215V21.6h1.265v1.449H96.727v3.691a.881.881,0,0,0,.157.588.79.79,0,0,0,.6.178,3.151,3.151,0,0,0,.581-.048v1.5a4.067,4.067,0,0,1-1.2.178,1.886,1.886,0,0,1-2.119-2.1V23.053h-1.08V21.6h1.08V19.785Zm6.795,8.463a2.477,2.477,0,0,1-2.023.889,2.337,2.337,0,0,1-1.815-.684,2.918,2.918,0,0,1-.639-2V21.6h1.976v4.784q0,1.157,1.053,1.157a1.426,1.426,0,0,0,1.381-.7V21.6h1.982V29h-1.859Zm7.561-4.792a5.367,5.367,0,0,0-.711-.055,1.447,1.447,0,0,0-1.47.759V29h-1.976V21.6h1.866l.055.882a1.831,1.831,0,0,1,1.647-1.019,2.07,2.07,0,0,1,.615.089ZM116.114,29a2.194,2.194,0,0,1-.2-.663,2.39,2.39,0,0,1-1.866.8,2.626,2.626,0,0,1-1.8-.629,2.023,2.023,0,0,1-.714-1.586,2.09,2.09,0,0,1,.872-1.8,4.3,4.3,0,0,1,2.519-.636h.909v-.424a1.219,1.219,0,0,0-.263-.82,1.035,1.035,0,0,0-.831-.308,1.177,1.177,0,0,0-.783.239.813.813,0,0,0-.284.656H111.7a1.985,1.985,0,0,1,.4-1.189,2.621,2.621,0,0,1,1.121-.858,4.086,4.086,0,0,1,1.627-.311,3.228,3.228,0,0,1,2.17.687,2.4,2.4,0,0,1,.8,1.931v3.206a3.536,3.536,0,0,0,.294,1.593V29Zm-1.634-1.374a1.7,1.7,0,0,0,.807-.195,1.28,1.28,0,0,0,.547-.523V25.637H115.1q-1.483,0-1.579,1.025l-.007.116a.791.791,0,0,0,.26.608A1.009,1.009,0,0,0,114.48,27.626ZM121.418,29h-1.982V18.5h1.982Z" transform="translate(718 2019)" fill="#fff"/>
            <path id="Trazado_875139" data-name="Trazado 875139" d="M37.977,2.758V8.845a3.117,3.117,0,0,1-.949,2.4,3.659,3.659,0,0,1-2.593.882,3.7,3.7,0,0,1-2.571-.857,3.063,3.063,0,0,1-.971-2.355V2.758h1.9v6.1a1.761,1.761,0,0,0,.435,1.323,1.669,1.669,0,0,0,1.2.416q1.606,0,1.631-1.688V2.758Zm3.129,2.374.057.793A2.4,2.4,0,0,1,43.137,5a1.993,1.993,0,0,1,1.625.641,2.991,2.991,0,0,1,.546,1.917V12H43.474V7.607a1.19,1.19,0,0,0-.254-.847,1.137,1.137,0,0,0-.844-.263,1.262,1.262,0,0,0-1.162.66V12H39.379V5.132Zm15.012,3.5a4.119,4.119,0,0,1-.72,2.542,2.31,2.31,0,0,1-1.946.955A2.14,2.14,0,0,1,51.77,11.4v3.237H49.936V5.132h1.7L51.7,5.8A2.156,2.156,0,0,1,53.439,5a2.326,2.326,0,0,1,1.974.939,4.231,4.231,0,0,1,.7,2.59ZM54.284,8.5a2.7,2.7,0,0,0-.34-1.479,1.106,1.106,0,0,0-.987-.521,1.2,1.2,0,0,0-1.187.66V9.969a1.222,1.222,0,0,0,1.2.679Q54.284,10.648,54.284,8.5Zm6.83-1.644a4.984,4.984,0,0,0-.66-.051,1.344,1.344,0,0,0-1.365.7V12H57.254V5.132h1.733l.051.819A1.7,1.7,0,0,1,60.568,5a1.922,1.922,0,0,1,.571.083Zm.368,1.65a4.073,4.073,0,0,1,.394-1.822,2.881,2.881,0,0,1,1.133-1.238A3.306,3.306,0,0,1,64.726,5a3.127,3.127,0,0,1,2.269.851,3.414,3.414,0,0,1,.981,2.311l.013.47a3.59,3.59,0,0,1-.882,2.536,3.42,3.42,0,0,1-4.739,0,3.653,3.653,0,0,1-.885-2.59Zm1.834.13a2.567,2.567,0,0,0,.368,1.5,1.323,1.323,0,0,0,2.095.006A2.809,2.809,0,0,0,66.154,8.5a2.542,2.542,0,0,0-.375-1.488,1.217,1.217,0,0,0-1.054-.528,1.2,1.2,0,0,0-1.041.524A2.857,2.857,0,0,0,63.316,8.633Zm8.658,2.015a1.2,1.2,0,0,0,.825-.279.979.979,0,0,0,.33-.743h1.72a2.353,2.353,0,0,1-.381,1.279,2.513,2.513,0,0,1-1.025.9,3.208,3.208,0,0,1-1.438.321,2.982,2.982,0,0,1-2.323-.936A3.705,3.705,0,0,1,68.833,8.6V8.483a3.663,3.663,0,0,1,.844-2.533A2.947,2.947,0,0,1,71.994,5a2.889,2.889,0,0,1,2.066.733,2.6,2.6,0,0,1,.79,1.952H73.13a1.261,1.261,0,0,0-.33-.871,1.227,1.227,0,0,0-1.806.132,2.708,2.708,0,0,0-.327,1.516v.191a2.742,2.742,0,0,0,.324,1.526A1.119,1.119,0,0,0,71.975,10.648Zm7.084,1.479A3.372,3.372,0,0,1,76.6,11.2a3.294,3.294,0,0,1-.949-2.469V8.553a4.149,4.149,0,0,1,.4-1.85,2.935,2.935,0,0,1,1.133-1.257A3.18,3.18,0,0,1,78.855,5a2.85,2.85,0,0,1,2.219.889,3.611,3.611,0,0,1,.809,2.52v.749H77.51a1.7,1.7,0,0,0,.536,1.079,1.621,1.621,0,0,0,1.133.406,1.98,1.98,0,0,0,1.657-.768l.9,1.009a2.754,2.754,0,0,1-1.117.911A3.665,3.665,0,0,1,79.059,12.127Zm-.209-5.643a1.146,1.146,0,0,0-.885.37,1.915,1.915,0,0,0-.435,1.058h2.552V7.765a1.366,1.366,0,0,0-.33-.947A1.183,1.183,0,0,0,78.849,6.484ZM86.644,10.1a.591.591,0,0,0-.333-.53,3.785,3.785,0,0,0-1.07-.346q-2.45-.514-2.45-2.082a1.887,1.887,0,0,1,.759-1.527A3.06,3.06,0,0,1,85.533,5a3.293,3.293,0,0,1,2.092.616,1.94,1.94,0,0,1,.784,1.6H86.574a.888.888,0,0,0-.254-.651,1.075,1.075,0,0,0-.793-.257,1.1,1.1,0,0,0-.717.209.661.661,0,0,0-.254.533.565.565,0,0,0,.289.492,2.971,2.971,0,0,0,.974.324,7.958,7.958,0,0,1,1.155.308,1.9,1.9,0,0,1,1.454,1.847,1.792,1.792,0,0,1-.806,1.52,3.478,3.478,0,0,1-2.082.581,3.632,3.632,0,0,1-1.533-.308,2.572,2.572,0,0,1-1.051-.844,1.962,1.962,0,0,1-.381-1.158h1.739a.958.958,0,0,0,.362.749,1.435,1.435,0,0,0,.9.26,1.328,1.328,0,0,0,.8-.2A.622.622,0,0,0,86.644,10.1Zm2.679-1.6a4.073,4.073,0,0,1,.394-1.822,2.881,2.881,0,0,1,1.133-1.238A3.306,3.306,0,0,1,92.566,5a3.127,3.127,0,0,1,2.269.851,3.414,3.414,0,0,1,.981,2.311l.013.47a3.59,3.59,0,0,1-.882,2.536,3.42,3.42,0,0,1-4.739,0,3.653,3.653,0,0,1-.885-2.59Zm1.834.13a2.567,2.567,0,0,0,.368,1.5,1.323,1.323,0,0,0,2.095.006A2.809,2.809,0,0,0,93.995,8.5a2.542,2.542,0,0,0-.375-1.488,1.217,1.217,0,0,0-1.054-.528,1.2,1.2,0,0,0-1.041.524A2.857,2.857,0,0,0,91.157,8.633Zm8.753-.118a4.139,4.139,0,0,1,.72-2.558A2.338,2.338,0,0,1,102.6,5a2.1,2.1,0,0,1,1.657.749V2.25H106.1V12h-1.657l-.089-.73a2.159,2.159,0,0,1-1.765.857,2.331,2.331,0,0,1-1.946-.955A4.272,4.272,0,0,1,99.911,8.515Zm1.834.137a2.711,2.711,0,0,0,.336,1.481,1.1,1.1,0,0,0,.978.515,1.228,1.228,0,0,0,1.2-.718V7.215a1.21,1.21,0,0,0-1.187-.718Q101.745,6.5,101.745,8.652Zm8.938,3.475a3.372,3.372,0,0,1-2.46-.927,3.294,3.294,0,0,1-.949-2.469V8.553a4.149,4.149,0,0,1,.4-1.85,2.935,2.935,0,0,1,1.133-1.257A3.18,3.18,0,0,1,110.479,5a2.85,2.85,0,0,1,2.219.889,3.611,3.611,0,0,1,.809,2.52v.749h-4.374a1.7,1.7,0,0,0,.536,1.079,1.621,1.621,0,0,0,1.133.406,1.98,1.98,0,0,0,1.657-.768l.9,1.009a2.754,2.754,0,0,1-1.117.911A3.665,3.665,0,0,1,110.683,12.127Zm-.209-5.643a1.146,1.146,0,0,0-.885.37,1.915,1.915,0,0,0-.435,1.058H111.7V7.765a1.366,1.366,0,0,0-.33-.947A1.183,1.183,0,0,0,110.473,6.484ZM26.192,25.515a4.139,4.139,0,0,1,.72-2.558A2.338,2.338,0,0,1,28.884,22a2.1,2.1,0,0,1,1.657.749v-3.5h1.841V29H30.724l-.089-.73a2.159,2.159,0,0,1-1.765.857,2.331,2.331,0,0,1-1.946-.955A4.272,4.272,0,0,1,26.192,25.515Zm1.834.137a2.711,2.711,0,0,0,.336,1.481,1.1,1.1,0,0,0,.978.515,1.227,1.227,0,0,0,1.2-.718V24.215a1.21,1.21,0,0,0-1.187-.718Q28.027,23.5,28.027,25.652Zm8.938,3.475A3.372,3.372,0,0,1,34.5,28.2a3.294,3.294,0,0,1-.949-2.469v-.178a4.149,4.149,0,0,1,.4-1.85,2.935,2.935,0,0,1,1.133-1.257A3.18,3.18,0,0,1,36.761,22a2.85,2.85,0,0,1,2.219.889,3.611,3.611,0,0,1,.809,2.52v.749H35.415a1.7,1.7,0,0,0,.536,1.079,1.621,1.621,0,0,0,1.133.406,1.98,1.98,0,0,0,1.657-.768l.9,1.009a2.754,2.754,0,0,1-1.117.911A3.665,3.665,0,0,1,36.964,29.127Zm-.209-5.643a1.146,1.146,0,0,0-.885.37,1.915,1.915,0,0,0-.435,1.058h2.552v-.147a1.366,1.366,0,0,0-.33-.947A1.183,1.183,0,0,0,36.755,23.484ZM44.55,27.1a.591.591,0,0,0-.333-.53,3.785,3.785,0,0,0-1.07-.346q-2.45-.514-2.45-2.082a1.887,1.887,0,0,1,.759-1.527A3.06,3.06,0,0,1,43.439,22a3.293,3.293,0,0,1,2.092.616,1.94,1.94,0,0,1,.784,1.6H44.48a.888.888,0,0,0-.254-.651,1.075,1.075,0,0,0-.793-.257,1.1,1.1,0,0,0-.717.209.661.661,0,0,0-.254.533.565.565,0,0,0,.289.492,2.971,2.971,0,0,0,.974.324,7.958,7.958,0,0,1,1.155.308,1.9,1.9,0,0,1,1.454,1.847,1.792,1.792,0,0,1-.806,1.52,3.478,3.478,0,0,1-2.082.581,3.632,3.632,0,0,1-1.533-.308,2.572,2.572,0,0,1-1.051-.844,1.962,1.962,0,0,1-.381-1.158H42.22a.958.958,0,0,0,.362.749,1.435,1.435,0,0,0,.9.26,1.328,1.328,0,0,0,.8-.2A.622.622,0,0,0,44.55,27.1Zm5.821.546a1.2,1.2,0,0,0,.825-.279.979.979,0,0,0,.33-.743h1.72a2.353,2.353,0,0,1-.381,1.279,2.513,2.513,0,0,1-1.025.9,3.208,3.208,0,0,1-1.438.321,2.982,2.982,0,0,1-2.323-.936,3.705,3.705,0,0,1-.851-2.587v-.121a3.663,3.663,0,0,1,.844-2.533A2.947,2.947,0,0,1,50.389,22a2.889,2.889,0,0,1,2.066.733,2.6,2.6,0,0,1,.79,1.952h-1.72a1.261,1.261,0,0,0-.33-.871,1.227,1.227,0,0,0-1.806.132,2.708,2.708,0,0,0-.327,1.516v.191a2.742,2.742,0,0,0,.324,1.526A1.119,1.119,0,0,0,50.37,27.648ZM54.008,25.5a4.073,4.073,0,0,1,.394-1.822,2.881,2.881,0,0,1,1.133-1.238A3.306,3.306,0,0,1,57.251,22a3.128,3.128,0,0,1,2.269.851,3.414,3.414,0,0,1,.981,2.311l.013.47a3.59,3.59,0,0,1-.882,2.536,3.42,3.42,0,0,1-4.739,0,3.653,3.653,0,0,1-.885-2.59Zm1.834.13a2.567,2.567,0,0,0,.368,1.5,1.323,1.323,0,0,0,2.095.006,2.809,2.809,0,0,0,.375-1.637,2.542,2.542,0,0,0-.375-1.488,1.217,1.217,0,0,0-1.054-.528,1.2,1.2,0,0,0-1.041.524A2.857,2.857,0,0,0,55.842,25.633Zm5.516-.118a4.139,4.139,0,0,1,.72-2.558A2.338,2.338,0,0,1,64.05,22a2.1,2.1,0,0,1,1.657.749v-3.5h1.841V29H65.89l-.089-.73a2.159,2.159,0,0,1-1.765.857,2.331,2.331,0,0,1-1.946-.955A4.272,4.272,0,0,1,61.358,25.515Zm1.834.137a2.711,2.711,0,0,0,.336,1.481,1.1,1.1,0,0,0,.978.515,1.227,1.227,0,0,0,1.2-.718V24.215a1.21,1.21,0,0,0-1.187-.718Q63.193,23.5,63.193,25.652ZM70.905,29H69.064V22.132h1.841Zm-1.949-8.646a.9.9,0,0,1,.276-.679,1.19,1.19,0,0,1,1.5,0,.969.969,0,0,1,0,1.365,1.177,1.177,0,0,1-1.492,0A.9.9,0,0,1,68.956,20.354ZM72.86,29V23.478H71.838V22.132H72.86v-.317a2.576,2.576,0,0,1,.8-2,3.205,3.205,0,0,1,2.212-.7,7.338,7.338,0,0,1,2.082.375l-.267,1.517a8.123,8.123,0,0,0-.965-.238,4.741,4.741,0,0,0-.736-.054q-1.282,0-1.282,1.136v.279h1.352v1.346H74.7V29Zm5.948,0H76.967V22.132h1.841Zm4.374-1.352a1.2,1.2,0,0,0,.825-.279.979.979,0,0,0,.33-.743h1.72a2.353,2.353,0,0,1-.381,1.279,2.513,2.513,0,0,1-1.025.9,3.208,3.208,0,0,1-1.438.321,2.982,2.982,0,0,1-2.323-.936,3.705,3.705,0,0,1-.851-2.587v-.121a3.663,3.663,0,0,1,.844-2.533A2.947,2.947,0,0,1,83.2,22a2.889,2.889,0,0,1,2.066.733,2.6,2.6,0,0,1,.79,1.952h-1.72a1.261,1.261,0,0,0-.33-.871,1.227,1.227,0,0,0-1.806.132,2.708,2.708,0,0,0-.327,1.516v.191a2.742,2.742,0,0,0,.324,1.526A1.119,1.119,0,0,0,83.181,27.648ZM91.084,29a2.037,2.037,0,0,1-.184-.616,2.22,2.22,0,0,1-1.733.743,2.439,2.439,0,0,1-1.673-.584,1.878,1.878,0,0,1-.663-1.473,1.941,1.941,0,0,1,.809-1.676,3.994,3.994,0,0,1,2.339-.59h.844v-.394a1.132,1.132,0,0,0-.244-.762.961.961,0,0,0-.771-.286,1.093,1.093,0,0,0-.727.222.755.755,0,0,0-.263.609H86.984a1.843,1.843,0,0,1,.368-1.1,2.434,2.434,0,0,1,1.041-.8A3.794,3.794,0,0,1,89.9,22a3,3,0,0,1,2.015.638,2.232,2.232,0,0,1,.746,1.793v2.977a3.284,3.284,0,0,0,.273,1.479V29Zm-1.517-1.276a1.58,1.58,0,0,0,.749-.181,1.188,1.188,0,0,0,.508-.486V25.877h-.686q-1.377,0-1.466.952l-.006.108a.734.734,0,0,0,.241.565A.937.937,0,0,0,89.567,27.724Zm7.363-.076a1.2,1.2,0,0,0,.825-.279.979.979,0,0,0,.33-.743h1.72a2.353,2.353,0,0,1-.381,1.279,2.513,2.513,0,0,1-1.025.9,3.208,3.208,0,0,1-1.438.321,2.982,2.982,0,0,1-2.323-.936,3.705,3.705,0,0,1-.851-2.587v-.121a3.663,3.663,0,0,1,.844-2.533A2.947,2.947,0,0,1,96.949,22a2.889,2.889,0,0,1,2.066.733,2.6,2.6,0,0,1,.79,1.952h-1.72a1.261,1.261,0,0,0-.33-.871,1.227,1.227,0,0,0-1.806.132,2.708,2.708,0,0,0-.327,1.516v.191a2.742,2.742,0,0,0,.324,1.526A1.119,1.119,0,0,0,96.93,27.648ZM102.789,29h-1.841V22.132h1.841Zm-1.949-8.646a.9.9,0,0,1,.276-.679,1.19,1.19,0,0,1,1.5,0,.969.969,0,0,1,0,1.365,1.177,1.177,0,0,1-1.492,0A.9.9,0,0,1,100.841,20.354Zm3.174,5.148a4.073,4.073,0,0,1,.394-1.822,2.881,2.881,0,0,1,1.133-1.238A3.306,3.306,0,0,1,107.258,22a3.127,3.127,0,0,1,2.269.851,3.414,3.414,0,0,1,.981,2.311l.013.47a3.59,3.59,0,0,1-.882,2.536,3.42,3.42,0,0,1-4.739,0,3.653,3.653,0,0,1-.885-2.59Zm1.834.13a2.567,2.567,0,0,0,.368,1.5,1.323,1.323,0,0,0,2.095.006,2.809,2.809,0,0,0,.375-1.637,2.542,2.542,0,0,0-.375-1.488,1.217,1.217,0,0,0-1.054-.528,1.2,1.2,0,0,0-1.041.524A2.857,2.857,0,0,0,105.849,25.633Zm1.771-6.383h2l-1.758,1.968h-1.492Zm5.719,2.882.057.793A2.4,2.4,0,0,1,115.37,22a1.993,1.993,0,0,1,1.625.641,2.991,2.991,0,0,1,.546,1.917V29h-1.834V24.607a1.19,1.19,0,0,0-.254-.847,1.137,1.137,0,0,0-.844-.263,1.262,1.262,0,0,0-1.162.66V29h-1.834V22.132Z" transform="translate(362 2105)" fill="#12263f"/>
            <path id="Trazado_875136" data-name="Trazado 875136" d="M37.977,2.758V8.845a3.117,3.117,0,0,1-.949,2.4,3.659,3.659,0,0,1-2.593.882,3.7,3.7,0,0,1-2.571-.857,3.063,3.063,0,0,1-.971-2.355V2.758h1.9v6.1a1.761,1.761,0,0,0,.435,1.323,1.669,1.669,0,0,0,1.2.416q1.606,0,1.631-1.688V2.758Zm3.129,2.374.057.793A2.4,2.4,0,0,1,43.137,5a1.993,1.993,0,0,1,1.625.641,2.991,2.991,0,0,1,.546,1.917V12H43.474V7.607a1.19,1.19,0,0,0-.254-.847,1.137,1.137,0,0,0-.844-.263,1.262,1.262,0,0,0-1.162.66V12H39.379V5.132Zm15.012,3.5a4.119,4.119,0,0,1-.72,2.542,2.31,2.31,0,0,1-1.946.955A2.14,2.14,0,0,1,51.77,11.4v3.237H49.936V5.132h1.7L51.7,5.8A2.156,2.156,0,0,1,53.439,5a2.326,2.326,0,0,1,1.974.939,4.231,4.231,0,0,1,.7,2.59ZM54.284,8.5a2.7,2.7,0,0,0-.34-1.479,1.106,1.106,0,0,0-.987-.521,1.2,1.2,0,0,0-1.187.66V9.969a1.222,1.222,0,0,0,1.2.679Q54.284,10.648,54.284,8.5Zm6.83-1.644a4.984,4.984,0,0,0-.66-.051,1.344,1.344,0,0,0-1.365.7V12H57.254V5.132h1.733l.051.819A1.7,1.7,0,0,1,60.568,5a1.922,1.922,0,0,1,.571.083Zm.368,1.65a4.073,4.073,0,0,1,.394-1.822,2.881,2.881,0,0,1,1.133-1.238A3.306,3.306,0,0,1,64.726,5a3.127,3.127,0,0,1,2.269.851,3.414,3.414,0,0,1,.981,2.311l.013.47a3.59,3.59,0,0,1-.882,2.536,3.42,3.42,0,0,1-4.739,0,3.653,3.653,0,0,1-.885-2.59Zm1.834.13a2.567,2.567,0,0,0,.368,1.5,1.323,1.323,0,0,0,2.095.006A2.809,2.809,0,0,0,66.154,8.5a2.542,2.542,0,0,0-.375-1.488,1.217,1.217,0,0,0-1.054-.528,1.2,1.2,0,0,0-1.041.524A2.857,2.857,0,0,0,63.316,8.633Zm8.658,2.015a1.2,1.2,0,0,0,.825-.279.979.979,0,0,0,.33-.743h1.72a2.353,2.353,0,0,1-.381,1.279,2.513,2.513,0,0,1-1.025.9,3.208,3.208,0,0,1-1.438.321,2.982,2.982,0,0,1-2.323-.936A3.705,3.705,0,0,1,68.833,8.6V8.483a3.663,3.663,0,0,1,.844-2.533A2.947,2.947,0,0,1,71.994,5a2.889,2.889,0,0,1,2.066.733,2.6,2.6,0,0,1,.79,1.952H73.13a1.261,1.261,0,0,0-.33-.871,1.227,1.227,0,0,0-1.806.132,2.708,2.708,0,0,0-.327,1.516v.191a2.742,2.742,0,0,0,.324,1.526A1.119,1.119,0,0,0,71.975,10.648Zm7.084,1.479A3.372,3.372,0,0,1,76.6,11.2a3.294,3.294,0,0,1-.949-2.469V8.553a4.149,4.149,0,0,1,.4-1.85,2.935,2.935,0,0,1,1.133-1.257A3.18,3.18,0,0,1,78.855,5a2.85,2.85,0,0,1,2.219.889,3.611,3.611,0,0,1,.809,2.52v.749H77.51a1.7,1.7,0,0,0,.536,1.079,1.621,1.621,0,0,0,1.133.406,1.98,1.98,0,0,0,1.657-.768l.9,1.009a2.754,2.754,0,0,1-1.117.911A3.665,3.665,0,0,1,79.059,12.127Zm-.209-5.643a1.146,1.146,0,0,0-.885.37,1.915,1.915,0,0,0-.435,1.058h2.552V7.765a1.366,1.366,0,0,0-.33-.947A1.183,1.183,0,0,0,78.849,6.484ZM86.644,10.1a.591.591,0,0,0-.333-.53,3.785,3.785,0,0,0-1.07-.346q-2.45-.514-2.45-2.082a1.887,1.887,0,0,1,.759-1.527A3.06,3.06,0,0,1,85.533,5a3.293,3.293,0,0,1,2.092.616,1.94,1.94,0,0,1,.784,1.6H86.574a.888.888,0,0,0-.254-.651,1.075,1.075,0,0,0-.793-.257,1.1,1.1,0,0,0-.717.209.661.661,0,0,0-.254.533.565.565,0,0,0,.289.492,2.971,2.971,0,0,0,.974.324,7.958,7.958,0,0,1,1.155.308,1.9,1.9,0,0,1,1.454,1.847,1.792,1.792,0,0,1-.806,1.52,3.478,3.478,0,0,1-2.082.581,3.632,3.632,0,0,1-1.533-.308,2.572,2.572,0,0,1-1.051-.844,1.962,1.962,0,0,1-.381-1.158h1.739a.958.958,0,0,0,.362.749,1.435,1.435,0,0,0,.9.26,1.328,1.328,0,0,0,.8-.2A.622.622,0,0,0,86.644,10.1Zm2.679-1.6a4.073,4.073,0,0,1,.394-1.822,2.881,2.881,0,0,1,1.133-1.238A3.306,3.306,0,0,1,92.566,5a3.127,3.127,0,0,1,2.269.851,3.414,3.414,0,0,1,.981,2.311l.013.47a3.59,3.59,0,0,1-.882,2.536,3.42,3.42,0,0,1-4.739,0,3.653,3.653,0,0,1-.885-2.59Zm1.834.13a2.567,2.567,0,0,0,.368,1.5,1.323,1.323,0,0,0,2.095.006A2.809,2.809,0,0,0,93.995,8.5a2.542,2.542,0,0,0-.375-1.488,1.217,1.217,0,0,0-1.054-.528,1.2,1.2,0,0,0-1.041.524A2.857,2.857,0,0,0,91.157,8.633Zm8.753-.118a4.139,4.139,0,0,1,.72-2.558A2.338,2.338,0,0,1,102.6,5a2.1,2.1,0,0,1,1.657.749V2.25H106.1V12h-1.657l-.089-.73a2.159,2.159,0,0,1-1.765.857,2.331,2.331,0,0,1-1.946-.955A4.272,4.272,0,0,1,99.911,8.515Zm1.834.137a2.711,2.711,0,0,0,.336,1.481,1.1,1.1,0,0,0,.978.515,1.228,1.228,0,0,0,1.2-.718V7.215a1.21,1.21,0,0,0-1.187-.718Q101.745,6.5,101.745,8.652Zm8.938,3.475a3.372,3.372,0,0,1-2.46-.927,3.294,3.294,0,0,1-.949-2.469V8.553a4.149,4.149,0,0,1,.4-1.85,2.935,2.935,0,0,1,1.133-1.257A3.18,3.18,0,0,1,110.479,5a2.85,2.85,0,0,1,2.219.889,3.611,3.611,0,0,1,.809,2.52v.749h-4.374a1.7,1.7,0,0,0,.536,1.079,1.621,1.621,0,0,0,1.133.406,1.98,1.98,0,0,0,1.657-.768l.9,1.009a2.754,2.754,0,0,1-1.117.911A3.665,3.665,0,0,1,110.683,12.127Zm-.209-5.643a1.146,1.146,0,0,0-.885.37,1.915,1.915,0,0,0-.435,1.058H111.7V7.765a1.366,1.366,0,0,0-.33-.947A1.183,1.183,0,0,0,110.473,6.484ZM37.364,27.648a1.2,1.2,0,0,0,.825-.279.979.979,0,0,0,.33-.743h1.72a2.353,2.353,0,0,1-.381,1.279,2.513,2.513,0,0,1-1.025.9,3.208,3.208,0,0,1-1.438.321,2.982,2.982,0,0,1-2.323-.936,3.705,3.705,0,0,1-.851-2.587v-.121a3.663,3.663,0,0,1,.844-2.533A2.947,2.947,0,0,1,37.383,22a2.889,2.889,0,0,1,2.066.733,2.6,2.6,0,0,1,.79,1.952h-1.72a1.261,1.261,0,0,0-.33-.871,1.227,1.227,0,0,0-1.806.132,2.708,2.708,0,0,0-.327,1.516v.191a2.742,2.742,0,0,0,.324,1.526A1.119,1.119,0,0,0,37.364,27.648ZM41,25.5a4.073,4.073,0,0,1,.394-1.822,2.881,2.881,0,0,1,1.133-1.238A3.306,3.306,0,0,1,44.245,22a3.128,3.128,0,0,1,2.269.851,3.414,3.414,0,0,1,.981,2.311l.013.47a3.59,3.59,0,0,1-.882,2.536,3.42,3.42,0,0,1-4.739,0A3.653,3.653,0,0,1,41,25.585Zm1.834.13a2.567,2.567,0,0,0,.368,1.5,1.323,1.323,0,0,0,2.095.006,2.809,2.809,0,0,0,.375-1.637,2.542,2.542,0,0,0-.375-1.488,1.217,1.217,0,0,0-1.054-.528,1.2,1.2,0,0,0-1.041.524A2.857,2.857,0,0,0,42.836,25.633Zm7.522-3.5.057.768a2.414,2.414,0,0,1,1.974-.9,1.832,1.832,0,0,1,1.822,1.047A2.358,2.358,0,0,1,56.274,22a2.049,2.049,0,0,1,1.663.651,2.991,2.991,0,0,1,.546,1.958V29H56.642V24.62a1.308,1.308,0,0,0-.229-.854,1.013,1.013,0,0,0-.806-.27,1.145,1.145,0,0,0-1.143.787L54.471,29H52.636V24.626a1.292,1.292,0,0,0-.235-.863,1.023,1.023,0,0,0-.8-.267,1.189,1.189,0,0,0-1.13.647V29H48.637V22.132Zm15.717,3.5a4.119,4.119,0,0,1-.72,2.542,2.31,2.31,0,0,1-1.946.955,2.14,2.14,0,0,1-1.682-.724v3.237H59.892V22.132h1.7l.063.673A2.156,2.156,0,0,1,63.4,22a2.326,2.326,0,0,1,1.974.939,4.231,4.231,0,0,1,.7,2.59ZM64.24,25.5a2.7,2.7,0,0,0-.34-1.479,1.106,1.106,0,0,0-.987-.521,1.2,1.2,0,0,0-1.187.66v2.812a1.222,1.222,0,0,0,1.2.679Q64.24,27.648,64.24,25.5Zm6.83-1.644a4.984,4.984,0,0,0-.66-.051,1.344,1.344,0,0,0-1.365.7V29H67.211V22.132h1.733l.051.819A1.7,1.7,0,0,1,70.524,22a1.922,1.922,0,0,1,.571.083Zm3.923,5.275a3.372,3.372,0,0,1-2.46-.927,3.294,3.294,0,0,1-.949-2.469v-.178a4.149,4.149,0,0,1,.4-1.85,2.935,2.935,0,0,1,1.133-1.257A3.18,3.18,0,0,1,74.79,22a2.85,2.85,0,0,1,2.219.889,3.611,3.611,0,0,1,.809,2.52v.749H73.444a1.7,1.7,0,0,0,.536,1.079,1.621,1.621,0,0,0,1.133.406,1.98,1.98,0,0,0,1.657-.768l.9,1.009a2.754,2.754,0,0,1-1.117.911A3.665,3.665,0,0,1,74.993,29.127Zm-.209-5.643a1.146,1.146,0,0,0-.885.37,1.915,1.915,0,0,0-.435,1.058h2.552v-.147a1.366,1.366,0,0,0-.33-.947A1.183,1.183,0,0,0,74.783,23.484Zm5.764-1.352.057.793A2.4,2.4,0,0,1,82.578,22a1.993,1.993,0,0,1,1.625.641,2.991,2.991,0,0,1,.546,1.917V29H82.915V24.607a1.19,1.19,0,0,0-.254-.847,1.137,1.137,0,0,0-.844-.263,1.262,1.262,0,0,0-1.162.66V29H78.821V22.132Zm9.312,4.97a.591.591,0,0,0-.333-.53,3.785,3.785,0,0,0-1.07-.346q-2.45-.514-2.45-2.082a1.887,1.887,0,0,1,.759-1.527A3.06,3.06,0,0,1,88.748,22a3.293,3.293,0,0,1,2.092.616,1.94,1.94,0,0,1,.784,1.6H89.789a.888.888,0,0,0-.254-.651,1.075,1.075,0,0,0-.793-.257,1.1,1.1,0,0,0-.717.209.661.661,0,0,0-.254.533.565.565,0,0,0,.289.492,2.971,2.971,0,0,0,.974.324,7.958,7.958,0,0,1,1.155.308,1.9,1.9,0,0,1,1.454,1.847,1.792,1.792,0,0,1-.806,1.52,3.478,3.478,0,0,1-2.082.581,3.632,3.632,0,0,1-1.533-.308,2.572,2.572,0,0,1-1.051-.844,1.962,1.962,0,0,1-.381-1.158H87.53a.958.958,0,0,0,.362.749,1.435,1.435,0,0,0,.9.26,1.328,1.328,0,0,0,.8-.2A.622.622,0,0,0,89.859,27.1Zm4.9,1.9H92.919V22.132H94.76Zm-1.949-8.646a.9.9,0,0,1,.276-.679,1.19,1.19,0,0,1,1.5,0,.969.969,0,0,1,0,1.365,1.177,1.177,0,0,1-1.492,0A.9.9,0,0,1,92.811,20.354ZM95.985,25.5a4.073,4.073,0,0,1,.394-1.822,2.881,2.881,0,0,1,1.133-1.238A3.306,3.306,0,0,1,99.228,22a3.127,3.127,0,0,1,2.269.851,3.414,3.414,0,0,1,.981,2.311l.013.47a3.59,3.59,0,0,1-.882,2.536,3.42,3.42,0,0,1-4.739,0,3.653,3.653,0,0,1-.885-2.59Zm1.834.13a2.567,2.567,0,0,0,.368,1.5,1.323,1.323,0,0,0,2.095.006,2.809,2.809,0,0,0,.375-1.637,2.542,2.542,0,0,0-.375-1.488,1.217,1.217,0,0,0-1.054-.528,1.2,1.2,0,0,0-1.041.524A2.857,2.857,0,0,0,97.819,25.633ZM99.59,19.25h2l-1.758,1.968H98.34Zm5.719,2.882.057.793a2.4,2.4,0,0,1,1.974-.92,1.993,1.993,0,0,1,1.625.641,2.991,2.991,0,0,1,.546,1.917V29h-1.834V24.607a1.19,1.19,0,0,0-.254-.847,1.137,1.137,0,0,0-.844-.263,1.262,1.262,0,0,0-1.162.66V29h-1.834V22.132Z" transform="translate(726 2105)" fill="#12263f"/>
            <path id="Trazado_875133" data-name="Trazado 875133" d="M37.977,2.758V8.845a3.117,3.117,0,0,1-.949,2.4,3.659,3.659,0,0,1-2.593.882,3.7,3.7,0,0,1-2.571-.857,3.063,3.063,0,0,1-.971-2.355V2.758h1.9v6.1a1.761,1.761,0,0,0,.435,1.323,1.669,1.669,0,0,0,1.2.416q1.606,0,1.631-1.688V2.758Zm3.129,2.374.057.793A2.4,2.4,0,0,1,43.137,5a1.993,1.993,0,0,1,1.625.641,2.991,2.991,0,0,1,.546,1.917V12H43.474V7.607a1.19,1.19,0,0,0-.254-.847,1.137,1.137,0,0,0-.844-.263,1.262,1.262,0,0,0-1.162.66V12H39.379V5.132Zm15.012,3.5a4.119,4.119,0,0,1-.72,2.542,2.31,2.31,0,0,1-1.946.955A2.14,2.14,0,0,1,51.77,11.4v3.237H49.936V5.132h1.7L51.7,5.8A2.156,2.156,0,0,1,53.439,5a2.326,2.326,0,0,1,1.974.939,4.231,4.231,0,0,1,.7,2.59ZM54.284,8.5a2.7,2.7,0,0,0-.34-1.479,1.106,1.106,0,0,0-.987-.521,1.2,1.2,0,0,0-1.187.66V9.969a1.222,1.222,0,0,0,1.2.679Q54.284,10.648,54.284,8.5Zm6.83-1.644a4.984,4.984,0,0,0-.66-.051,1.344,1.344,0,0,0-1.365.7V12H57.254V5.132h1.733l.051.819A1.7,1.7,0,0,1,60.568,5a1.922,1.922,0,0,1,.571.083Zm.368,1.65a4.073,4.073,0,0,1,.394-1.822,2.881,2.881,0,0,1,1.133-1.238A3.306,3.306,0,0,1,64.726,5a3.127,3.127,0,0,1,2.269.851,3.414,3.414,0,0,1,.981,2.311l.013.47a3.59,3.59,0,0,1-.882,2.536,3.42,3.42,0,0,1-4.739,0,3.653,3.653,0,0,1-.885-2.59Zm1.834.13a2.567,2.567,0,0,0,.368,1.5,1.323,1.323,0,0,0,2.095.006A2.809,2.809,0,0,0,66.154,8.5a2.542,2.542,0,0,0-.375-1.488,1.217,1.217,0,0,0-1.054-.528,1.2,1.2,0,0,0-1.041.524A2.857,2.857,0,0,0,63.316,8.633Zm8.658,2.015a1.2,1.2,0,0,0,.825-.279.979.979,0,0,0,.33-.743h1.72a2.353,2.353,0,0,1-.381,1.279,2.513,2.513,0,0,1-1.025.9,3.208,3.208,0,0,1-1.438.321,2.982,2.982,0,0,1-2.323-.936A3.705,3.705,0,0,1,68.833,8.6V8.483a3.663,3.663,0,0,1,.844-2.533A2.947,2.947,0,0,1,71.994,5a2.889,2.889,0,0,1,2.066.733,2.6,2.6,0,0,1,.79,1.952H73.13a1.261,1.261,0,0,0-.33-.871,1.227,1.227,0,0,0-1.806.132,2.708,2.708,0,0,0-.327,1.516v.191a2.742,2.742,0,0,0,.324,1.526A1.119,1.119,0,0,0,71.975,10.648Zm7.084,1.479A3.372,3.372,0,0,1,76.6,11.2a3.294,3.294,0,0,1-.949-2.469V8.553a4.149,4.149,0,0,1,.4-1.85,2.935,2.935,0,0,1,1.133-1.257A3.18,3.18,0,0,1,78.855,5a2.85,2.85,0,0,1,2.219.889,3.611,3.611,0,0,1,.809,2.52v.749H77.51a1.7,1.7,0,0,0,.536,1.079,1.621,1.621,0,0,0,1.133.406,1.98,1.98,0,0,0,1.657-.768l.9,1.009a2.754,2.754,0,0,1-1.117.911A3.665,3.665,0,0,1,79.059,12.127Zm-.209-5.643a1.146,1.146,0,0,0-.885.37,1.915,1.915,0,0,0-.435,1.058h2.552V7.765a1.366,1.366,0,0,0-.33-.947A1.183,1.183,0,0,0,78.849,6.484ZM86.644,10.1a.591.591,0,0,0-.333-.53,3.785,3.785,0,0,0-1.07-.346q-2.45-.514-2.45-2.082a1.887,1.887,0,0,1,.759-1.527A3.06,3.06,0,0,1,85.533,5a3.293,3.293,0,0,1,2.092.616,1.94,1.94,0,0,1,.784,1.6H86.574a.888.888,0,0,0-.254-.651,1.075,1.075,0,0,0-.793-.257,1.1,1.1,0,0,0-.717.209.661.661,0,0,0-.254.533.565.565,0,0,0,.289.492,2.971,2.971,0,0,0,.974.324,7.958,7.958,0,0,1,1.155.308,1.9,1.9,0,0,1,1.454,1.847,1.792,1.792,0,0,1-.806,1.52,3.478,3.478,0,0,1-2.082.581,3.632,3.632,0,0,1-1.533-.308,2.572,2.572,0,0,1-1.051-.844,1.962,1.962,0,0,1-.381-1.158h1.739a.958.958,0,0,0,.362.749,1.435,1.435,0,0,0,.9.26,1.328,1.328,0,0,0,.8-.2A.622.622,0,0,0,86.644,10.1Zm2.679-1.6a4.073,4.073,0,0,1,.394-1.822,2.881,2.881,0,0,1,1.133-1.238A3.306,3.306,0,0,1,92.566,5a3.127,3.127,0,0,1,2.269.851,3.414,3.414,0,0,1,.981,2.311l.013.47a3.59,3.59,0,0,1-.882,2.536,3.42,3.42,0,0,1-4.739,0,3.653,3.653,0,0,1-.885-2.59Zm1.834.13a2.567,2.567,0,0,0,.368,1.5,1.323,1.323,0,0,0,2.095.006A2.809,2.809,0,0,0,93.995,8.5a2.542,2.542,0,0,0-.375-1.488,1.217,1.217,0,0,0-1.054-.528,1.2,1.2,0,0,0-1.041.524A2.857,2.857,0,0,0,91.157,8.633Zm8.753-.118a4.139,4.139,0,0,1,.72-2.558A2.338,2.338,0,0,1,102.6,5a2.1,2.1,0,0,1,1.657.749V2.25H106.1V12h-1.657l-.089-.73a2.159,2.159,0,0,1-1.765.857,2.331,2.331,0,0,1-1.946-.955A4.272,4.272,0,0,1,99.911,8.515Zm1.834.137a2.711,2.711,0,0,0,.336,1.481,1.1,1.1,0,0,0,.978.515,1.228,1.228,0,0,0,1.2-.718V7.215a1.21,1.21,0,0,0-1.187-.718Q101.745,6.5,101.745,8.652Zm8.938,3.475a3.372,3.372,0,0,1-2.46-.927,3.294,3.294,0,0,1-.949-2.469V8.553a4.149,4.149,0,0,1,.4-1.85,2.935,2.935,0,0,1,1.133-1.257A3.18,3.18,0,0,1,110.479,5a2.85,2.85,0,0,1,2.219.889,3.611,3.611,0,0,1,.809,2.52v.749h-4.374a1.7,1.7,0,0,0,.536,1.079,1.621,1.621,0,0,0,1.133.406,1.98,1.98,0,0,0,1.657-.768l.9,1.009a2.754,2.754,0,0,1-1.117.911A3.665,3.665,0,0,1,110.683,12.127Zm-.209-5.643a1.146,1.146,0,0,0-.885.37,1.915,1.915,0,0,0-.435,1.058H111.7V7.765a1.366,1.366,0,0,0-.33-.947A1.183,1.183,0,0,0,110.473,6.484ZM33.6,29H31.762V22.132H33.6Zm-1.949-8.646a.9.9,0,0,1,.276-.679,1.19,1.19,0,0,1,1.5,0,.969.969,0,0,1,0,1.365,1.177,1.177,0,0,1-1.492,0A.9.9,0,0,1,31.654,20.354ZM36.8,22.132l.057.793A2.4,2.4,0,0,1,38.833,22a1.993,1.993,0,0,1,1.625.641A2.991,2.991,0,0,1,41,24.563V29H39.17V24.607a1.19,1.19,0,0,0-.254-.847,1.137,1.137,0,0,0-.844-.263,1.262,1.262,0,0,0-1.162.66V29H35.076V22.132Zm7.789-1.688v1.688h1.174v1.346H44.591v3.428a.818.818,0,0,0,.146.546.733.733,0,0,0,.559.165,2.925,2.925,0,0,0,.54-.044v1.39a3.777,3.777,0,0,1-1.111.165,1.752,1.752,0,0,1-1.968-1.949v-3.7h-1V22.132h1V20.443Zm5.357,8.684a3.372,3.372,0,0,1-2.46-.927,3.294,3.294,0,0,1-.949-2.469v-.178a4.149,4.149,0,0,1,.4-1.85,2.935,2.935,0,0,1,1.133-1.257A3.18,3.18,0,0,1,49.745,22a2.85,2.85,0,0,1,2.219.889,3.611,3.611,0,0,1,.809,2.52v.749H48.4a1.7,1.7,0,0,0,.536,1.079,1.621,1.621,0,0,0,1.133.406,1.98,1.98,0,0,0,1.657-.768l.9,1.009a2.754,2.754,0,0,1-1.117.911A3.665,3.665,0,0,1,49.948,29.127Zm-.209-5.643a1.146,1.146,0,0,0-.885.37,1.915,1.915,0,0,0-.435,1.058H50.97v-.147a1.366,1.366,0,0,0-.33-.947A1.183,1.183,0,0,0,49.739,23.484Zm7.935.368a4.984,4.984,0,0,0-.66-.051,1.344,1.344,0,0,0-1.365.7V29H53.814V22.132h1.733l.051.819A1.7,1.7,0,0,1,57.127,22a1.922,1.922,0,0,1,.571.083Zm7.065,1.777a4.119,4.119,0,0,1-.72,2.542,2.31,2.31,0,0,1-1.946.955A2.14,2.14,0,0,1,60.39,28.4v3.237H58.556V22.132h1.7l.063.673A2.156,2.156,0,0,1,62.06,22a2.326,2.326,0,0,1,1.974.939,4.231,4.231,0,0,1,.7,2.59ZM62.9,25.5a2.7,2.7,0,0,0-.34-1.479,1.106,1.106,0,0,0-.987-.521,1.2,1.2,0,0,0-1.187.66v2.812a1.222,1.222,0,0,0,1.2.679Q62.9,27.648,62.9,25.5Zm6.83-1.644a4.984,4.984,0,0,0-.66-.051,1.344,1.344,0,0,0-1.365.7V29H65.875V22.132h1.733l.051.819A1.7,1.7,0,0,1,69.188,22a1.922,1.922,0,0,1,.571.083Zm3.923,5.275A3.372,3.372,0,0,1,71.2,28.2a3.294,3.294,0,0,1-.949-2.469v-.178a4.149,4.149,0,0,1,.4-1.85,2.935,2.935,0,0,1,1.133-1.257A3.18,3.18,0,0,1,73.454,22a2.85,2.85,0,0,1,2.219.889,3.611,3.611,0,0,1,.809,2.52v.749H72.108a1.7,1.7,0,0,0,.536,1.079,1.621,1.621,0,0,0,1.133.406,1.98,1.98,0,0,0,1.657-.768l.9,1.009a2.754,2.754,0,0,1-1.117.911A3.665,3.665,0,0,1,73.657,29.127Zm-.209-5.643a1.146,1.146,0,0,0-.885.37,1.915,1.915,0,0,0-.435,1.058h2.552v-.147a1.366,1.366,0,0,0-.33-.947A1.183,1.183,0,0,0,73.447,23.484Zm6.271-3.041v1.688h1.174v1.346H79.719v3.428a.818.818,0,0,0,.146.546.733.733,0,0,0,.559.165,2.925,2.925,0,0,0,.54-.044v1.39a3.777,3.777,0,0,1-1.111.165,1.752,1.752,0,0,1-1.968-1.949v-3.7h-1V22.132h1V20.443ZM85.9,29a2.037,2.037,0,0,1-.184-.616,2.22,2.22,0,0,1-1.733.743,2.439,2.439,0,0,1-1.673-.584,1.878,1.878,0,0,1-.663-1.473,1.941,1.941,0,0,1,.809-1.676,3.994,3.994,0,0,1,2.339-.59h.844v-.394a1.132,1.132,0,0,0-.244-.762.961.961,0,0,0-.771-.286,1.093,1.093,0,0,0-.727.222.755.755,0,0,0-.263.609H81.794a1.843,1.843,0,0,1,.368-1.1,2.434,2.434,0,0,1,1.041-.8A3.794,3.794,0,0,1,84.714,22a3,3,0,0,1,2.015.638,2.232,2.232,0,0,1,.746,1.793v2.977a3.284,3.284,0,0,0,.273,1.479V29Zm-1.517-1.276a1.58,1.58,0,0,0,.749-.181,1.188,1.188,0,0,0,.508-.486V25.877h-.686q-1.377,0-1.466.952l-.006.108a.734.734,0,0,0,.241.565A.937.937,0,0,0,84.378,27.724Zm7.363-.076a1.2,1.2,0,0,0,.825-.279.979.979,0,0,0,.33-.743h1.72a2.353,2.353,0,0,1-.381,1.279,2.513,2.513,0,0,1-1.025.9,3.208,3.208,0,0,1-1.438.321,2.982,2.982,0,0,1-2.323-.936A3.705,3.705,0,0,1,88.6,25.6v-.121a3.663,3.663,0,0,1,.844-2.533A2.947,2.947,0,0,1,91.76,22a2.889,2.889,0,0,1,2.066.733,2.6,2.6,0,0,1,.79,1.952H92.9a1.261,1.261,0,0,0-.33-.871,1.227,1.227,0,0,0-1.806.132,2.708,2.708,0,0,0-.327,1.516v.191a2.742,2.742,0,0,0,.324,1.526A1.119,1.119,0,0,0,91.741,27.648ZM97.6,29H95.759V22.132H97.6Zm-1.949-8.646a.9.9,0,0,1,.276-.679,1.19,1.19,0,0,1,1.5,0,.969.969,0,0,1,0,1.365,1.177,1.177,0,0,1-1.492,0A.9.9,0,0,1,95.651,20.354ZM98.825,25.5a4.073,4.073,0,0,1,.394-1.822,2.881,2.881,0,0,1,1.133-1.238A3.306,3.306,0,0,1,102.069,22a3.127,3.127,0,0,1,2.269.851,3.414,3.414,0,0,1,.981,2.311l.013.47a3.59,3.59,0,0,1-.882,2.536,3.42,3.42,0,0,1-4.739,0,3.653,3.653,0,0,1-.885-2.59Zm1.834.13a2.567,2.567,0,0,0,.368,1.5,1.323,1.323,0,0,0,2.095.006A2.809,2.809,0,0,0,103.5,25.5a2.542,2.542,0,0,0-.375-1.488,1.217,1.217,0,0,0-1.054-.528,1.2,1.2,0,0,0-1.041.524A2.857,2.857,0,0,0,100.66,25.633Zm1.771-6.383h2l-1.758,1.968H101.18Zm5.719,2.882.057.793a2.4,2.4,0,0,1,1.974-.92,1.993,1.993,0,0,1,1.625.641,2.991,2.991,0,0,1,.546,1.917V29h-1.834V24.607a1.19,1.19,0,0,0-.254-.847,1.137,1.137,0,0,0-.844-.263,1.262,1.262,0,0,0-1.162.66V29h-1.834V22.132Z" transform="translate(1095 2105)" fill="#12263f"/>
            <path id="Trazado_875140" data-name="Trazado 875140" d="M39.589,9.067a3.4,3.4,0,0,1-1.082,2.263,3.547,3.547,0,0,1-2.422.8,3.257,3.257,0,0,1-2.625-1.174,4.724,4.724,0,0,1-.987-3.142V6.922a5.266,5.266,0,0,1,.46-2.266,3.438,3.438,0,0,1,1.3-1.5,3.632,3.632,0,0,1,1.955-.524,3.34,3.34,0,0,1,2.361.822,3.441,3.441,0,0,1,1.035,2.276H38.364a2.655,2.655,0,0,0-.689-1.6,2.084,2.084,0,0,0-1.482-.5,2.181,2.181,0,0,0-1.831.864A3.966,3.966,0,0,0,33.7,6.95v.9a4.077,4.077,0,0,0,.628,2.4,2.031,2.031,0,0,0,1.758.889,2.345,2.345,0,0,0,1.558-.46,2.554,2.554,0,0,0,.72-1.6ZM40.757,8.5a4.057,4.057,0,0,1,.4-1.815,2.96,2.96,0,0,1,1.1-1.244A3.007,3.007,0,0,1,43.874,5a2.9,2.9,0,0,1,2.269.971,3.736,3.736,0,0,1,.866,2.583v.083a4.092,4.092,0,0,1-.384,1.8,2.916,2.916,0,0,1-1.1,1.241,3.041,3.041,0,0,1-1.641.444,2.889,2.889,0,0,1-2.263-.971,3.718,3.718,0,0,1-.866-2.571Zm1.181.14a2.938,2.938,0,0,0,.53,1.834,1.8,1.8,0,0,0,2.841-.01A3.213,3.213,0,0,0,45.835,8.5,2.933,2.933,0,0,0,45.3,6.671a1.705,1.705,0,0,0-1.425-.7,1.686,1.686,0,0,0-1.4.692A3.189,3.189,0,0,0,41.938,8.642Zm7.655-3.51L49.631,6A2.5,2.5,0,0,1,51.688,5q2.177,0,2.2,2.457V12H52.709V7.455a1.581,1.581,0,0,0-.34-1.1A1.361,1.361,0,0,0,51.332,6a1.7,1.7,0,0,0-1,.3,2.069,2.069,0,0,0-.673.8V12H48.482V5.132ZM55.344,8.5a4.057,4.057,0,0,1,.4-1.815,2.96,2.96,0,0,1,1.1-1.244A3.007,3.007,0,0,1,58.46,5a2.9,2.9,0,0,1,2.269.971A3.736,3.736,0,0,1,61.6,8.56v.083a4.092,4.092,0,0,1-.384,1.8,2.916,2.916,0,0,1-1.1,1.241,3.041,3.041,0,0,1-1.641.444,2.889,2.889,0,0,1-2.263-.971,3.718,3.718,0,0,1-.866-2.571Zm1.181.14a2.938,2.938,0,0,0,.53,1.834,1.8,1.8,0,0,0,2.841-.01A3.213,3.213,0,0,0,60.422,8.5a2.933,2.933,0,0,0-.536-1.831,1.705,1.705,0,0,0-1.425-.7,1.686,1.686,0,0,0-1.4.692A3.189,3.189,0,0,0,56.524,8.642Zm9.3,2.526a1.691,1.691,0,0,0,1.1-.381,1.34,1.34,0,0,0,.521-.952h1.111a2.13,2.13,0,0,1-.406,1.124,2.676,2.676,0,0,1-1,.851,2.885,2.885,0,0,1-1.323.317,2.829,2.829,0,0,1-2.231-.936,3.729,3.729,0,0,1-.828-2.561v-.2a4.135,4.135,0,0,1,.368-1.784,2.8,2.8,0,0,1,1.057-1.212A3,3,0,0,1,65.817,5a2.755,2.755,0,0,1,1.92.692,2.473,2.473,0,0,1,.816,1.8H67.442a1.618,1.618,0,0,0-.5-1.095,1.57,1.57,0,0,0-1.12-.428,1.644,1.644,0,0,0-1.387.644,3.026,3.026,0,0,0-.492,1.863V8.7a2.966,2.966,0,0,0,.489,1.828A1.651,1.651,0,0,0,65.824,11.168ZM71.149,12H69.975V5.132h1.174ZM69.88,3.31a.7.7,0,0,1,.175-.482.655.655,0,0,1,.517-.2.666.666,0,0,1,.521.2.694.694,0,0,1,.178.482.671.671,0,0,1-.178.476.678.678,0,0,1-.521.19.667.667,0,0,1-.517-.19A.678.678,0,0,1,69.88,3.31Zm4.253,1.822.032.762A2.536,2.536,0,0,1,76.2,5a1.964,1.964,0,0,1,1.961,1.1,2.6,2.6,0,0,1,.892-.8,2.634,2.634,0,0,1,1.3-.3q2.26,0,2.3,2.393V12H81.477V7.468a1.577,1.577,0,0,0-.336-1.1A1.482,1.482,0,0,0,80.011,6a1.557,1.557,0,0,0-1.085.39,1.584,1.584,0,0,0-.5,1.051V12H77.243V7.5A1.31,1.31,0,0,0,75.777,6a1.571,1.571,0,0,0-1.581.984V12H73.022V5.132ZM85.7,12H84.524V5.132H85.7Zm-1.27-8.69a.7.7,0,0,1,.175-.482.655.655,0,0,1,.517-.2.666.666,0,0,1,.521.2.694.694,0,0,1,.178.482.671.671,0,0,1-.178.476.678.678,0,0,1-.521.19.667.667,0,0,1-.517-.19A.678.678,0,0,1,84.429,3.31Zm6,8.817a3,3,0,0,1-2.272-.917,3.4,3.4,0,0,1-.876-2.453V8.541a4.121,4.121,0,0,1,.39-1.825,3.045,3.045,0,0,1,1.092-1.257A2.745,2.745,0,0,1,90.281,5a2.572,2.572,0,0,1,2.082.882,3.82,3.82,0,0,1,.743,2.526V8.9H88.453a2.441,2.441,0,0,0,.594,1.641,1.866,1.866,0,0,0,1.444.625,2.045,2.045,0,0,0,1.054-.254,2.648,2.648,0,0,0,.755-.673l.717.559A2.884,2.884,0,0,1,90.427,12.127ZM90.281,5.97a1.566,1.566,0,0,0-1.193.517,2.515,2.515,0,0,0-.6,1.45h3.44V7.849a2.237,2.237,0,0,0-.482-1.387A1.475,1.475,0,0,0,90.281,5.97Zm5.294-.838L95.613,6A2.5,2.5,0,0,1,97.67,5q2.177,0,2.2,2.457V12H98.692V7.455a1.581,1.581,0,0,0-.34-1.1A1.361,1.361,0,0,0,97.314,6a1.7,1.7,0,0,0-1,.3,2.069,2.069,0,0,0-.673.8V12H94.464V5.132Zm7.655-1.663V5.132h1.282V6.04H103.23V10.3a.953.953,0,0,0,.171.62.721.721,0,0,0,.584.207,2.843,2.843,0,0,0,.559-.076V12a3.424,3.424,0,0,1-.9.126,1.462,1.462,0,0,1-1.187-.476,2.045,2.045,0,0,1-.4-1.352V6.04h-1.25V5.132h1.25V3.469ZM105.446,8.5a4.057,4.057,0,0,1,.4-1.815,2.96,2.96,0,0,1,1.1-1.244A3.007,3.007,0,0,1,108.563,5a2.9,2.9,0,0,1,2.269.971A3.736,3.736,0,0,1,111.7,8.56v.083a4.092,4.092,0,0,1-.384,1.8,2.916,2.916,0,0,1-1.1,1.241,3.041,3.041,0,0,1-1.641.444,2.889,2.889,0,0,1-2.263-.971,3.718,3.718,0,0,1-.866-2.571Zm1.181.14a2.938,2.938,0,0,0,.53,1.834,1.8,1.8,0,0,0,2.841-.01,3.213,3.213,0,0,0,.527-1.965,2.933,2.933,0,0,0-.536-1.831,1.705,1.705,0,0,0-1.425-.7,1.686,1.686,0,0,0-1.4.692A3.189,3.189,0,0,0,106.626,8.642ZM37.789,25.509a4.023,4.023,0,0,1,.749-2.542,2.548,2.548,0,0,1,3.872-.136V19.25h1.174V29H42.506l-.057-.736a2.391,2.391,0,0,1-1.961.863,2.346,2.346,0,0,1-1.946-.978,4.069,4.069,0,0,1-.752-2.552Zm1.174.133a3.046,3.046,0,0,0,.482,1.828,1.56,1.56,0,0,0,1.333.66,1.713,1.713,0,0,0,1.631-1V23.973A1.726,1.726,0,0,0,40.792,23a1.567,1.567,0,0,0-1.346.667A3.354,3.354,0,0,0,38.964,25.642Zm9.293,3.485a3,3,0,0,1-2.272-.917,3.4,3.4,0,0,1-.876-2.453v-.216a4.121,4.121,0,0,1,.39-1.825,3.045,3.045,0,0,1,1.092-1.257A2.745,2.745,0,0,1,48.111,22a2.572,2.572,0,0,1,2.082.882,3.82,3.82,0,0,1,.743,2.526V25.9H46.282a2.441,2.441,0,0,0,.594,1.641,1.866,1.866,0,0,0,1.444.625,2.045,2.045,0,0,0,1.054-.254,2.648,2.648,0,0,0,.755-.673l.717.559A2.884,2.884,0,0,1,48.257,29.127Zm-.146-6.157a1.566,1.566,0,0,0-1.193.517,2.515,2.515,0,0,0-.6,1.45h3.44v-.089a2.237,2.237,0,0,0-.482-1.387A1.475,1.475,0,0,0,48.111,22.97ZM56.788,29H55.614V19.25h1.174Zm6.119,0a2.467,2.467,0,0,1-.165-.724,2.62,2.62,0,0,1-1.955.851,2.424,2.424,0,0,1-1.666-.574A1.859,1.859,0,0,1,58.47,27.1a1.942,1.942,0,0,1,.816-1.666,3.846,3.846,0,0,1,2.295-.594h1.143V24.3a1.319,1.319,0,0,0-.368-.981,1.48,1.48,0,0,0-1.085-.365,1.712,1.712,0,0,0-1.054.317.935.935,0,0,0-.425.768H58.61a1.621,1.621,0,0,1,.365-.993,2.491,2.491,0,0,1,.99-.759A3.331,3.331,0,0,1,61.339,22a2.715,2.715,0,0,1,1.86.594,2.141,2.141,0,0,1,.7,1.635v3.161a3.865,3.865,0,0,0,.241,1.5V29Zm-1.949-.9a2.064,2.064,0,0,0,1.047-.286,1.728,1.728,0,0,0,.717-.743V25.667H61.8q-2.158,0-2.158,1.263a1.069,1.069,0,0,0,.368.863A1.415,1.415,0,0,0,60.958,28.1Zm9.274.9H69.058V19.25h1.174Zm4.729.127a3,3,0,0,1-2.272-.917,3.4,3.4,0,0,1-.876-2.453v-.216a4.121,4.121,0,0,1,.39-1.825,3.045,3.045,0,0,1,1.092-1.257A2.745,2.745,0,0,1,74.815,22a2.572,2.572,0,0,1,2.082.882,3.82,3.82,0,0,1,.743,2.526V25.9H72.987a2.441,2.441,0,0,0,.594,1.641,1.866,1.866,0,0,0,1.444.625,2.045,2.045,0,0,0,1.054-.254,2.648,2.648,0,0,0,.755-.673l.717.559A2.884,2.884,0,0,1,74.961,29.127Zm-.146-6.157a1.566,1.566,0,0,0-1.193.517,2.515,2.515,0,0,0-.6,1.45h3.44v-.089a2.237,2.237,0,0,0-.482-1.387A1.475,1.475,0,0,0,74.815,22.97Zm5.294-.838.038.863A2.5,2.5,0,0,1,82.2,22q2.177,0,2.2,2.457V29H83.226V24.455a1.581,1.581,0,0,0-.34-1.1A1.361,1.361,0,0,0,81.848,23a1.7,1.7,0,0,0-1,.3,2.069,2.069,0,0,0-.673.8V29H79V22.132Zm5.783,3.377a4.037,4.037,0,0,1,.743-2.555,2.56,2.56,0,0,1,3.929-.06l.057-.762h1.073v6.7a2.794,2.794,0,0,1-.79,2.1,2.916,2.916,0,0,1-2.123.768,3.532,3.532,0,0,1-1.454-.317,2.5,2.5,0,0,1-1.085-.87l.609-.7a2.3,2.3,0,0,0,1.847.933,1.8,1.8,0,0,0,1.336-.482,1.844,1.844,0,0,0,.479-1.358v-.59a2.414,2.414,0,0,1-1.923.813,2.346,2.346,0,0,1-1.952-.971A4.244,4.244,0,0,1,85.892,25.509Zm1.181.133a3.08,3.08,0,0,0,.476,1.825,1.547,1.547,0,0,0,1.333.663,1.72,1.72,0,0,0,1.631-1.009V23.985A1.74,1.74,0,0,0,88.894,23a1.561,1.561,0,0,0-1.339.667A3.354,3.354,0,0,0,87.073,25.642ZM97.7,28.321a2.494,2.494,0,0,1-2.012.806,2.135,2.135,0,0,1-1.673-.638,2.761,2.761,0,0,1-.581-1.888V22.132h1.174v4.437q0,1.562,1.27,1.562a1.758,1.758,0,0,0,1.79-1v-5h1.174V29H97.73Zm7.167.679a2.467,2.467,0,0,1-.165-.724,2.62,2.62,0,0,1-1.955.851,2.424,2.424,0,0,1-1.666-.574,1.859,1.859,0,0,1-.651-1.457,1.942,1.942,0,0,1,.816-1.666,3.846,3.846,0,0,1,2.295-.594h1.143V24.3a1.319,1.319,0,0,0-.368-.981,1.48,1.48,0,0,0-1.085-.365,1.712,1.712,0,0,0-1.054.317.935.935,0,0,0-.425.768h-1.181a1.621,1.621,0,0,1,.365-.993,2.491,2.491,0,0,1,.99-.759A3.331,3.331,0,0,1,103.3,22a2.715,2.715,0,0,1,1.86.594,2.141,2.141,0,0,1,.7,1.635v3.161a3.865,3.865,0,0,0,.241,1.5V29Zm-1.949-.9a2.064,2.064,0,0,0,1.047-.286,1.728,1.728,0,0,0,.717-.743V25.667h-.92q-2.158,0-2.158,1.263a1.069,1.069,0,0,0,.368.863A1.415,1.415,0,0,0,102.923,28.1Z" transform="translate(362 2180)" fill="#12263f"/>
            <path id="Trazado_875135" data-name="Trazado 875135" d="M32.7,9.067a3.4,3.4,0,0,1-1.082,2.263,3.547,3.547,0,0,1-2.422.8,3.257,3.257,0,0,1-2.625-1.174,4.724,4.724,0,0,1-.987-3.142V6.922a5.266,5.266,0,0,1,.46-2.266,3.438,3.438,0,0,1,1.3-1.5A3.632,3.632,0,0,1,29.3,2.631a3.34,3.34,0,0,1,2.361.822A3.441,3.441,0,0,1,32.7,5.729H31.47a2.655,2.655,0,0,0-.689-1.6,2.084,2.084,0,0,0-1.482-.5,2.181,2.181,0,0,0-1.831.864A3.966,3.966,0,0,0,26.8,6.95v.9a4.077,4.077,0,0,0,.628,2.4,2.031,2.031,0,0,0,1.758.889,2.345,2.345,0,0,0,1.558-.46,2.554,2.554,0,0,0,.72-1.6ZM33.863,8.5a4.057,4.057,0,0,1,.4-1.815,2.96,2.96,0,0,1,1.1-1.244A3.007,3.007,0,0,1,36.98,5a2.9,2.9,0,0,1,2.269.971,3.736,3.736,0,0,1,.866,2.583v.083a4.092,4.092,0,0,1-.384,1.8,2.916,2.916,0,0,1-1.1,1.241,3.041,3.041,0,0,1-1.641.444,2.889,2.889,0,0,1-2.263-.971,3.718,3.718,0,0,1-.866-2.571Zm1.181.14a2.938,2.938,0,0,0,.53,1.834,1.8,1.8,0,0,0,2.841-.01A3.213,3.213,0,0,0,38.941,8.5a2.933,2.933,0,0,0-.536-1.831,1.705,1.705,0,0,0-1.425-.7,1.686,1.686,0,0,0-1.4.692A3.189,3.189,0,0,0,35.044,8.642ZM42.7,5.132,42.737,6A2.5,2.5,0,0,1,44.794,5q2.177,0,2.2,2.457V12H45.816V7.455a1.581,1.581,0,0,0-.34-1.1A1.361,1.361,0,0,0,44.438,6a1.7,1.7,0,0,0-1,.3,2.069,2.069,0,0,0-.673.8V12H41.588V5.132ZM52.76,10.178a.865.865,0,0,0-.359-.74,3.452,3.452,0,0,0-1.25-.454,5.912,5.912,0,0,1-1.416-.457,2.014,2.014,0,0,1-.774-.635,1.518,1.518,0,0,1-.251-.876,1.782,1.782,0,0,1,.714-1.428A2.789,2.789,0,0,1,51.25,5a2.87,2.87,0,0,1,1.895.6,1.915,1.915,0,0,1,.727,1.542H52.69a1.06,1.06,0,0,0-.409-.832A1.534,1.534,0,0,0,51.25,5.97a1.605,1.605,0,0,0-1,.279.879.879,0,0,0-.362.73.712.712,0,0,0,.336.641,4.139,4.139,0,0,0,1.216.413,6.334,6.334,0,0,1,1.425.47,2.079,2.079,0,0,1,.809.657,1.615,1.615,0,0,1,.263.936,1.758,1.758,0,0,1-.736,1.476,3.089,3.089,0,0,1-1.911.555,3.459,3.459,0,0,1-1.46-.292,2.375,2.375,0,0,1-.993-.816,1.966,1.966,0,0,1-.359-1.133H49.65a1.216,1.216,0,0,0,.473.936,1.835,1.835,0,0,0,1.165.346,1.894,1.894,0,0,0,1.07-.27A.829.829,0,0,0,52.76,10.178Zm4.3-6.709V5.132H58.34V6.04H57.058V10.3a.953.953,0,0,0,.171.62.721.721,0,0,0,.584.207,2.843,2.843,0,0,0,.559-.076V12a3.424,3.424,0,0,1-.9.126,1.462,1.462,0,0,1-1.187-.476,2.045,2.045,0,0,1-.4-1.352V6.04h-1.25V5.132h1.25V3.469Zm5.973,2.717a3.519,3.519,0,0,0-.578-.044,1.547,1.547,0,0,0-1.568.984V12H59.711V5.132h1.143l.019.793A1.829,1.829,0,0,1,62.51,5a1.2,1.2,0,0,1,.521.089Zm5.319,5.135a2.494,2.494,0,0,1-2.012.806,2.135,2.135,0,0,1-1.673-.638A2.761,2.761,0,0,1,64.084,9.6V5.132h1.174V9.569q0,1.562,1.27,1.562a1.758,1.758,0,0,0,1.79-1v-5h1.174V12H68.375Zm5.681-.152a1.691,1.691,0,0,0,1.1-.381,1.34,1.34,0,0,0,.521-.952h1.111a2.13,2.13,0,0,1-.406,1.124,2.676,2.676,0,0,1-1,.851,2.885,2.885,0,0,1-1.323.317,2.829,2.829,0,0,1-2.231-.936,3.729,3.729,0,0,1-.828-2.561v-.2a4.135,4.135,0,0,1,.368-1.784A2.8,2.8,0,0,1,72.4,5.437,3,3,0,0,1,74.025,5a2.755,2.755,0,0,1,1.92.692,2.473,2.473,0,0,1,.816,1.8H75.65a1.618,1.618,0,0,0-.5-1.095,1.57,1.57,0,0,0-1.12-.428,1.644,1.644,0,0,0-1.387.644,3.026,3.026,0,0,0-.492,1.863V8.7a2.966,2.966,0,0,0,.489,1.828A1.651,1.651,0,0,0,74.031,11.168Zm6.8,0a1.691,1.691,0,0,0,1.1-.381,1.34,1.34,0,0,0,.521-.952h1.111a2.13,2.13,0,0,1-.406,1.124,2.676,2.676,0,0,1-1,.851,2.885,2.885,0,0,1-1.323.317,2.829,2.829,0,0,1-2.231-.936,3.729,3.729,0,0,1-.828-2.561v-.2a4.135,4.135,0,0,1,.368-1.784A2.8,2.8,0,0,1,79.2,5.437,3,3,0,0,1,80.83,5a2.755,2.755,0,0,1,1.92.692,2.473,2.473,0,0,1,.816,1.8H82.455a1.618,1.618,0,0,0-.5-1.095,1.57,1.57,0,0,0-1.12-.428,1.644,1.644,0,0,0-1.387.644,3.026,3.026,0,0,0-.492,1.863V8.7a2.966,2.966,0,0,0,.489,1.828A1.651,1.651,0,0,0,80.836,11.168ZM86.162,12H84.987V5.132h1.174Zm-1.27-8.69a.7.7,0,0,1,.175-.482.655.655,0,0,1,.517-.2.666.666,0,0,1,.521.2.694.694,0,0,1,.178.482.671.671,0,0,1-.178.476.678.678,0,0,1-.521.19.667.667,0,0,1-.517-.19A.678.678,0,0,1,84.892,3.31ZM87.729,8.5a4.057,4.057,0,0,1,.4-1.815,2.96,2.96,0,0,1,1.1-1.244A3.007,3.007,0,0,1,90.846,5a2.9,2.9,0,0,1,2.269.971,3.736,3.736,0,0,1,.866,2.583v.083a4.092,4.092,0,0,1-.384,1.8,2.916,2.916,0,0,1-1.1,1.241,3.041,3.041,0,0,1-1.641.444,2.889,2.889,0,0,1-2.263-.971,3.718,3.718,0,0,1-.866-2.571Zm1.181.14a2.938,2.938,0,0,0,.53,1.834,1.8,1.8,0,0,0,2.841-.01A3.213,3.213,0,0,0,92.808,8.5a2.933,2.933,0,0,0-.536-1.831,1.705,1.705,0,0,0-1.425-.7,1.686,1.686,0,0,0-1.4.692A3.189,3.189,0,0,0,88.91,8.642ZM91.379,2.25H92.8L91.1,4.116l-.946,0Zm5.186,2.882L96.6,6A2.5,2.5,0,0,1,98.66,5q2.177,0,2.2,2.457V12H99.682V7.455a1.581,1.581,0,0,0-.34-1.1A1.361,1.361,0,0,0,98.3,6a1.7,1.7,0,0,0-1,.3,2.069,2.069,0,0,0-.673.8V12H95.455V5.132Zm8.995,3.377a4.023,4.023,0,0,1,.749-2.542,2.548,2.548,0,0,1,3.872-.136V2.25h1.174V12h-1.079l-.057-.736a2.391,2.391,0,0,1-1.961.863,2.346,2.346,0,0,1-1.946-.978A4.069,4.069,0,0,1,105.56,8.6Zm1.174.133a3.046,3.046,0,0,0,.482,1.828,1.56,1.56,0,0,0,1.333.66,1.713,1.713,0,0,0,1.631-1V6.973A1.726,1.726,0,0,0,108.563,6a1.567,1.567,0,0,0-1.346.667A3.354,3.354,0,0,0,106.734,8.642Zm9.293,3.485a3,3,0,0,1-2.272-.917,3.4,3.4,0,0,1-.876-2.453V8.541a4.121,4.121,0,0,1,.39-1.825,3.045,3.045,0,0,1,1.092-1.257A2.745,2.745,0,0,1,115.881,5a2.572,2.572,0,0,1,2.082.882,3.82,3.82,0,0,1,.743,2.526V8.9h-4.653a2.441,2.441,0,0,0,.594,1.641,1.866,1.866,0,0,0,1.444.625,2.045,2.045,0,0,0,1.054-.254,2.648,2.648,0,0,0,.755-.673l.717.559A2.884,2.884,0,0,1,116.027,12.127Zm-.146-6.157a1.566,1.566,0,0,0-1.193.517,2.515,2.515,0,0,0-.6,1.45h3.44V7.849a2.237,2.237,0,0,0-.482-1.387A1.475,1.475,0,0,0,115.881,5.97ZM41.887,27.178a.865.865,0,0,0-.359-.74,3.452,3.452,0,0,0-1.25-.454,5.912,5.912,0,0,1-1.416-.457,2.014,2.014,0,0,1-.774-.635,1.518,1.518,0,0,1-.251-.876,1.782,1.782,0,0,1,.714-1.428A2.789,2.789,0,0,1,40.376,22a2.87,2.87,0,0,1,1.895.6A1.915,1.915,0,0,1,43,24.15H41.817a1.06,1.06,0,0,0-.409-.832,1.534,1.534,0,0,0-1.031-.349,1.606,1.606,0,0,0-1,.279.879.879,0,0,0-.362.73.712.712,0,0,0,.336.641,4.139,4.139,0,0,0,1.216.413,6.334,6.334,0,0,1,1.425.47,2.079,2.079,0,0,1,.809.657,1.615,1.615,0,0,1,.263.936,1.758,1.758,0,0,1-.736,1.476,3.089,3.089,0,0,1-1.911.555,3.459,3.459,0,0,1-1.46-.292,2.375,2.375,0,0,1-.993-.816,1.966,1.966,0,0,1-.359-1.133h1.174a1.216,1.216,0,0,0,.473.936,1.835,1.835,0,0,0,1.165.346,1.894,1.894,0,0,0,1.07-.27A.829.829,0,0,0,41.887,27.178ZM45.867,29H44.692V22.132h1.174ZM44.6,20.31a.7.7,0,0,1,.175-.482.655.655,0,0,1,.517-.2.666.666,0,0,1,.521.2.694.694,0,0,1,.178.482.671.671,0,0,1-.178.476.678.678,0,0,1-.521.19.667.667,0,0,1-.517-.19A.678.678,0,0,1,44.6,20.31Zm2.869,5.2a4.037,4.037,0,0,1,.743-2.555,2.56,2.56,0,0,1,3.929-.06l.057-.762h1.073v6.7a2.794,2.794,0,0,1-.79,2.1,2.916,2.916,0,0,1-2.123.768,3.532,3.532,0,0,1-1.454-.317,2.5,2.5,0,0,1-1.085-.87l.609-.7a2.3,2.3,0,0,0,1.847.933,1.8,1.8,0,0,0,1.336-.482,1.844,1.844,0,0,0,.479-1.358v-.59a2.414,2.414,0,0,1-1.923.813,2.346,2.346,0,0,1-1.952-.971A4.244,4.244,0,0,1,47.466,25.509Zm1.181.133a3.08,3.08,0,0,0,.476,1.825,1.547,1.547,0,0,0,1.333.663,1.72,1.72,0,0,0,1.631-1.009V23.985A1.74,1.74,0,0,0,50.469,23a1.561,1.561,0,0,0-1.339.667A3.354,3.354,0,0,0,48.647,25.642Zm7.5-3.51.038.863A2.5,2.5,0,0,1,58.245,22q2.177,0,2.2,2.457V29H59.267V24.455a1.581,1.581,0,0,0-.34-1.1A1.361,1.361,0,0,0,57.889,23a1.7,1.7,0,0,0-1,.3,2.069,2.069,0,0,0-.673.8V29H55.039V22.132ZM63.488,29H62.313V22.132h1.174Zm-1.27-8.69a.7.7,0,0,1,.175-.482.655.655,0,0,1,.517-.2.666.666,0,0,1,.521.2.694.694,0,0,1,.178.482.671.671,0,0,1-.178.476.678.678,0,0,1-.521.19.667.667,0,0,1-.517-.19A.678.678,0,0,1,62.218,20.31ZM65.76,29V23.04H64.675v-.908H65.76v-.584a2.386,2.386,0,0,1,.657-1.79,2.548,2.548,0,0,1,1.857-.641,5.591,5.591,0,0,1,1.8.387l-.2.99a4.069,4.069,0,0,0-1.511-.317,1.478,1.478,0,0,0-1.089.34,1.4,1.4,0,0,0-.333,1.019v.6h1.4v.908h-1.4V29Zm4.894,0H69.474V22.132h1.181Zm4.666-.832a1.691,1.691,0,0,0,1.1-.381,1.34,1.34,0,0,0,.521-.952h1.111a2.13,2.13,0,0,1-.406,1.124,2.676,2.676,0,0,1-1,.851,2.885,2.885,0,0,1-1.323.317,2.829,2.829,0,0,1-2.231-.936,3.729,3.729,0,0,1-.828-2.561v-.2a4.135,4.135,0,0,1,.368-1.784,2.8,2.8,0,0,1,1.057-1.212A3,3,0,0,1,75.313,22a2.755,2.755,0,0,1,1.92.692,2.473,2.473,0,0,1,.816,1.8H76.938a1.618,1.618,0,0,0-.5-1.095,1.57,1.57,0,0,0-1.12-.428,1.644,1.644,0,0,0-1.387.644,3.026,3.026,0,0,0-.492,1.863V25.7a2.966,2.966,0,0,0,.489,1.828A1.651,1.651,0,0,0,75.32,28.168ZM83.61,29a2.467,2.467,0,0,1-.165-.724,2.62,2.62,0,0,1-1.955.851,2.424,2.424,0,0,1-1.666-.574,1.859,1.859,0,0,1-.651-1.457,1.942,1.942,0,0,1,.816-1.666,3.846,3.846,0,0,1,2.295-.594h1.143V24.3a1.319,1.319,0,0,0-.368-.981,1.48,1.48,0,0,0-1.085-.365,1.712,1.712,0,0,0-1.054.317.935.935,0,0,0-.425.768H79.313a1.621,1.621,0,0,1,.365-.993,2.491,2.491,0,0,1,.99-.759A3.331,3.331,0,0,1,82.042,22a2.715,2.715,0,0,1,1.86.594,2.141,2.141,0,0,1,.7,1.635v3.161a3.865,3.865,0,0,0,.241,1.5V29Zm-1.949-.9a2.064,2.064,0,0,0,1.047-.286,1.728,1.728,0,0,0,.717-.743V25.667h-.92q-2.158,0-2.158,1.263a1.069,1.069,0,0,0,.368.863A1.415,1.415,0,0,0,81.661,28.1Zm4.494-2.6a4.023,4.023,0,0,1,.749-2.542,2.548,2.548,0,0,1,3.872-.136V19.25h1.174V29H90.872l-.057-.736a2.391,2.391,0,0,1-1.961.863,2.346,2.346,0,0,1-1.946-.978,4.069,4.069,0,0,1-.752-2.552Zm1.174.133a3.046,3.046,0,0,0,.482,1.828,1.56,1.56,0,0,0,1.333.66,1.713,1.713,0,0,0,1.631-1V23.973A1.726,1.726,0,0,0,89.158,23a1.567,1.567,0,0,0-1.346.667A3.354,3.354,0,0,0,87.33,25.642Zm6.132-.14a4.057,4.057,0,0,1,.4-1.815,2.96,2.96,0,0,1,1.1-1.244A3.007,3.007,0,0,1,96.578,22a2.9,2.9,0,0,1,2.269.971,3.736,3.736,0,0,1,.866,2.583v.083a4.092,4.092,0,0,1-.384,1.8,2.916,2.916,0,0,1-1.1,1.241,3.041,3.041,0,0,1-1.641.444,2.889,2.889,0,0,1-2.263-.971,3.718,3.718,0,0,1-.866-2.571Zm1.181.14a2.938,2.938,0,0,0,.53,1.834,1.8,1.8,0,0,0,2.841-.01A3.213,3.213,0,0,0,98.54,25.5,2.933,2.933,0,0,0,98,23.671a1.705,1.705,0,0,0-1.425-.7,1.686,1.686,0,0,0-1.4.692A3.189,3.189,0,0,0,94.642,25.642Zm10.543,1.536a.864.864,0,0,0-.359-.74,3.452,3.452,0,0,0-1.25-.454,5.912,5.912,0,0,1-1.416-.457,2.014,2.014,0,0,1-.774-.635,1.518,1.518,0,0,1-.251-.876,1.782,1.782,0,0,1,.714-1.428A2.789,2.789,0,0,1,103.675,22a2.87,2.87,0,0,1,1.895.6,1.915,1.915,0,0,1,.727,1.542h-1.181a1.06,1.06,0,0,0-.409-.832,1.534,1.534,0,0,0-1.031-.349,1.606,1.606,0,0,0-1,.279.879.879,0,0,0-.362.73.712.712,0,0,0,.336.641,4.139,4.139,0,0,0,1.216.413,6.334,6.334,0,0,1,1.425.47,2.079,2.079,0,0,1,.809.657,1.615,1.615,0,0,1,.263.936,1.758,1.758,0,0,1-.736,1.476,3.089,3.089,0,0,1-1.911.555,3.459,3.459,0,0,1-1.46-.292,2.375,2.375,0,0,1-.993-.816,1.966,1.966,0,0,1-.359-1.133h1.174a1.216,1.216,0,0,0,.473.936,1.835,1.835,0,0,0,1.165.346,1.894,1.894,0,0,0,1.07-.27A.829.829,0,0,0,105.186,27.178Z" transform="translate(726 2180)" fill="#12263f"/>
            <path id="Trazado_875134" data-name="Trazado 875134" d="M28.071,3.754H25.1V12H23.888V3.754H20.924v-1h7.147ZM28.319,8.5a4.057,4.057,0,0,1,.4-1.815,2.96,2.96,0,0,1,1.1-1.244A3.007,3.007,0,0,1,31.435,5a2.9,2.9,0,0,1,2.269.971,3.736,3.736,0,0,1,.866,2.583v.083a4.092,4.092,0,0,1-.384,1.8,2.916,2.916,0,0,1-1.1,1.241,3.041,3.041,0,0,1-1.641.444,2.889,2.889,0,0,1-2.263-.971,3.718,3.718,0,0,1-.866-2.571Zm1.181.14a2.938,2.938,0,0,0,.53,1.834,1.8,1.8,0,0,0,2.841-.01A3.213,3.213,0,0,0,33.4,8.5a2.933,2.933,0,0,0-.536-1.831,1.705,1.705,0,0,0-1.425-.7,1.686,1.686,0,0,0-1.4.692A3.189,3.189,0,0,0,29.5,8.642Zm7.649-3.51.032.762A2.536,2.536,0,0,1,39.218,5a1.964,1.964,0,0,1,1.961,1.1,2.6,2.6,0,0,1,.892-.8,2.634,2.634,0,0,1,1.3-.3q2.26,0,2.3,2.393V12H44.492V7.468a1.577,1.577,0,0,0-.336-1.1A1.482,1.482,0,0,0,43.026,6a1.557,1.557,0,0,0-1.085.39,1.584,1.584,0,0,0-.5,1.051V12H40.259V7.5A1.31,1.31,0,0,0,38.792,6a1.571,1.571,0,0,0-1.581.984V12H36.037V5.132ZM51.678,12a2.467,2.467,0,0,1-.165-.724,2.62,2.62,0,0,1-1.955.851,2.424,2.424,0,0,1-1.666-.574,1.859,1.859,0,0,1-.651-1.457,1.942,1.942,0,0,1,.816-1.666,3.846,3.846,0,0,1,2.295-.594h1.143V7.3a1.319,1.319,0,0,0-.368-.981,1.48,1.48,0,0,0-1.085-.365,1.712,1.712,0,0,0-1.054.317.935.935,0,0,0-.425.768H47.381a1.621,1.621,0,0,1,.365-.993,2.491,2.491,0,0,1,.99-.759A3.331,3.331,0,0,1,50.11,5a2.715,2.715,0,0,1,1.86.594,2.141,2.141,0,0,1,.7,1.635v3.161a3.865,3.865,0,0,0,.241,1.5V12Zm-1.949-.9a2.064,2.064,0,0,0,1.047-.286,1.728,1.728,0,0,0,.717-.743V8.667h-.92q-2.158,0-2.158,1.263a1.069,1.069,0,0,0,.368.863A1.415,1.415,0,0,0,49.729,11.1Zm7.712-2.6a4.023,4.023,0,0,1,.749-2.542,2.548,2.548,0,0,1,3.872-.136V2.25h1.174V12H62.158l-.057-.736a2.391,2.391,0,0,1-1.961.863,2.346,2.346,0,0,1-1.946-.978A4.069,4.069,0,0,1,57.442,8.6Zm1.174.133A3.046,3.046,0,0,0,59.1,10.47a1.56,1.56,0,0,0,1.333.66,1.713,1.713,0,0,0,1.631-1V6.973A1.726,1.726,0,0,0,60.444,6a1.567,1.567,0,0,0-1.346.667A3.354,3.354,0,0,0,58.616,8.642Zm9.293,3.485a3,3,0,0,1-2.272-.917,3.4,3.4,0,0,1-.876-2.453V8.541a4.121,4.121,0,0,1,.39-1.825,3.045,3.045,0,0,1,1.092-1.257A2.745,2.745,0,0,1,67.763,5a2.572,2.572,0,0,1,2.082.882,3.82,3.82,0,0,1,.743,2.526V8.9H65.935a2.441,2.441,0,0,0,.594,1.641,1.866,1.866,0,0,0,1.444.625,2.045,2.045,0,0,0,1.054-.254,2.648,2.648,0,0,0,.755-.673l.717.559A2.884,2.884,0,0,1,67.909,12.127ZM67.763,5.97a1.566,1.566,0,0,0-1.193.517,2.515,2.515,0,0,0-.6,1.45h3.44V7.849a2.237,2.237,0,0,0-.482-1.387A1.475,1.475,0,0,0,67.763,5.97Zm13.2,2.672a4.113,4.113,0,0,1-.717,2.526,2.3,2.3,0,0,1-1.942.958,2.519,2.519,0,0,1-1.968-.793v3.307H75.164V5.132h1.073l.057.762A2.419,2.419,0,0,1,78.287,5a2.342,2.342,0,0,1,1.958.933,4.157,4.157,0,0,1,.72,2.6Zm-1.174-.133a3.035,3.035,0,0,0-.5-1.834A1.6,1.6,0,0,0,77.938,6a1.726,1.726,0,0,0-1.6.946v3.282a1.73,1.73,0,0,0,1.612.939,1.587,1.587,0,0,0,1.343-.67A3.313,3.313,0,0,0,79.792,8.509ZM82.147,8.5a4.057,4.057,0,0,1,.4-1.815,2.96,2.96,0,0,1,1.1-1.244A3.007,3.007,0,0,1,85.263,5a2.9,2.9,0,0,1,2.269.971A3.736,3.736,0,0,1,88.4,8.56v.083a4.092,4.092,0,0,1-.384,1.8,2.916,2.916,0,0,1-1.1,1.241,3.041,3.041,0,0,1-1.641.444,2.889,2.889,0,0,1-2.263-.971,3.718,3.718,0,0,1-.866-2.571Zm1.181.14a2.938,2.938,0,0,0,.53,1.834,1.8,1.8,0,0,0,2.841-.01A3.213,3.213,0,0,0,87.225,8.5a2.933,2.933,0,0,0-.536-1.831,1.705,1.705,0,0,0-1.425-.7,1.686,1.686,0,0,0-1.4.692A3.189,3.189,0,0,0,83.327,8.642Zm10.543,1.536a.864.864,0,0,0-.359-.74,3.452,3.452,0,0,0-1.25-.454,5.912,5.912,0,0,1-1.416-.457,2.014,2.014,0,0,1-.774-.635,1.518,1.518,0,0,1-.251-.876,1.782,1.782,0,0,1,.714-1.428A2.789,2.789,0,0,1,92.36,5a2.87,2.87,0,0,1,1.895.6,1.915,1.915,0,0,1,.727,1.542H93.8a1.06,1.06,0,0,0-.409-.832A1.534,1.534,0,0,0,92.36,5.97a1.606,1.606,0,0,0-1,.279.879.879,0,0,0-.362.73.712.712,0,0,0,.336.641,4.139,4.139,0,0,0,1.216.413,6.334,6.334,0,0,1,1.425.47,2.079,2.079,0,0,1,.809.657,1.615,1.615,0,0,1,.263.936,1.758,1.758,0,0,1-.736,1.476,3.089,3.089,0,0,1-1.911.555,3.459,3.459,0,0,1-1.46-.292,2.375,2.375,0,0,1-.993-.816,1.966,1.966,0,0,1-.359-1.133H90.76a1.216,1.216,0,0,0,.473.936,1.835,1.835,0,0,0,1.165.346,1.894,1.894,0,0,0,1.07-.27A.829.829,0,0,0,93.871,10.178ZM97.851,12H96.677V5.132h1.174Zm-1.27-8.69a.7.7,0,0,1,.175-.482.655.655,0,0,1,.517-.2.666.666,0,0,1,.521.2.694.694,0,0,1,.178.482.671.671,0,0,1-.178.476.678.678,0,0,1-.521.19.667.667,0,0,1-.517-.19A.678.678,0,0,1,96.581,3.31Zm5.9,7.858a1.691,1.691,0,0,0,1.1-.381,1.34,1.34,0,0,0,.521-.952h1.111a2.13,2.13,0,0,1-.406,1.124,2.676,2.676,0,0,1-1,.851,2.885,2.885,0,0,1-1.323.317,2.829,2.829,0,0,1-2.231-.936,3.729,3.729,0,0,1-.828-2.561v-.2a4.135,4.135,0,0,1,.368-1.784,2.8,2.8,0,0,1,1.057-1.212A3,3,0,0,1,102.478,5a2.755,2.755,0,0,1,1.92.692,2.473,2.473,0,0,1,.816,1.8H104.1a1.618,1.618,0,0,0-.5-1.095,1.57,1.57,0,0,0-1.12-.428,1.644,1.644,0,0,0-1.387.644,3.026,3.026,0,0,0-.492,1.863V8.7a2.966,2.966,0,0,0,.489,1.828A1.651,1.651,0,0,0,102.485,11.168ZM107.81,12h-1.174V5.132h1.174Zm-1.27-8.69a.7.7,0,0,1,.175-.482.655.655,0,0,1,.517-.2.666.666,0,0,1,.521.2.694.694,0,0,1,.178.482.671.671,0,0,1-.178.476.678.678,0,0,1-.521.19.667.667,0,0,1-.517-.19A.678.678,0,0,1,106.541,3.31ZM109.378,8.5a4.057,4.057,0,0,1,.4-1.815,2.96,2.96,0,0,1,1.1-1.244A3.007,3.007,0,0,1,112.495,5a2.9,2.9,0,0,1,2.269.971,3.736,3.736,0,0,1,.866,2.583v.083a4.092,4.092,0,0,1-.384,1.8,2.916,2.916,0,0,1-1.1,1.241,3.041,3.041,0,0,1-1.641.444,2.889,2.889,0,0,1-2.263-.971,3.718,3.718,0,0,1-.866-2.571Zm1.181.14a2.938,2.938,0,0,0,.53,1.834,1.8,1.8,0,0,0,2.841-.01,3.213,3.213,0,0,0,.527-1.965,2.933,2.933,0,0,0-.536-1.831,1.705,1.705,0,0,0-1.425-.7,1.686,1.686,0,0,0-1.4.692A3.189,3.189,0,0,0,110.559,8.642Zm2.469-6.392h1.422l-1.7,1.866-.946,0Zm5.186,2.882.038.863A2.5,2.5,0,0,1,120.309,5q2.177,0,2.2,2.457V12h-1.174V7.455a1.581,1.581,0,0,0-.34-1.1A1.361,1.361,0,0,0,119.953,6a1.7,1.7,0,0,0-1,.3,2.069,2.069,0,0,0-.673.8V12H117.1V5.132Z" transform="translate(1095 2187)" fill="#12263f"/>
            <path id="Trazado_875144" data-name="Trazado 875144" d="M69.179,11.117a2.77,2.77,0,0,1-2.1-.847,3.142,3.142,0,0,1-.809-2.265v-.2a3.8,3.8,0,0,1,.36-1.685,2.811,2.811,0,0,1,1.008-1.16,2.534,2.534,0,0,1,1.4-.419,2.374,2.374,0,0,1,1.922.814,3.526,3.526,0,0,1,.686,2.332v.451H67.356A2.254,2.254,0,0,0,67.9,9.655a1.722,1.722,0,0,0,1.333.577A1.888,1.888,0,0,0,70.21,10a2.444,2.444,0,0,0,.7-.621l.662.516A2.662,2.662,0,0,1,69.179,11.117Zm-.135-5.684a1.446,1.446,0,0,0-1.1.478,2.321,2.321,0,0,0-.551,1.339h3.176V7.168a2.065,2.065,0,0,0-.445-1.28A1.361,1.361,0,0,0,69.044,5.434ZM76.6,9.318a.8.8,0,0,0-.331-.683,3.187,3.187,0,0,0-1.154-.419A5.457,5.457,0,0,1,73.8,7.795a1.859,1.859,0,0,1-.715-.586,1.4,1.4,0,0,1-.231-.809,1.645,1.645,0,0,1,.659-1.318A2.574,2.574,0,0,1,75.2,4.543a2.649,2.649,0,0,1,1.749.557,1.768,1.768,0,0,1,.671,1.424h-1.09a.979.979,0,0,0-.378-.768,1.416,1.416,0,0,0-.952-.322,1.482,1.482,0,0,0-.926.258.812.812,0,0,0-.334.674.658.658,0,0,0,.311.592,3.821,3.821,0,0,0,1.122.381,5.847,5.847,0,0,1,1.315.434,1.919,1.919,0,0,1,.747.606,1.491,1.491,0,0,1,.243.864A1.623,1.623,0,0,1,77,10.6a2.851,2.851,0,0,1-1.764.513,3.193,3.193,0,0,1-1.348-.27,2.192,2.192,0,0,1-.917-.753,1.815,1.815,0,0,1-.331-1.046h1.084a1.122,1.122,0,0,0,.437.864,1.693,1.693,0,0,0,1.075.319,1.748,1.748,0,0,0,.987-.249A.765.765,0,0,0,76.6,9.318Z" transform="translate(728 1980)" fill="#12263f"/>
            <path id="Trazado_875143" data-name="Trazado 875143" d="M.557,7.777a3.721,3.721,0,0,1,.686-2.364,2.221,2.221,0,0,1,1.84-.87A2.22,2.22,0,0,1,4.857,5.3L4.9,4.66h1v8.777H4.816V10.414a2.275,2.275,0,0,1-1.746.7,2.186,2.186,0,0,1-1.831-.894,3.8,3.8,0,0,1-.683-2.37ZM1.641,7.9A2.821,2.821,0,0,0,2.1,9.611a1.463,1.463,0,0,0,1.239.621,1.623,1.623,0,0,0,1.477-.855V6.271a1.628,1.628,0,0,0-1.465-.838A1.474,1.474,0,0,0,2.1,6.058,3.071,3.071,0,0,0,1.641,7.9Zm9.914,2.473a2.3,2.3,0,0,1-1.857.744,1.971,1.971,0,0,1-1.544-.589,2.549,2.549,0,0,1-.536-1.743V4.66H8.7v4.1Q8.7,10.2,9.873,10.2a1.623,1.623,0,0,0,1.652-.926V4.66h1.084V11H11.578Zm5.332.744a2.77,2.77,0,0,1-2.1-.847,3.142,3.142,0,0,1-.809-2.265v-.2a3.8,3.8,0,0,1,.36-1.685,2.811,2.811,0,0,1,1.008-1.16,2.534,2.534,0,0,1,1.4-.419,2.374,2.374,0,0,1,1.922.814,3.526,3.526,0,0,1,.686,2.332v.451H15.064a2.254,2.254,0,0,0,.548,1.515,1.722,1.722,0,0,0,1.333.577A1.888,1.888,0,0,0,17.918,10a2.444,2.444,0,0,0,.7-.621l.662.516A2.662,2.662,0,0,1,16.887,11.117Zm-.135-5.684a1.446,1.446,0,0,0-1.1.478A2.321,2.321,0,0,0,15.1,7.25h3.176V7.168a2.065,2.065,0,0,0-.445-1.28A1.361,1.361,0,0,0,16.752,5.434Zm9.9.2a3.248,3.248,0,0,0-.533-.041,1.428,1.428,0,0,0-1.447.908V11H23.584V4.66h1.055l.018.732a1.688,1.688,0,0,1,1.512-.85,1.107,1.107,0,0,1,.48.082Zm3.516,5.484a2.77,2.77,0,0,1-2.1-.847,3.142,3.142,0,0,1-.809-2.265v-.2a3.8,3.8,0,0,1,.36-1.685,2.811,2.811,0,0,1,1.008-1.16,2.534,2.534,0,0,1,1.4-.419,2.374,2.374,0,0,1,1.922.814,3.526,3.526,0,0,1,.686,2.332v.451H28.342a2.254,2.254,0,0,0,.548,1.515,1.722,1.722,0,0,0,1.333.577A1.888,1.888,0,0,0,31.2,10a2.444,2.444,0,0,0,.7-.621l.662.516A2.662,2.662,0,0,1,30.164,11.117Zm-.135-5.684a1.446,1.446,0,0,0-1.1.478,2.321,2.321,0,0,0-.551,1.339h3.176V7.168a2.065,2.065,0,0,0-.445-1.28A1.361,1.361,0,0,0,30.029,5.434ZM35.068,11H33.984V2h1.084Zm5.648,0a2.277,2.277,0,0,1-.152-.668,2.419,2.419,0,0,1-1.8.785,2.238,2.238,0,0,1-1.538-.53,1.716,1.716,0,0,1-.6-1.345A1.792,1.792,0,0,1,37.374,7.7a3.55,3.55,0,0,1,2.118-.548h1.055v-.5a1.217,1.217,0,0,0-.34-.905,1.366,1.366,0,0,0-1-.337,1.581,1.581,0,0,0-.973.293.863.863,0,0,0-.393.709H36.75a1.5,1.5,0,0,1,.337-.917A2.3,2.3,0,0,1,38,4.8a3.075,3.075,0,0,1,1.269-.258,2.506,2.506,0,0,1,1.717.548A1.976,1.976,0,0,1,41.631,6.6V9.518a3.567,3.567,0,0,0,.223,1.389V11Zm-1.8-.826a1.905,1.905,0,0,0,.967-.264,1.6,1.6,0,0,0,.662-.686v-1.3H39.7q-1.992,0-1.992,1.166a.987.987,0,0,0,.34.8A1.306,1.306,0,0,0,38.918,10.174Zm6.955.059a1.561,1.561,0,0,0,1.014-.352A1.237,1.237,0,0,0,47.367,9h1.025a1.966,1.966,0,0,1-.375,1.037,2.47,2.47,0,0,1-.923.785,2.663,2.663,0,0,1-1.222.293,2.612,2.612,0,0,1-2.06-.864,3.442,3.442,0,0,1-.765-2.364V7.707a3.817,3.817,0,0,1,.34-1.646,2.588,2.588,0,0,1,.976-1.119,2.771,2.771,0,0,1,1.5-.4,2.543,2.543,0,0,1,1.772.639,2.283,2.283,0,0,1,.753,1.658H47.367A1.494,1.494,0,0,0,46.9,5.829a1.449,1.449,0,0,0-1.034-.4,1.517,1.517,0,0,0-1.28.595,2.793,2.793,0,0,0-.454,1.72v.205a2.737,2.737,0,0,0,.451,1.688A1.524,1.524,0,0,0,45.873,10.232ZM50.789,11H49.705V4.66h1.084ZM49.617,2.979a.647.647,0,0,1,.161-.445.6.6,0,0,1,.478-.182.614.614,0,0,1,.48.182.64.64,0,0,1,.164.445.619.619,0,0,1-.164.439.626.626,0,0,1-.48.176.616.616,0,0,1-.478-.176A.626.626,0,0,1,49.617,2.979Zm2.619,4.793A3.745,3.745,0,0,1,52.6,6.1a2.732,2.732,0,0,1,1.02-1.148,2.775,2.775,0,0,1,1.491-.4,2.674,2.674,0,0,1,2.095.9,3.449,3.449,0,0,1,.8,2.385V7.9a3.777,3.777,0,0,1-.354,1.661,2.692,2.692,0,0,1-1.014,1.146,2.807,2.807,0,0,1-1.515.41,2.667,2.667,0,0,1-2.089-.9,3.432,3.432,0,0,1-.8-2.373Zm1.09.129a2.712,2.712,0,0,0,.489,1.693,1.658,1.658,0,0,0,2.622-.009,2.966,2.966,0,0,0,.486-1.813,2.708,2.708,0,0,0-.5-1.69,1.574,1.574,0,0,0-1.315-.647,1.557,1.557,0,0,0-1.295.639A2.944,2.944,0,0,0,53.326,7.9Zm7.066-3.24.035.8a2.31,2.31,0,0,1,1.9-.914q2.01,0,2.027,2.268V11H63.27V6.8a1.459,1.459,0,0,0-.313-1.014A1.256,1.256,0,0,0,62,5.463a1.564,1.564,0,0,0-.926.281,1.91,1.91,0,0,0-.621.738V11H59.367V4.66ZM69.9,11a2.277,2.277,0,0,1-.152-.668,2.419,2.419,0,0,1-1.8.785,2.238,2.238,0,0,1-1.538-.53,1.716,1.716,0,0,1-.6-1.345A1.792,1.792,0,0,1,66.56,7.7a3.55,3.55,0,0,1,2.118-.548h1.055v-.5a1.217,1.217,0,0,0-.34-.905,1.366,1.366,0,0,0-1-.337,1.581,1.581,0,0,0-.973.293.863.863,0,0,0-.393.709h-1.09a1.5,1.5,0,0,1,.337-.917,2.3,2.3,0,0,1,.914-.7,3.075,3.075,0,0,1,1.269-.258,2.506,2.506,0,0,1,1.717.548A1.976,1.976,0,0,1,70.816,6.6V9.518a3.567,3.567,0,0,0,.223,1.389V11Zm-1.8-.826a1.905,1.905,0,0,0,.967-.264,1.6,1.6,0,0,0,.662-.686v-1.3h-.85q-1.992,0-1.992,1.166a.987.987,0,0,0,.34.8A1.306,1.306,0,0,0,68.1,10.174Z" transform="translate(806 2081)" fill="#12263f"/>
            <path id="Trazado_875141" data-name="Trazado 875141" d="M84.124,11H83V2.469h1.125ZM87.03,4.66l.029.7a2.341,2.341,0,0,1,1.881-.82,1.813,1.813,0,0,1,1.811,1.02,2.4,2.4,0,0,1,.823-.738,2.431,2.431,0,0,1,1.2-.281q2.086,0,2.121,2.209V11H93.81V6.816A1.456,1.456,0,0,0,93.5,5.8a1.368,1.368,0,0,0-1.043-.337,1.437,1.437,0,0,0-1,.36,1.462,1.462,0,0,0-.463.97V11H89.9V6.846a1.209,1.209,0,0,0-1.354-1.383,1.45,1.45,0,0,0-1.459.908V11H86V4.66ZM101.884,7.9a3.8,3.8,0,0,1-.662,2.332,2.122,2.122,0,0,1-1.793.885,2.325,2.325,0,0,1-1.816-.732v3.053H96.528V4.66h.99l.053.7a2.233,2.233,0,0,1,1.84-.82,2.162,2.162,0,0,1,1.808.861,3.838,3.838,0,0,1,.665,2.4ZM100.8,7.777a2.8,2.8,0,0,0-.457-1.693,1.472,1.472,0,0,0-1.254-.621,1.593,1.593,0,0,0-1.477.873V9.365a1.6,1.6,0,0,0,1.488.867,1.465,1.465,0,0,0,1.239-.618A3.058,3.058,0,0,0,100.8,7.777ZM104.438,11h-1.084V2h1.084Zm2.912,0h-1.084V4.66h1.084Zm-1.172-8.021a.647.647,0,0,1,.161-.445.6.6,0,0,1,.478-.182.614.614,0,0,1,.48.182.64.64,0,0,1,.164.445.619.619,0,0,1-.164.439.626.626,0,0,1-.48.176.616.616,0,0,1-.478-.176A.626.626,0,0,1,106.179,2.979Zm5.449,7.254a1.561,1.561,0,0,0,1.014-.352,1.237,1.237,0,0,0,.48-.879h1.025a1.966,1.966,0,0,1-.375,1.037,2.47,2.47,0,0,1-.923.785,2.663,2.663,0,0,1-1.222.293,2.612,2.612,0,0,1-2.06-.864,3.442,3.442,0,0,1-.765-2.364V7.707a3.817,3.817,0,0,1,.34-1.646,2.588,2.588,0,0,1,.976-1.119,2.771,2.771,0,0,1,1.5-.4,2.543,2.543,0,0,1,1.772.639,2.283,2.283,0,0,1,.753,1.658h-1.025a1.494,1.494,0,0,0-.466-1.011,1.449,1.449,0,0,0-1.034-.4,1.517,1.517,0,0,0-1.28.595,2.793,2.793,0,0,0-.454,1.72v.205a2.737,2.737,0,0,0,.451,1.688A1.524,1.524,0,0,0,111.628,10.232ZM119.28,11a2.277,2.277,0,0,1-.152-.668,2.419,2.419,0,0,1-1.8.785,2.238,2.238,0,0,1-1.538-.53,1.716,1.716,0,0,1-.6-1.345,1.792,1.792,0,0,1,.753-1.538,3.55,3.55,0,0,1,2.118-.548h1.055v-.5a1.217,1.217,0,0,0-.34-.905,1.366,1.366,0,0,0-1-.337,1.581,1.581,0,0,0-.973.293.863.863,0,0,0-.393.709h-1.09a1.5,1.5,0,0,1,.337-.917,2.3,2.3,0,0,1,.914-.7,3.075,3.075,0,0,1,1.269-.258,2.506,2.506,0,0,1,1.717.548,1.976,1.976,0,0,1,.645,1.509V9.518a3.567,3.567,0,0,0,.223,1.389V11Zm-1.8-.826a1.905,1.905,0,0,0,.967-.264,1.6,1.6,0,0,0,.662-.686v-1.3h-.85q-1.992,0-1.992,1.166a.987.987,0,0,0,.34.8A1.306,1.306,0,0,0,117.481,10.174Z" transform="translate(515 2152)" fill="#12263f"/>
            <path id="Trazado_875142" data-name="Trazado 875142" d="M84.624,11H83.5V2.469h1.125ZM87.53,4.66l.029.7a2.341,2.341,0,0,1,1.881-.82,1.813,1.813,0,0,1,1.811,1.02,2.4,2.4,0,0,1,.823-.738,2.431,2.431,0,0,1,1.2-.281q2.086,0,2.121,2.209V11H94.31V6.816A1.456,1.456,0,0,0,94,5.8a1.368,1.368,0,0,0-1.043-.337,1.437,1.437,0,0,0-1,.36,1.462,1.462,0,0,0-.463.97V11H90.4V6.846a1.209,1.209,0,0,0-1.354-1.383,1.45,1.45,0,0,0-1.459.908V11H86.5V4.66ZM102.384,7.9a3.8,3.8,0,0,1-.662,2.332,2.122,2.122,0,0,1-1.793.885,2.325,2.325,0,0,1-1.816-.732v3.053H97.028V4.66h.99l.053.7a2.233,2.233,0,0,1,1.84-.82,2.162,2.162,0,0,1,1.808.861,3.838,3.838,0,0,1,.665,2.4ZM101.3,7.777a2.8,2.8,0,0,0-.457-1.693,1.472,1.472,0,0,0-1.254-.621,1.593,1.593,0,0,0-1.477.873V9.365a1.6,1.6,0,0,0,1.488.867,1.465,1.465,0,0,0,1.239-.618A3.058,3.058,0,0,0,101.3,7.777ZM104.938,11h-1.084V2h1.084Zm2.912,0h-1.084V4.66h1.084Zm-1.172-8.021a.647.647,0,0,1,.161-.445.6.6,0,0,1,.478-.182.614.614,0,0,1,.48.182.64.64,0,0,1,.164.445.619.619,0,0,1-.164.439.626.626,0,0,1-.48.176.616.616,0,0,1-.478-.176A.626.626,0,0,1,106.679,2.979Zm5.449,7.254a1.561,1.561,0,0,0,1.014-.352,1.237,1.237,0,0,0,.48-.879h1.025a1.966,1.966,0,0,1-.375,1.037,2.47,2.47,0,0,1-.923.785,2.663,2.663,0,0,1-1.222.293,2.612,2.612,0,0,1-2.06-.864,3.442,3.442,0,0,1-.765-2.364V7.707a3.817,3.817,0,0,1,.34-1.646,2.588,2.588,0,0,1,.976-1.119,2.771,2.771,0,0,1,1.5-.4,2.543,2.543,0,0,1,1.772.639,2.283,2.283,0,0,1,.753,1.658h-1.025a1.494,1.494,0,0,0-.466-1.011,1.449,1.449,0,0,0-1.034-.4,1.517,1.517,0,0,0-1.28.595,2.793,2.793,0,0,0-.454,1.72v.205a2.737,2.737,0,0,0,.451,1.688A1.524,1.524,0,0,0,112.128,10.232ZM119.78,11a2.277,2.277,0,0,1-.152-.668,2.419,2.419,0,0,1-1.8.785,2.238,2.238,0,0,1-1.538-.53,1.716,1.716,0,0,1-.6-1.345,1.792,1.792,0,0,1,.753-1.538,3.55,3.55,0,0,1,2.118-.548h1.055v-.5a1.217,1.217,0,0,0-.34-.905,1.366,1.366,0,0,0-1-.337,1.581,1.581,0,0,0-.973.293.863.863,0,0,0-.393.709h-1.09a1.5,1.5,0,0,1,.337-.917,2.3,2.3,0,0,1,.914-.7,3.075,3.075,0,0,1,1.269-.258,2.506,2.506,0,0,1,1.717.548,1.976,1.976,0,0,1,.645,1.509V9.518a3.567,3.567,0,0,0,.223,1.389V11Zm-1.8-.826a1.905,1.905,0,0,0,.967-.264,1.6,1.6,0,0,0,.662-.686v-1.3h-.85q-1.992,0-1.992,1.166a.987.987,0,0,0,.34.8A1.306,1.306,0,0,0,117.981,10.174Z" transform="translate(881 2152)" fill="#12263f"/>
          </g>
        </g>
      </g>
    </g>
  </g>
</svg>
