<svg xmlns="http://www.w3.org/2000/svg" xmlns:xlink="http://www.w3.org/1999/xlink" width="78.183" height="78.183" viewBox="0 0 78.183 78.183">
  <defs>
    <filter id="Trazado_872996" x="0" y="0" width="78.183" height="78.183" filterUnits="userSpaceOnUse">
      <feOffset dy="3" input="SourceAlpha"/>
      <feGaussianBlur stdDeviation="3" result="blur"/>
      <feFlood flood-opacity="0.161"/>
      <feComposite operator="in" in2="blur"/>
      <feComposite in="SourceGraphic"/>
    </filter>
  </defs>
  <g id="Grupo_1099706" data-name="Grupo 1099706" transform="translate(-171.333 -1539.295)">
    <g id="Grupo_1099705" data-name="Grupo 1099705">
      <g id="Grupo_1099704" data-name="Grupo 1099704">
        <g transform="matrix(1, 0, 0, 1, 171.33, 1539.29)" filter="url(#Trazado_872996)">
          <g id="Trazado_872996-2" data-name="Trazado 872996" transform="translate(9 6)" fill="#fff">
            <path d="M 30.09130859375 58.6826171875 C 26.23084831237793 58.6826171875 22.48665809631348 57.9268798828125 18.96273803710938 56.4363899230957 C 15.55828857421875 54.99642944335938 12.50045871734619 52.93467712402344 9.874198913574219 50.30841827392578 C 7.247938632965088 47.68215942382812 5.186188697814941 44.62432861328125 3.746228694915771 41.21987915039062 C 2.255738496780396 37.69595718383789 1.499998569488525 33.95176696777344 1.499998569488525 30.09130859375 C 1.499998569488525 26.23084831237793 2.255738496780396 22.48665809631348 3.746228694915771 18.96273803710938 C 5.186188697814941 15.55828857421875 7.247938632965088 12.50045871734619 9.874198913574219 9.874198913574219 C 12.50045871734619 7.247938632965088 15.55828857421875 5.186188697814941 18.96273803710938 3.746228694915771 C 22.48665809631348 2.255738496780396 26.23084831237793 1.499998569488525 30.09130859375 1.499998569488525 C 33.95176696777344 1.499998569488525 37.69595718383789 2.255738496780396 41.21987915039062 3.746228694915771 C 44.62432861328125 5.186188697814941 47.68215942382812 7.247938632965088 50.30841827392578 9.874198913574219 C 52.93467712402344 12.50045871734619 54.99642944335938 15.55828857421875 56.4363899230957 18.96273803710938 C 57.9268798828125 22.48665809631348 58.6826171875 26.23084831237793 58.6826171875 30.09130859375 C 58.6826171875 33.95176696777344 57.9268798828125 37.69595718383789 56.4363899230957 41.21987915039062 C 54.99642944335938 44.62432861328125 52.93467712402344 47.68215942382812 50.30841827392578 50.30841827392578 C 47.68215942382812 52.93467712402344 44.62432861328125 54.99642944335938 41.21987915039062 56.4363899230957 C 37.69595718383789 57.9268798828125 33.95176696777344 58.6826171875 30.09130859375 58.6826171875 Z" stroke="none"/>
            <path d="M 30.09130859375 2.999996185302734 C 26.43268585205078 2.999996185302734 22.88508605957031 3.715873718261719 19.54707336425781 5.127731323242188 C 16.32141876220703 6.492076873779297 13.42385482788086 8.445877075195312 10.93486404418945 10.93486404418945 C 8.445877075195312 13.42385482788086 6.492076873779297 16.32141876220703 5.127731323242188 19.54707336425781 C 3.715873718261719 22.88508605957031 2.999996185302734 26.43268585205078 2.999996185302734 30.09130859375 C 2.999996185302734 33.74993133544922 3.715873718261719 37.29753112792969 5.127731323242188 40.63554382324219 C 6.492076873779297 43.86119842529297 8.445877075195312 46.75876617431641 10.93486404418945 49.24775314331055 C 13.42385482788086 51.73674011230469 16.32141876220703 53.6905403137207 19.54707336425781 55.05488586425781 C 22.88508605957031 56.46674346923828 26.43268585205078 57.18262100219727 30.09130859375 57.18262100219727 C 33.74993133544922 57.18262100219727 37.29753112792969 56.46674346923828 40.63554382324219 55.05488586425781 C 43.86119842529297 53.6905403137207 46.75876617431641 51.73674011230469 49.24775314331055 49.24775314331055 C 51.73674011230469 46.75876617431641 53.6905403137207 43.86119842529297 55.05488586425781 40.63554382324219 C 56.46674346923828 37.29753112792969 57.18262100219727 33.74993133544922 57.18262100219727 30.09130859375 C 57.18262100219727 26.43268585205078 56.46674346923828 22.88508605957031 55.05488586425781 19.54707336425781 C 53.6905403137207 16.32141876220703 51.73674011230469 13.42385482788086 49.24775314331055 10.93486404418945 C 46.75876617431641 8.445877075195312 43.86119842529297 6.492076873779297 40.63554382324219 5.127731323242188 C 37.29753112792969 3.715873718261719 33.74993133544922 2.999996185302734 30.09130859375 2.999996185302734 M 30.09130859375 -3.814697265625e-06 C 46.71027374267578 -3.814697265625e-06 60.18262100219727 13.47234344482422 60.18262100219727 30.09130859375 C 60.18262100219727 46.71027374267578 46.71027374267578 60.18262100219727 30.09130859375 60.18262100219727 C 13.47234344482422 60.18262100219727 -3.814697265625e-06 46.71027374267578 -3.814697265625e-06 30.09130859375 C -3.814697265625e-06 13.47234344482422 13.47234344482422 -3.814697265625e-06 30.09130859375 -3.814697265625e-06 Z" stroke="none" fill="#972544"/>
          </g>
        </g>
        <g id="Filled_outline" data-name="Filled outline" transform="translate(185.333 1552.299)">
          <path id="Trazado_872997" data-name="Trazado 872997" d="M40.782,34.159H41.5V27L25.749,32.727,10,27v7.159h.716a1.432,1.432,0,0,1,1.432,1.432v2.863a1.432,1.432,0,0,1-1.432,1.432H10v5.727l15.749,5.727L41.5,45.612V39.885h-.716a1.432,1.432,0,0,1-1.432-1.432V35.59A1.432,1.432,0,0,1,40.782,34.159Z" transform="translate(-1.137 -7.105)" fill="#f4ab5d"/>
          <path id="Trazado_872998" data-name="Trazado 872998" d="M34.748,13.021v8.816l2.863-1.808V12.3A9.476,9.476,0,0,0,28.3,3,9.085,9.085,0,0,0,19,12.3v7.723l2.863,1.809V13.021a4.617,4.617,0,0,0,3.579-2.148C26.873,12.3,29.021,14.453,34.748,13.021Z" transform="translate(-3.693 -0.284)" fill="#394d5c"/>
          <path id="Trazado_872999" data-name="Trazado 872999" d="M35.885,16.148c-5.727,1.432-7.874-.716-9.306-2.148A4.617,4.617,0,0,1,23,16.148v8.816l6.443,4.069,6.443-4.069Z" transform="translate(-4.83 -3.411)" fill="#ffd782"/>
          <path id="Trazado_873000" data-name="Trazado 873000" d="M21.863,25.727a2.863,2.863,0,1,1,0-5.727Z" transform="translate(-3.694 -5.116)" fill="#f9bb4b"/>
          <path id="Trazado_873001" data-name="Trazado 873001" d="M41,20a2.863,2.863,0,1,1,0,5.727Z" transform="translate(-9.945 -5.116)" fill="#f9bb4b"/>
          <rect id="Rect치ngulo_378037" data-name="Rect치ngulo 378037" width="4.295" height="5.727" rx="2" transform="translate(6.716 27.054)" fill="#ffd782"/>
          <rect id="Rect치ngulo_378038" data-name="Rect치ngulo 378038" width="4.295" height="5.727" rx="2" transform="translate(42.509 32.781) rotate(180)" fill="#ffd782"/>
          <path id="Trazado_873002" data-name="Trazado 873002" d="M26.6,31.59,13,23v3.644Z" transform="translate(-1.989 -5.968)" fill="#edeccc"/>
          <path id="Trazado_873003" data-name="Trazado 873003" d="M45.6,23,32,31.59l13.6-4.946Z" transform="translate(-7.388 -5.968)" fill="#edeccc"/>
          <path id="Trazado_873004" data-name="Trazado 873004" d="M28,33.545V52.157L30.863,53.2l2.863-1.042V33.545l-2.863,1.042Z" transform="translate(-6.251 -8.964)" fill="#fce6ce"/>
          <path id="Trazado_873005" data-name="Trazado 873005" d="M27,22h1.432v1.432H27Z" transform="translate(-5.967 -5.684)"/>
          <path id="Trazado_873006" data-name="Trazado 873006" d="M31,25h1.432v2.863H31Z" transform="translate(-7.104 -6.536)"/>
          <path id="Trazado_873007" data-name="Trazado 873007" d="M35,22h1.432v1.432H35Z" transform="translate(-8.24 -5.684)"/>
          <path id="Trazado_873008" data-name="Trazado 873008" d="M8.148,33.5v5.011a.716.716,0,0,0,.471.673L24.612,45,40.606,39.18a.716.716,0,0,0,.471-.673V33.5a2.148,2.148,0,0,0,2.148-2.148V28.486a2.148,2.148,0,0,0-2.148-2.148V19.9a.716.716,0,0,0-.961-.673l-1.187.43v-2.62a.716.716,0,0,0-1.1-.606l-3.2,2.019V12.021A10.156,10.156,0,0,0,24.612,2,9.8,9.8,0,0,0,14.59,12.021v6.425l-3.2-2.019a.716.716,0,0,0-1.1.606v2.622l-1.187-.43a.716.716,0,0,0-.961.671v6.443A2.148,2.148,0,0,0,6,28.486v2.863A2.148,2.148,0,0,0,8.148,33.5Zm18.612,9.2-2.148.781-2.148-.781V25.6l2.148.781L26.76,25.6ZM18.885,21.158V13.364a5.375,5.375,0,0,0,2.935-1.7c1.432,1.331,3.755,2.919,8.519,1.966v7.529l-5.727,3.617ZM41.077,27.77a.716.716,0,0,1,.716.716v2.863a.716.716,0,0,1-.716.716H39.645a.716.716,0,0,1-.716-.716V28.486a.716.716,0,0,1,.716-.716Zm-1.432-6.852v5.42A2.148,2.148,0,0,0,37.5,28.486v2.863A2.148,2.148,0,0,0,39.645,33.5v4.51L28.191,42.171V25.082ZM37.5,18.33v1.844L30.615,22.68Zm-5.727,1.442v-4.05a2.148,2.148,0,0,1,0,4.05ZM16.022,12.021a8.4,8.4,0,0,1,8.59-8.59,8.814,8.814,0,0,1,8.59,8.59V14.9a3.546,3.546,0,0,0-1.432-.662v-1.5a.716.716,0,0,0-.89-.7c-5.332,1.336-7.237-.568-8.626-1.956a.716.716,0,0,0-1.1.109,3.9,3.9,0,0,1-2.984,1.827.716.716,0,0,0-.716.716v1.5a3.546,3.546,0,0,0-1.432.662Zm1.432,3.7v4.05a2.148,2.148,0,0,1,0-4.05ZM11.727,18.33l6.882,4.347-6.882-2.5ZM9.579,20.918l11.454,4.165V42.171L9.579,38.006V33.5a2.148,2.148,0,0,0,2.148-2.148V28.486a2.148,2.148,0,0,0-2.148-2.148ZM7.432,28.486a.716.716,0,0,1,.716-.716H9.579a.716.716,0,0,1,.716.716v2.863a.716.716,0,0,1-.716.716H8.148a.716.716,0,0,1-.716-.716Z" transform="translate(0 0)"/>
          <path id="Trazado_873009" data-name="Trazado 873009" d="M0,0H1.432V8.379H0Z" transform="translate(10.774 24.15) rotate(-70.007)"/>
        </g>
      </g>
    </g>
  </g>
</svg>
